<svg xmlns="http://www.w3.org/2000/svg" xml:space="preserve" style="fill-rule:evenodd;clip-rule:evenodd;stroke-linejoin:round;stroke-miterlimit:2" viewBox="0 0 1080 1080">
  <g transform="matrix(.82856 0 0 .81081 -380.762 -378.503)">
    <path d="M901.097 1738.89c-116.512-37.96-157.289-362.91-134.611-551.44 22.62-188.051 151.452-385.914 366.044-384.931 229.88 1.054 354.69 176.413 372.33 353.541 12.65 126.95-20.5 513.98-123.12 580.83-30.55 19.9-74.36 16.21-97.46 5.71-33.85-15.37-42.01-109.56-68.49-123.64-24.24-12.89-122.76-13.33-146.67.33-20.66 11.79-51.06 99.32-81.663 114.74-36.14 18.2-58.176 14.05-86.36 4.86Z" style="fill:#c8d645"/>
    <clipPath id="a">
      <path d="M901.097 1738.89c-116.512-37.96-157.289-362.91-134.611-551.44 22.62-188.051 151.452-385.914 366.044-384.931 229.88 1.054 354.69 176.413 372.33 353.541 12.65 126.95-20.5 513.98-123.12 580.83-30.55 19.9-74.36 16.21-97.46 5.71-33.85-15.37-42.01-109.56-68.49-123.64-24.24-12.89-122.76-13.33-146.67.33-20.66 11.79-51.06 99.32-81.663 114.74-36.14 18.2-58.176 14.05-86.36 4.86Z"/>
    </clipPath>
    <g clip-path="url(#a)">
      <path d="M208.095 610.571c-.307-6.865 492.531-144.129 612.158-173.107 2.98 11.073-14.583 143.945-28.942 149.621-18.26 7.217-505.069 140.384-525.878 148.457-6.954 2.698-12.345-16.296-29.205-46.927-13.289-24.145-27.953-74.013-28.133-78.044Z" style="fill:#ea9900" transform="translate(551.438 849.497) scale(1.16445)"/>
      <path d="m206.024 610.668.081-.72.321-.702.49-.56c.162-.144.38-.31.659-.486 1.577-.99 6.288-2.845 13.7-5.371 80.717-27.511 490.804-141.338 598.5-167.427 1.086-.263 2.181.4 2.477 1.5.648 2.41.446 10.388-.555 21.539-2.262 25.192-8.272 67.126-15.224 96.415-3.029 12.759-6.264 23.146-9.421 28.832-1.641 2.955-3.395 4.741-4.993 5.372-18.261 7.218-505.081 140.39-525.89 148.463-2.819 1.093-5.645-.02-8.559-3.835-5.064-6.63-11.312-22.456-23.188-44.034-13.446-24.429-28.216-74.907-28.398-78.986Zm4.293.836c1.594 8.198 15.293 53.499 27.718 76.073 10.099 18.348 16.073 32.516 20.739 40.331 1.397 2.341 2.632 4.073 3.861 5.074.701.57 1.351.856 2.062.58 20.809-8.073 507.607-141.236 525.866-148.453.579-.229 1.111-.826 1.702-1.634.809-1.106 1.616-2.588 2.432-4.389 2.62-5.78 5.24-14.669 7.747-25.229 6.908-29.103 12.877-70.771 15.124-95.803.739-8.223 1.117-14.588.941-17.989-110.932 27.066-515.798 139.475-595.922 166.783-5.554 1.893-9.522 3.365-11.69 4.368-.198.091-.398.193-.58.288Z" style="fill:#ea9900" transform="translate(551.438 849.497) scale(1.16445)"/>
      <path d="M222.779 633.574c17.242-9.212 514.144-165.651 633.771-194.63 2.98 11.074 14.506 143.024-4.27 149.664-10.475 3.705-583.348 168.723-604.887 173.239-7.003 1.468-33.905-123.31-24.614-128.273Z" style="fill:#f2ce1b" transform="translate(507.973 670.735) scale(1.16445)"/>
      <path d="M221.818 631.696c17.256-9.219 514.534-165.812 634.254-194.813 1.086-.263 2.181.4 2.477 1.5 2.098 7.798 8.446 75.187 5.565 117.21-.754 10.988-2.152 20.266-4.373 26.375-1.727 4.748-4.095 7.691-6.783 8.642-10.48 3.706-583.6 168.795-605.148 173.312l-.555.056-.528-.055-.87-.329c-.481-.27-1.04-.763-1.598-1.54-2.269-3.16-5.596-12.898-9.027-25.772-7.828-29.372-16.598-75.29-16.454-94.27.028-3.692.427-6.458 1.123-8.058.499-1.147 1.187-1.867 1.917-2.258Zm25.867 127.916c31.013-7.29 593.54-169.336 603.917-173.006 1.82-.643 3.083-2.899 4.252-6.114 2.122-5.833 3.404-14.702 4.124-25.195 2.675-39.024-2.643-100.194-5.012-113.789-122.832 30.157-612.213 184.197-631.123 193.888a3.946 3.946 0 0 0-.25.527c-.157.445-.277.989-.375 1.622-.437 2.831-.374 7.176.043 12.561 1.676 21.674 9.194 59.633 15.971 85.063 2.862 10.737 5.567 19.216 7.654 23.183.241.459.579.953.799 1.26Z" style="fill:#f2ce1b" transform="translate(507.973 670.735) scale(1.16445)"/>
      <path d="M246.838 658.676c.937-8.589 588.014-194.775 602.067-203.437 1.295 4.814 34.607 142.161 28.776 146.369-15.04 10.854-606.34 186.909-627.209 190.241-8.719 1.393-4.184-128.137-3.634-133.173Z" style="fill:#94c775" transform="translate(477.87 479.546) scale(1.16445)"/>
      <path d="m244.778 658.441.155-.625.332-.592c.205-.277.59-.657 1.21-1.061 1.962-1.275 7.606-3.695 16.345-7.021 95.857-36.479 572.374-187.926 585.014-195.716a2.034 2.034 0 0 1 1.84-.154 2.104 2.104 0 0 1 1.23 1.406c1.038 3.858 22.603 92.696 28.197 130.235 1.01 6.775 1.49 11.932 1.289 14.713-.15 2.075-.884 3.258-1.513 3.712-3.035 2.19-29.295 11.131-69.583 23.926-159.824 50.76-541.798 164.011-558.502 166.678l-1.034-.021-.923-.357c-.548-.321-1.123-.896-1.61-1.804-1.078-2.007-1.979-6.421-2.594-12.526-3.298-32.73-.295-116.749.147-120.793Zm6.074 131.184c24.535-5.069 399.348-116.269 557.212-166.407 27.914-8.865 49.039-15.819 60.231-19.938 4.021-1.479 6.696-2.534 7.836-3.18.057-.464.181-1.643.149-2.764-.081-2.797-.54-6.834-1.278-11.785-5.139-34.485-23.808-112.421-27.498-127.373-39.254 15.927-490.222 159.537-583.237 194.934-6.627 2.522-11.413 4.483-14.07 5.804a19.18 19.18 0 0 0-1.357.756c-.591 9.332-3.238 87.841-.085 119.128.395 3.919.874 7.073 1.474 9.211.165.588.443 1.227.623 1.614Z" style="fill:#94c775" transform="translate(477.87 479.546) scale(1.16445)"/>
      <path d="M300.996 752.116c11.34-6.197 417.398-135.677 477.678-150.28 1.179 4.382 24.166 19.962 41.738 44.198 28.504 39.311 40.625 55.295 48.144 69.265 8.993 16.705-601.447 196.691-602.99 197.943-2.232 1.813.34-29.005 7.777-70.593 7.45-41.658 25.371-89.286 27.653-90.533Z" style="fill:#e9a367" transform="translate(454.049 175.26) scale(1.16445)"/>
      <path d="M266.388 915.184s.415-.24.468-.283l-.468.283-.129.076-.585.158h-.572l-.557-.149-.417-.227-.441-.391-.376-.556-.261-.678c-.369-1.304-.439-4.993-.053-10.605.842-12.232 3.603-34.242 8.307-60.543 5.992-33.508 18.725-70.857 24.752-85.099 1.291-3.049 2.319-5.097 2.92-5.936l.465-.552.578-.434c11.352-6.204 417.832-135.855 478.177-150.473 1.086-.263 2.181.4 2.477 1.5.088.324.435.702.881 1.223 1.045 1.22 2.672 2.776 4.722 4.663 8.336 7.672 23.401 20.509 35.802 37.612 28.599 39.442 40.75 55.489 48.295 69.505l.23.556.114.598-.108 1.115c-.176.637-.619 1.413-1.457 2.225-1.981 1.916-6.914 4.674-14.421 8.035-83.15 37.228-492.256 159.194-574.258 184.034-8.141 2.466-13.035 3.966-14.032 4.323l-.053.02Zm-1.433-3.957a1.793 1.793 0 0 0-.678.357l.678-.357Zm2.02-.679c2.314-.727 6.498-2.005 12.32-3.769 81.932-24.819 490.693-146.656 573.773-183.853 5.959-2.668 10.197-4.866 12.439-6.563a8.65 8.65 0 0 0 .846-.756c-7.524-13.759-19.681-29.8-47.606-68.312-12.201-16.827-27.043-29.438-35.246-36.986-2.598-2.392-4.556-4.311-5.631-5.714a9.816 9.816 0 0 1-.238-.323c-64.738 16.17-458.805 141.78-475.363 149.564a62.492 62.492 0 0 0-2.408 5.016c-5.962 14.087-18.552 51.033-24.479 84.178-4.667 26.1-7.414 47.941-8.249 60.079a84.15 84.15 0 0 0-.158 7.439Z" style="fill:#e9a367" transform="translate(454.049 175.26) scale(1.16445)"/>
      <path d="M334.671 832.023c7.856-3.358 60.419-155.521 178.925-188.604 58.078-16.213 82.867-22.703 87.501-23.074 37.993-3.039 36.307 5.633 45.741 9.716 8.098 3.503 47.798 1.634 72.757 10.19 39.758 13.63 91.32 41.583 84.308 44.288-18.191 7.018-473.515 149.314-469.232 147.484Z" style="fill:#c35e1e" transform="translate(417.333 77.765) scale(1.16445)"/>
      <path d="M333.724 830.148s.663-.753 1.127-1.459c1.837-2.798 4.557-8.166 8.23-15.373 21.419-42.022 74.505-145.29 169.968-171.94 58.329-16.284 83.232-22.771 87.886-23.143 27.55-2.203 34.932 1.739 40.25 5.632 2.077 1.521 3.79 3.089 6.462 4.245 3.138 1.358 11.184 1.802 21.247 2.473 15.74 1.051 36.229 2.473 51.361 7.66 32.062 10.992 71.722 31.262 82.691 40.312 2.099 1.731 3.242 3.259 3.536 4.261l.137 1.064-.091.612-.232.603-.603.782-.528.39-.53.254c-16.376 6.318-386.935 122.247-457.76 144.035-7.186 2.21-11.333 3.459-11.774 3.552l-.452.05-.66-.108-.537-.275-.468-.462-.254-.452-.142-.529.073-.923.424-.77.405-.363.234-.128Zm6.255-1.907a1740.27 1740.27 0 0 0 5.701-1.742c69.287-21.314 425.597-132.77 455.984-143.396a15.803 15.803 0 0 0-1.322-1.252c-10.794-8.904-49.856-28.775-81.406-39.591-17.317-5.937-41.799-6.777-57.679-7.958-7.181-.534-12.687-1.192-15.227-2.291-2.052-.888-3.625-1.967-5.151-3.113-5.421-4.067-10.275-8.788-39.62-6.441-4.615.369-29.289 6.862-87.117 23.006-94.145 26.282-146.261 128.369-167.384 169.81-2.777 5.448-5.031 9.868-6.779 12.968Zm-3.86 5.337-.649.399c.267-.114.48-.25.649-.399Z" style="fill:#c35e1e" transform="translate(417.333 77.765) scale(1.16445)"/>
    </g>
    <path d="M895.597 1756.52c-38.984-12.7-71.733-52.99-95.883-110.56-51.596-122.99-67.408-325.99-51.196-460.77 23.652-196.634 159.704-402.199 384.092-401.171 240.83 1.104 371.78 184.602 390.27 370.171 8.99 90.32-4.75 310.18-49.62 457.26-20.5 67.19-48.44 119.32-81.79 141.04-35.9 23.39-87.38 19.36-114.55 7.02-9.65-4.39-18.26-12.8-25.48-24.36-8.23-13.18-14.97-30.89-21.2-48.59-4.6-13.07-8.94-26.11-13.76-36.72-2.98-6.55-5.13-12.39-9.05-14.47-10.72-5.7-37.99-7.69-65.11-7.7-26.89-.01-53.88 1.78-64.37 7.76-2.42 1.39-4.54 5.03-7.37 9.27-7.01 10.5-14.68 25.04-22.81 39.71-8.91 16.08-18.35 32.28-27.94 44.48-7.95 10.11-16.29 17.66-24.367 21.73-41.799 21.06-67.269 16.52-99.866 5.9Zm10.999-35.25c23.772 7.74 42.372 11.52 72.855-3.84 5.281-2.66 10.133-8.74 15.303-15.9 10.386-14.4 20.406-33.4 29.746-50.3 8.18-14.8 15.96-28.12 22.91-36.57 4.43-5.41 8.87-9.24 12.88-11.53 13.42-7.66 47.63-12.48 82.05-12.46 34.18.01 68.29 4.69 81.8 11.88 7.91 4.2 15.39 12.57 21.64 24.44 6.63 12.61 12.45 29.78 18.53 47.05 4.47 12.7 9.09 25.47 14.63 35.93 3.76 7.09 7.34 13.3 12.69 15.73 19.05 8.65 55.19 12 80.38-4.41 28.22-18.38 49.34-63.99 66.68-120.85 43.43-142.34 56.87-355.09 48.16-442.51-16.8-168.688-135.47-335.908-354.4-336.911-204.798-.938-326.408 189.221-347.996 368.681-13.348 110.98-4.319 270.13 29.754 387.73 13.14 45.35 29.882 84.42 50.898 111.42 12.33 15.84 25.974 27.36 41.49 32.42Z" style="fill:#785135"/>
  </g>
  <path d="M1178.78 631.065c-5.43-4.266-9.4-6.512-13.49-11.306-3.17-3.709-6.8-8.922-8.82-17.907-4.37-19.497-.55-27.701 5.46-40.689 12.53-27.075 42.36-35.488 66.13-36.207 17.5-.529 57.74 10.271 59.48 11.291 3.5 2.055 4.36 23.376 4.75 33.537.73 19.141-1.37 36.488-11.01 52.527-11.17 18.592-33.01 33.308-61.76 29.04-16.43-2.438-30.23-12.036-40.74-20.286Z" style="fill:#785135" transform="scale(1.3654) rotate(-10.521 -1838.255 4482.954)"/>
  <path d="M1176.97 633.369c-5.61-4.406-9.68-6.756-13.91-11.708-3.39-3.971-7.28-9.548-9.44-19.167-4.58-20.391-.63-28.978 5.65-42.561 13.04-28.178 43.96-37.157 68.7-37.905 14.22-.43 43.24 6.458 55.18 9.78 3.34.931 5.47 1.68 5.87 1.912l.98.778c.33.337.65.763.95 1.285.76 1.304 1.44 3.448 1.96 6.134 1.5 7.739 2.03 20.526 2.31 27.755.75 19.737-1.49 37.609-11.43 54.148-11.7 19.478-34.58 34.9-64.7 30.429-16.97-2.518-31.27-12.358-42.12-20.88Zm108.89-94.624c-.73-.235-2.44-.779-4.28-1.293-11.57-3.217-39.66-9.984-53.44-9.568-22.79.69-51.53 8.537-63.55 34.509-5.73 12.392-9.44 20.214-5.26 38.817 1.88 8.35 5.25 13.2 8.19 16.647 3.96 4.636 7.82 6.778 13.07 10.903 10.16 7.979 23.47 17.336 39.36 19.694 27.38 4.064 48.18-9.946 58.82-27.652 9.34-15.54 11.3-32.362 10.59-50.907-.26-6.996-.75-19.371-2.2-26.86-.34-1.718-1.08-3.707-1.3-4.29Z" style="fill:#785135" transform="scale(1.3654) rotate(-10.521 -1838.255 4482.954)"/>
  <path d="M1160.42 787.993c4.15 15.515-6.37 31.167-23.48 34.931-17.11 3.764-34.37-5.777-38.52-21.292-7.18-26.869-15.55-45.631 11.7-105.058 24.02-52.4 47.41-80.719 73.86-103.052 12.89-10.877 33.09-10.22 45.08 1.467 12 11.686 11.27 30.005-1.62 40.882-21.18 17.879-39.19 40.965-58.42 82.914-17.97 39.197-13.34 51.486-8.6 69.208Z" style="fill:#785135" transform="matrix(.50163 0 0 .55312 .425 -167.277)"/>
  <path d="M1163.6 789.764c-9.96-1.703-23.83-2.218-38.24-2.368-14.15-.147-27.58-.945-46.66.769-20.62 1.852-39.57 1.721-40.89 4.449-.4.843 46.4 13.179 48.08 15.949 2.71 4.484-30.55 19.595-28.44 21.01 6.47 4.34 37.6-14.669 41.72-13.554 4.07 1.098-12.02 26.043-10.02 26.376 2.31.386 26.81-20.153 30.55-19.406 3.31.663-2.08 23.787 1.47 24.296 4.59.655 14.36-22.623 18.7-23.244 3.73-.532 8.79 20.83 12.14 21.249 2.14.268 4.74-23.14 9.07-22.979 4.73.175 22.3 17.177 24.6 17.177 2.5 0-6.87-17.938-3.22-19.329 2.16-.821 9.31-.64 15.27 1.466 7.96 2.817 14.81 7.885 14.64 7.135-1.62-7.109-9.91-16.14-5.62-19.438 4.16-3.202 33.86-1.286 34.51-2.008 3.18-3.479-64.61-15.319-77.66-17.55Z" style="fill:#785135" transform="matrix(1.05538 -.04412 .0577 1.3805 -676.926 -769.084)"/>
  <path d="M1184.49 821.938c-.01.369 0 .91.07 1.344.64 4.088 3.5 10.751 4.2 13.975.3 1.401.13 2.426-.15 2.916l-.48.596-.54.403-.93.37-.98.118-1.12-.148-1.37-.569c-1.53-.843-4.5-3.209-7.88-5.968-3.54-2.899-7.6-6.244-10.88-8.476-.91-.617-2.02-1.217-2.77-1.603-.15.236-.31.499-.42.739-1.76 3.673-3.14 10.558-4.36 15.205-.72 2.748-1.53 4.817-2.15 5.499l-.58.503-.7.363-.86.222-1.04.006-.93-.219-.97-.485c-.43-.287-.9-.724-1.36-1.319-1.85-2.396-4.06-8.542-6.2-13.569-.78-1.827-1.54-3.493-2.29-4.715-.28.303-.58.639-.83.965-3 3.945-6.77 10.971-10.06 15.614-1.65 2.334-3.29 4.11-4.62 4.914a6.69 6.69 0 0 1-1.01.496l-.86.248-.84.102-.93-.046-.88-.224-.73-.358-.61-.489-.54-.712c-.81-1.382-.93-4.946-.65-9.045.25-3.661.7-7.799.74-10.893.01-.614.01-1.183-.02-1.693-.59.304-1.24.659-1.83 1.021-2.92 1.81-6.63 4.452-10.29 7.105-5.63 4.088-11.16 8.192-13.75 9.574-.77.412-1.41.646-1.85.748l-.85.116-.85-.052-.69-.185-.61-.31-.76-.744-.31-.801.05-1.088c.21-.995 1.1-2.966 2.33-5.411 2.6-5.175 6.79-12.724 8.1-17.05.02-.052.03-.105.05-.158-.27.09-.54.186-.79.286-5.1 1.977-13.31 6.119-20.82 9.211-5.45 2.244-10.59 3.906-14.13 4.1-2.3.126-4.11-.307-5.38-1.162l-.67-.631-.35-.767-.01-.795.33-.782c.35-.557 1.42-1.505 3.15-2.615 5.09-3.284 16.75-9.3 22.55-13.84.86-.677 1.58-1.312 2.09-1.895.1-.109.2-.244.28-.372-.71-.331-1.91-.868-3.06-1.294-10.74-3.98-36.25-10.951-42.09-13.06-1.22-.441-1.9-.871-2.12-1.066l-.43-.521-.26-.673v-.497l.16-.535.63-.862 1.22-.855c1.13-.584 3.11-1.106 5.82-1.481 7.36-1.019 21.04-1.353 35.55-2.655 19.23-1.728 32.77-.933 47.03-.784 14.63.152 28.71.692 38.82 2.42 10.5 1.796 56.24 9.791 72.48 14.703 3.46 1.045 5.73 2.095 6.56 2.851l.71.888.24.893-.15.846-.47.729-.83.612-1.06.334c-.56.101-1.94.167-3.89.163-5.57-.013-16.75-.372-24.08.286-1.42.128-2.68.291-3.69.514-.56.123-1.03.2-1.28.389-.35.268-.39.653-.39 1.083-.01.868.31 1.87.75 2.964 1.65 4.074 5.06 9.138 6.05 13.487l-.05.967-.26.492-.48.497-.73.415-.73.199-.76.046-.93-.149c-.33-.092-1.02-.391-1.93-.913-2.29-1.301-7.24-4.392-12.77-6.346-3.2-1.133-6.79-1.642-9.57-1.711-.98-.024-1.84-.021-2.47.054Zm-139.44-29.157c9.68 2.958 28.49 8.253 37.32 11.526 2.12.785 3.72 1.484 4.61 2.015.38.225.67.44.89.631l.59.7.29.637.13.641c.03.517-.07 1.088-.35 1.699-.45.969-1.45 2.138-2.92 3.39-4.62 3.935-14.37 9.241-20.71 12.961-.19.115-.39.233-.59.353 2.42-.658 5.19-1.699 8.08-2.89 8.71-3.584 18.36-8.542 23.14-10.041 2.09-.656 3.71-.668 4.59-.431l.77.291.64.411.77.927c.29.538.45 1.334.33 2.35-.45 3.66-4.96 12.104-8.1 18.247 2.33-1.607 5.01-3.477 7.4-5.216 5.73-4.155 11.61-8.245 14.71-9.53.74-.304 1.38-.487 1.91-.575l1.02-.079.84.09 1.07.37.74.511.53.612c.16.233.31.514.43.841.74 2.003.42 7.063 0 12.11-.2 2.444-.22 5.41-.19 7.565.94-1.21 1.93-2.689 2.95-4.283 3-4.708 6.18-10.359 8.72-13.459.97-1.187 1.91-2.053 2.71-2.532l1.05-.489.93-.227.97-.037.87.141.85.307.89.558c1 .775 2.16 2.469 3.24 4.685 1.61 3.327 3.29 7.953 4.87 11.552.09.205.18.412.28.621.27-.927.54-1.916.77-2.861 1.37-5.629 3.1-12.395 5.1-14.834.56-.685 1.18-1.152 1.77-1.435l1.02-.35 1.24-.112c1.2.045 3.12.693 5.27 2.003 3.62 2.208 8.67 6.345 12.97 9.864.88.716 1.72 1.405 2.52 2.043-1.45-4.352-3.44-9.892-3.19-12.583.08-.828.34-1.492.69-1.978l.67-.698 1.04-.577c.89-.339 2.38-.614 4.28-.67 3.57-.106 8.83.476 13.45 2.108 3.08 1.089 5.99 2.5 8.43 3.797-1.68-3.366-3.7-6.726-4.37-9.408-.67-2.653-.13-4.805 1.75-6.252.7-.536 1.82-1.041 3.33-1.407 1.62-.391 3.8-.671 6.3-.851 4.86-.349 11.02-.335 16.2-.28-18.55-4.863-57.97-11.728-67.58-13.371-9.81-1.676-23.47-2.168-37.66-2.315-14.04-.146-27.36-.946-46.29.755-13.6 1.221-26.46 1.569-33.98 2.459Z" style="fill:#785135" transform="matrix(1.05538 -.04412 .0577 1.3805 -676.926 -769.084)"/>
</svg>