<svg xmlns="http://www.w3.org/2000/svg" xml:space="preserve" style="fill-rule:evenodd;clip-rule:evenodd;stroke-linejoin:round;stroke-miterlimit:2" viewBox="0 0 1080 1080">
  <path d="M0 0h1080v1080H0z" style="fill:none"/>
  <path d="M1016.43 1659.53c-67.799-2.21-125.473-47.67-145.641-129.68-28.954-117.73-47.919-243.72-17.968-436.83 18.904-121.884 34.277-318.532 390.829-268.4 134.8 18.952 219.78 148.363 234.84 314.58 16.85 186-4.48 304.32-26.31 394.1-20.57 84.57-54.09 130.01-143.98 128.02-67.8-1.5-91.98-92.59-112.28-119.36-9.4-12.41-38.04-8.95-50.39 3.59-26.59 26.98-27.96 117.27-129.1 113.98Z" style="fill:#fae7e7" transform="matrix(.68428 0 0 .68846 -180.406 -156.084)"/>
  <path d="M1016 1672.49c-73.261-2.39-136.093-50.94-157.887-139.56-29.288-119.1-48.485-246.54-18.188-441.88 11.797-76.07 23.528-179.552 110.122-239.363 57.333-39.598 148.123-60.62 295.433-39.909 140.3 19.726 230.33 153.253 246 326.252 17.03 188-4.55 307.58-26.62 398.31-13.27 54.58-32.39 93.54-65.78 115.89-22.6 15.13-51.91 22.93-91.17 22.06-38.52-.85-65.25-26.26-84.63-56.15-16.85-25.99-27.75-55.15-37.77-68.37-1.67-2.2-5-2.42-8.38-2.56-7.9-.33-17.18 2.23-22.28 7.41-9.93 10.07-15.59 29.85-25.45 49.45-17.73 35.26-45.51 70.63-113.4 68.42Zm.85-25.93c53.48 1.75 75.24-26.31 89.2-54.08 11.28-22.42 18.81-44.49 30.15-56 9.72-9.87 27-15.82 42.03-15.18 11.93.49 22.24 5.11 28.12 12.85 10.27 13.55 21.61 43.32 38.87 69.94 14.73 22.73 33.98 43.62 63.28 44.27 32.65.72 57.2-5.06 76-17.64 28.7-19.21 43.59-53.56 55-100.47 21.6-88.82 42.66-205.87 25.99-389.89-14.44-159.43-94.37-284.72-223.66-302.898-137.94-19.394-223.21-1.553-276.891 35.526-79.925 55.205-88.334 151.802-99.222 222.012-29.604 190.87-10.871 315.4 17.747 431.77 18.543 75.4 71.057 117.76 133.386 119.79Z" style="fill:#6b441e" transform="matrix(.68428 0 0 .68846 -180.406 -156.084)"/>
  <path d="M531.018 1022.83c-1.618-4.4-2.508-9.21-2.502-14.26.022-20.554 14.883-37.241 33.164-37.241l13.773 3.221 6.823 4.469 5.439 5.732 4.474 7.493 2.956 9.056.716 15.25c.057-.8.071-1.54.071-2.18 0-1.03-.36-5.06-.36-5.06s8.089 32.59 18.26 69.15c47.562 170.95 167.078 575.88 174.819 595.25 7.489 18.74.03 40.81-16.647 49.25-16.677 8.45-36.297.09-43.786-18.65-7.85-19.65-129.381-430.18-177.614-603.54-10.276-36.93-16.917-64.6-19.586-77.94Zm-1.155-12.07.067-1.39c-.034.47-.056.93-.067 1.39Zm15.052 29.98c4.48 3.16 9.929 5.07 16.683 5.07-6.084 0-11.785-1.85-16.683-5.07Z" style="fill:#6b441e" transform="matrix(.70751 .01182 -.00973 .62932 52.23 -298.815)"/>
  <path d="M515.342 891.071c4.784-8.753 42.746-35.398 42.746-35.398-2.008 2.421 9.084 21.452 25.547 27.447 13.167 4.794 27.874-2.198 32.001-12.341 5.84-14.352-6.02-28.16-3.52-45.083 3.109-21.047 41.834-28.841 52.952-16.163 12.756 14.546 14.409 54.89 2.193 81.781-9.553 21.029-29.405 37.404-51.647 43.082-34.156 8.719-60.811-3.878-78.028-17.702-14.869-11.938-22.699-24.791-22.244-25.623Z" style="fill:#f8be46" transform="matrix(1.08148 .51809 -.46748 1.05434 395.727 -464.926)"/>
  <path d="M563.579 856.575c1.329 3.958 6.689 11.47 14.143 16.805 2.413 1.727 5.06 3.218 7.896 4.251 10.166 3.702 21.696-1.15 24.882-8.981 2.408-5.919.819-11.702-.766-17.774-2.116-8.101-4.515-16.584-3.139-25.896 1.875-12.694 13.96-22.031 27.783-25.644 7.781-2.033 15.97-2.291 22.636-.669 5.095 1.24 9.346 3.593 12.232 6.884 5.699 6.499 9.635 17.516 11.168 30.43 2.181 18.374-.348 40.592-8.114 57.686-10.273 22.613-31.588 40.262-55.505 46.368-36.197 9.24-64.458-4.054-82.705-18.704-14.535-11.671-22.674-24.341-23.837-27.379l-.448-1.668-.041-1.55.74-2.42c1.629-2.981 6.504-7.94 12.731-13.211 12.973-10.981 31.821-24.215 31.821-24.215 2.345-1.646 5.448-1.274 7.268.87 1.14 1.344 1.558 3.125 1.255 4.817Zm-41.549 34.838c2.822 4.009 9.778 13.2 19.051 20.645 16.189 12.997 41.238 24.897 73.353 16.698 20.566-5.25 38.954-20.35 47.788-39.796 6.894-15.175 9.038-34.911 7.102-51.223-1.212-10.21-3.929-19.084-8.435-24.222-1.562-1.781-3.965-2.861-6.723-3.532-5.114-1.245-11.396-.944-17.366.616-4.915 1.284-9.635 3.427-13.273 6.422-3.047 2.509-5.331 5.612-5.889 9.392-1.125 7.611 1.156 14.492 2.885 21.114 2.26 8.653 3.681 16.945.249 25.38-5.069 12.458-22.948 21.59-39.121 15.701-12.616-4.594-22.392-16.016-26.696-23.737-6.471 4.695-16.8 12.367-24.821 19.156-3.293 2.787-6.211 5.331-8.104 7.386Z" style="fill:#6b441e" transform="matrix(1.08148 .51809 -.46748 1.05434 395.727 -464.926)"/>
  <path d="M396.34 625.312c10.713 14.34 33.488 14.495 63.133 4.801 40.112-13.116 72.2 6.617 78.058 43.732 7.178 45.487-14.895 80.802-84.849 84.856-31.489 1.826-70.228-9.008-92.664-35.805" style="fill:#fae7e7" transform="matrix(.91297 0 0 .94898 117.76 47.06)"/>
  <path d="M388.399 630.804c-3.151-4.217-2.15-10.101 2.233-13.132 4.384-3.031 10.5-2.068 13.65 2.149 3.705 4.959 9.683 7.084 17.11 7.512 9.71.56 21.531-1.746 34.933-6.128 23.225-7.594 44.104-5.321 60.047 3.865 16.074 9.262 27.409 25.698 30.828 47.363 4.062 25.738-.614 48.497-15.739 65.496-14.693 16.514-39.738 27.935-78.191 30.164-34.316 1.989-76.418-10.092-100.868-39.295-3.386-4.044-2.722-9.972 1.481-13.229 4.204-3.258 10.366-2.619 13.752 1.425 20.422 24.391 55.796 33.977 84.459 32.315 31.504-1.826 52.469-10.087 64.507-23.617 11.606-13.044 14.377-30.684 11.26-50.434-2.438-15.452-10.075-27.439-21.539-34.044-11.594-6.68-26.814-7.714-43.702-2.192-16.243 5.311-30.631 7.774-42.398 7.095-14.052-.81-24.814-5.931-31.823-15.313Z" style="fill:#6b441e" transform="matrix(.91297 0 0 .94898 117.76 47.06)"/>
  <path d="M509.498 514.114c-25.416 4.547-121.682 61.36-174.447 103.672-66.179 53.069-97.885 94.649-131.727 144.789-39.179 58.046-60.663 114.123-79.004 186.333-26.26 103.382-12.539 263.302-4.741 264.442 17.137 2.51 59.501-47.88 129.875-63.66 76.341-17.11 143.532 7.77 157.02 3.67 6.239-1.9 48.304-312.659 65.475-419.2 11.839-73.461 30.762-220.046 37.549-220.046Z" style="fill:#bfaf4c" transform="matrix(.84432 .01845 -.03742 .83115 19.554 -284.878)"/>
  <path d="m506.93 501.063 2.262-.367c6.854 0 12.692 5.321 13.445 12.254.412 3.796-.775 7.386-3.037 10.054-8.057 24.544-24.076 148.296-34.604 213.62-15.481 96.059-51.19 357.826-62.728 410.606-1.44 6.59-2.912 10.77-3.773 12.35l-3.353 4.14-4.611 2.5c-4.976 1.51-15.939.71-31.325-1.84-28.087-4.65-75.197-13.11-126.618-1.58-47.388 10.62-81.439 37.82-103.34 52.2-6.78 4.46-12.632 7.82-17.475 9.68-5.264 2.03-9.898 2.52-13.781 1.95l-5.396-1.98-2.936-2.39-2.251-2.94c-1.717-2.83-4.178-10.55-5.923-22.28-6.809-45.8-11.434-167.26 10.028-251.763 18.751-73.823 40.795-131.116 80.849-190.459 34.511-51.131 66.86-93.518 134.347-147.635 54.399-43.623 153.999-101.598 180.202-106.285l.018.165Zm-17.49 34.792c-38.136 17.962-105.339 59.89-146.047 92.534-64.872 52.02-95.935 92.794-129.109 141.943-38.303 56.749-59.227 111.61-77.158 182.206-21.127 83.182-15.898 203.942-9.12 243.922 4.831-2.82 10.442-6.68 16.868-11.08 23.671-16.17 57.334-38.91 101.446-48.79 55.457-12.44 106.258-3.71 136.55 1.31 4.733.78 9.788 1.4 13.642 1.83 1.228-5.74 2.969-14.24 4.497-23.08 14.506-83.9 44.161-299.754 57.892-384.953 8.834-54.809 21.683-149.903 30.539-195.842Z" style="fill:#6b441e" transform="matrix(.84432 .01845 -.03742 .83115 19.554 -284.878)"/>
  <path d="M520.697 511.278c-1.295-1.637-40.194 14.517-65.825 29.439-38.552 22.444-106.35 67.312-160.83 115.346-99.544 87.765-136.653 151.121-168.26 235.147-44.454 118.18-49.249 276.75-42.953 274.72 27.383-8.84 65.798-32.62 141.701-33.44 16.423-.18 32.126.82 46.912 2.61 63.801 7.72 110.501 30.16 124.109 36.26 4.96 2.22 40.341-295.03 61.489-405.127 10.269-53.46 61.117-254.955 63.657-254.955Z" style="fill:#ec9f8b" transform="matrix(-.75577 .38845 .37829 .73502 629.75 -426.008)"/>
  <path d="M532.097 517.989c.165-.295.319-.598.463-.909 2.175-4.703 1.523-10.275-1.675-14.317l-2.731-2.604-3.508-1.792-4.035-.701-3.996.403c-7.913 1.649-43.805 16.685-68.221 30.899-39.05 22.735-107.721 68.189-162.906 116.845-101.789 89.744-139.637 154.601-171.957 240.522-40.994 108.979-48.736 251.535-45.239 277.435l1.85 7.16 1.855 3.13 2.808 2.76 5.443 2.39 3.381.2 3.139-.6c26.661-8.6 64.005-32.03 137.907-32.82 15.837-.18 30.98.79 45.238 2.52 61.897 7.49 107.19 29.31 120.392 35.23l4.231 1.09 4.266-.35 4.219-1.92 3.817-3.96c.81-1.26 2.538-5.39 3.933-12.34 9.54-47.53 40.116-298.289 59.155-397.405 9.188-47.833 51.051-214.878 61.173-247.808.343-1.116.756-2.346.998-3.058Zm-6.681 5.892c-1.45.582-2.848.834-4.159.887l.002-.001a12.795 12.795 0 0 0 4.157-.886Zm-25.211 9.676c-15.375 56.677-48.028 188.286-56.051 230.054-18.119 94.332-46.687 326.099-57.606 389.029-22.059-9.46-62.501-24.77-113.577-30.95-15.313-1.86-31.577-2.89-48.586-2.71-65.215.71-103.508 17.75-130.74 28.6-.438-42.56 9.799-159.542 44.388-251.495 30.894-82.131 67.264-143.985 164.563-229.772 53.775-47.412 120.7-91.693 158.753-113.847 10.996-6.401 26.362-13.479 38.856-18.909Z" style="fill:#6b441e" transform="matrix(-.75577 .38845 .37829 .73502 629.75 -426.008)"/>
  <path d="M491.684 521.41c3.9-6.465 20.638-6.389 24.48-1.486 29.105 37.141 93.059 138.192 136.864 233.881 42.289 92.377 66.45 199.823 72.129 243.149 6.688 51.016 6.807 105.346 2.887 104.686-11.913-2-115.753-80.1-202.276-65.4-26.655 4.53-65.831 3.09-103.67 16.74-48.203 17.4-94.148 50.38-97.889 50.53-7.68.3-1.069-138.61 43.472-285.119 26.692-87.8 97.259-252.648 124.003-296.981Z" style="fill:#f8be46" transform="matrix(1.1118 -.22287 .15207 .81966 -206.595 -150.834)"/>
  <path d="M487.096 516.261c1.335-2.213 3.452-4.182 6.193-5.523 2.917-1.427 6.668-2.237 10.423-2.365 4.399-.151 8.786.645 11.83 2.103 1.994.955 3.556 2.255 4.63 3.626 29.312 37.406 93.74 139.157 137.857 235.527 42.786 93.463 67.197 202.19 72.943 246.026 5.493 41.915 6.563 86.005 4.753 101.615-.538 4.64-1.58 7.63-2.417 9.03l-1.369 1.76-1.433 1.04-1.506.51-1.598.01c-3.738-.63-16.199-8.17-34.156-18.36-39.362-22.32-107.162-57.16-166.664-47.05-26.452 4.49-65.34 2.99-102.893 16.54-38.207 13.79-74.975 37.49-90.054 46.48-4.93 2.94-8.201 4.27-9.17 4.31l-1.454-.16-1.378-.56-1.374-1.05-1.42-1.8-1.091-2.27c-.314-.84-.621-1.87-.886-3.1-.65-3.03-1.128-7.91-1.261-14.46-.824-40.57 10.558-154.299 46.617-272.91 26.874-88.396 97.953-254.336 124.878-298.969ZM327.684 1093.13c.358-.2.72-.42 1.078-.63 15.36-9.16 52.827-33.24 91.745-47.29 38.124-13.75 77.59-12.38 104.446-16.94 52.896-8.99 112.171 15.85 153.728 37.77 19.069 10.06 34.35 19.44 43.439 24.44.748.42 1.442.8 2.082 1.15.222-2.64.442-5.94.501-9.2.362-19.81-1.226-52.64-5.36-84.176-5.612-42.817-29.524-148.982-71.316-240.274-43.414-94.833-106.742-194.991-135.712-232.031-.234-.12-1.349-.68-2.136-.896-1.779-.488-3.889-.69-6-.618-2.074.071-4.151.403-5.904 1.067-.833.316-1.631.439-2.004 1.057-26.561 44.032-96.616 207.788-123.127 294.993-35.206 115.803-46.54 226.768-45.735 266.378.036 1.8.146 3.6.275 5.2Z" style="fill:#6b441e" transform="matrix(1.1118 -.22287 .15207 .81966 -206.595 -150.834)"/>
  <path d="M266.928 511.665c-3.201 3.168-8.483 3.229-11.788.136-3.304-3.093-3.389-8.176-.187-11.344 18.821-18.625 103.732-54.815 158.726-64.08 70.195-11.826 151.929-4.211 188.62 11.637 4.204 1.815 6.098 6.568 4.228 10.606-1.871 4.037-6.802 5.841-11.006 4.026-34.794-15.029-112.338-21.68-178.904-10.466-36.631 6.171-87.283 24.741-120.529 41.384-13.505 6.761-24.067 13.061-29.16 18.101Z" style="fill:#6b441e" transform="matrix(1.33696 -.07113 .06843 1.38969 -62.355 -3.092)"/>
  <path d="M357.004 244.289c-.622-.192-.644-.217-.947-.793-.193-.365-.138-.819-.128-1.231.005-.225.983-3.52 1.073-3.825 8.38-28.238 26.128-52.305 62.679-81.616.851-.683 1.977-.957 2.162-1.002.351-.086 2.375-.58 4.469.68a6.035 6.035 0 0 1 2.749 3.737c.571 2.363-.496 4.159-.681 4.47-.919 1.547-1.072 1.429-2.564 2.44-41.701 28.264-57.805 50.917-66.78 76.068-.218.611-.203.66-.773.961-.59.311-.623.307-1.259.111Z" style="fill:#6b441e" transform="matrix(1.1161 0 0 1.1161 -52.479 -16.365)"/>
  <path d="M440.933 256.841c-.516.399-.548.403-1.197.318-.837-.109-.789-.256-1.326-.91-3.169-3.865-14.655-18.627-14.218-66.242.151-16.453 1.703-29.037 1.838-29.351.312-.725.496-1.522.945-2.172.205-.298 1.388-2.012 3.791-2.463a6.049 6.049 0 0 1 4.545.965c2.002 1.386 2.395 3.436 2.463 3.791.34 1.776.097 1.783-.282 3.548-1.412 6.581-12.818 66.194 3.741 90.24.367.533.406.551.322 1.195-.084.651-.101.679-.622 1.081Z" style="fill:#6b441e" transform="matrix(1.1161 0 0 1.1161 -52.479 -16.365)"/>
  <path d="M499.473 229.407c-.133.629-.163.647-.701.995-.719.466-.777.339-1.621.191-15.568-2.735-53.985-26.306-61.822-72.918-.18-1.073.134-2.195.185-2.379.659-2.354 2.47-3.383 2.784-3.562 2.193-1.247 4.255-.666 4.613-.566 2.345.66 3.382 2.471 3.562 2.784.84 1.467.699 1.532.842 3.218 3.494 41.01 36.005 66.277 50.723 70.264.72.195.786.155 1.196.782.351.535.372.563.239 1.191Z" style="fill:#6b441e" transform="matrix(1.1161 0 0 1.1161 -52.479 -16.365)"/>
  <path d="M545.368 176.706c-.008.649-.027.676-.492 1.129-.296.288-.744.374-1.145.475-.275.07-5.305.12-5.767.125-33.639.336-58.392-6.533-87.753-20.454-.976-.463-1.718-1.367-1.839-1.514-1.55-1.89-1.355-3.963-1.321-4.323.236-2.509 1.886-3.854 2.173-4.088 1.88-1.532 3.963-1.352 4.323-1.321 1.6.137 1.592.236 2.974 1.051 29.858 17.61 53.543 25.219 87.244 27.274 1.623.099 1.606 1.462 1.603 1.646Z" style="fill:#6b441e" transform="matrix(1.1161 0 0 1.1161 -52.479 -16.365)"/>
  <path d="M407.472 71.012c-15.821-6.928-28.001-44.637 3.946-56.217 25.424-9.215 42.056 29.858 35.084 45.225" style="fill:#6b441e" transform="matrix(.95335 .1327 -.1327 .95335 28.875 39.855)"/>
  <path d="M408.402 68.887a2.321 2.321 0 0 1 1.195 3.055 2.32 2.32 0 0 1-3.055 1.194c-5.17-2.264-10.048-7.484-13.313-14.108-4.494-9.118-5.93-20.829-1.249-30.611 3.141-6.561 9.01-12.309 18.647-15.802 13.852-5.021 25.414 2.879 32.458 14.362 6.898 11.243 9.248 25.803 5.529 34.001a2.32 2.32 0 0 1-4.224-1.916c3.252-7.169.773-19.828-5.259-29.66-5.885-9.593-15.35-16.621-26.923-12.426-8.253 2.991-13.355 7.825-16.044 13.444-4.063 8.488-2.675 18.645 1.225 26.557 2.731 5.54 6.69 10.017 11.013 11.91Z" style="fill:#6b441e" transform="matrix(.95335 .1327 -.1327 .95335 28.875 39.855)"/>
</svg>