<svg xmlns="http://www.w3.org/2000/svg" xml:space="preserve" style="fill-rule:evenodd;clip-rule:evenodd;stroke-linejoin:round;stroke-miterlimit:2" viewBox="0 0 1080 1080">
  <path d="M900.642 1730.36c-116.778-37.14-168.456-362.97-145.778-551.5 22.62-188.051 163.074-377.324 377.666-376.341 108.67.498 239.63-.145 301.12 60.029 68.58 67.119 83.81 196.652 84.6 299.352.99 127.62-27.93 475.59-108.36 540.3-39.46 31.76-90.86 44.63-145.15 20.23-53.62-24.09-53.73-79.6-69.03-95.59-18.78-19.6-102.45-26.04-127.46.08-16.54 17.29-8.44 69.84-56.63 98.84-37.041 22.29-79.531 14.61-110.978 4.6Z" style="fill:#f5ddca" transform="matrix(.76389 0 0 .75824 -275.45 -272.525)"/>
  <path d="M893.548 1753c-40.108-12.76-75.258-53.68-101.665-112.76-55.325-123.78-76.73-328.57-60.411-464.24 23.952-199.123 173.934-398.261 401.168-397.22 66.73.306 141.67.381 204.54 13.544 45.78 9.584 85.39 26.289 112.88 53.196 72.6 71.039 90.91 207.5 91.76 316.2.7 90.71-13.55 291.05-50.14 425.63-17.11 62.94-40.34 111.89-67.08 133.4-46.07 37.07-106.1 51.84-169.46 23.36-39.2-17.61-55.55-48.46-65.89-74.97-2.77-7.09-5.04-13.74-7.38-19.4-1.08-2.6-1.75-4.98-3.12-6.41-1.74-1.82-4.98-2.77-8.66-4.03-10.05-3.42-23.16-5.44-36.48-5.84-11.09-.33-22.34.46-32.13 2.78-6.67 1.58-12.69 3.42-16.27 7.16-1.91 2.01-2.36 5.37-3.44 8.99-2.36 7.96-4.45 17.22-7.55 26.86-7.57 23.62-20.44 48.79-50.52 66.89-43.462 26.15-93.253 18.6-130.152 6.86Zm14.189-45.27c25.999 8.27 61.176 16.07 91.801-2.35 27.032-16.26 30.502-42.66 35.572-61.25 3.94-14.46 8.96-26.14 16.18-33.68 15.97-16.69 50.01-25.46 83.73-24.44 33.69 1.01 65.66 11.84 77.64 24.35 6.3 6.58 11.55 17.6 16.64 31.31 6.96 18.72 14.9 45.54 45.04 59.08 45.21 20.32 87.98 9.35 120.85-17.1 21.52-17.31 37.26-58.17 51.04-108.84 35.47-130.5 49.14-324.76 48.46-412.72-.75-96.71-12.88-219.311-77.46-282.514-21.7-21.233-53.51-33.204-89.64-40.767-59.98-12.558-131.5-12.259-195.17-12.551-201.952-.925-332.875 178.482-354.163 355.452-13.261 110.25-.422 268.66 36.544 385.57 14.15 44.75 31.687 83.3 53.11 109.85 12.059 14.95 25.112 25.92 39.826 30.6Z" style="fill:#452b19" transform="matrix(.76389 0 0 .75824 -275.45 -272.525)"/>
  <path d="M549.391 234.862c-.481 2.92-32.938 19.405-75.488-17.786-23.692-20.709-20.255-84.403-14.841-88.087 3.774-2.568 19.295 14.943 60.099 59.771 23.683 26.019 30.852 42.323 30.23 46.102Z" style="fill:#d4c421" transform="matrix(.84767 0 0 .90356 133.835 77.702)"/>
  <path d="m554.054 235.538-.587 1.636-1.037 1.349c-1.297 1.317-4.74 3.521-10.152 5.052-13.203 3.736-39.848 4.485-71.592-23.26-7.202-6.295-12.231-16.181-15.414-27.339-4.533-15.889-5.43-34.349-4.58-47.517.445-6.896 1.398-12.398 2.498-15.493.871-2.448 2.13-3.9 3.101-4.56l1.104-.596 1.19-.361 2.216-.078c1.206.146 2.802.675 4.697 1.885 7.318 4.67 24.125 23.236 57.251 59.629 17.065 18.747 25.742 32.632 29.227 40.587 1.947 4.444 2.329 7.545 2.078 9.066Zm-92.447-100.911-.004.018c-.669 2.789-1.191 6.71-1.491 11.349-.799 12.385.013 29.749 4.277 44.693 2.681 9.397 6.665 17.848 12.731 23.15 27.828 24.323 50.859 24.536 62.433 21.262 1.882-.533 3.679-1.377 4.796-1.954-.469-1.485-1.391-4.118-2.743-6.695-4.098-7.807-12.182-19.598-26.034-34.815-28.34-31.136-44.364-49.008-52.727-56.045a23.38 23.38 0 0 0-1.238-.963Z" style="fill:#d4c421" transform="matrix(.84767 0 0 .90356 133.835 77.702)"/>
  <path d="M551.774 238.813c-9.569 4.882-60.834 8.576-89.473-33.809-7.812-11.562-15.756-60.688-10.031-60.147 8.224.777 31.414 11.14 64.899 42.725 27.477 25.917 31.579 44.932 34.605 51.231Z" style="fill:#d4c421" transform="matrix(-.59175 -.55461 -.47072 .52818 1063.982 461.56)"/>
  <path d="M556.081 236.181c-3.128-6.513-7.423-26.13-35.834-52.93-34.826-32.849-59.141-43.223-67.695-44.03l-1.393.053-1.37.441-1.168.753-.891.906c-1.04 1.284-2.087 3.966-2.29 7.949-.409 7.999 1.748 23.821 5.023 37.291 2.291 9.426 5.205 17.697 7.966 21.783 18.186 26.915 44.937 36.401 65.66 38.466 14.21 1.415 25.617-.747 29.784-2.873 1.238-.632 2.179-1.831 2.597-3.311a6.438 6.438 0 0 0-.389-4.498ZM455.347 151.17c9.855 2.775 30.374 13.981 58.745 40.743 20.223 19.076 27.307 34.307 30.827 43.169-4.766.927-11.934 1.338-20.221.512-18.438-1.837-42.344-10.035-58.525-33.982-5.111-7.565-10.007-32.412-10.815-46.419-.075-1.312-.056-2.785-.011-4.023Z" style="fill:#d4c421" transform="matrix(-.59175 -.55461 -.47072 .52818 1063.982 461.56)"/>
  <path d="M537.078 1020.2c-1.307-3.58-2.027-7.51-2.024-11.63.012-16.721 11.934-30.296 26.606-30.296l11.042 2.583 5.502 3.605 4.425 4.664 3.675 6.159 2.456 7.535.581 13.22c.043-.6.052-1.16.052-1.65 0-.78-.258-3.84-.258-3.84s8.147 32.95 18.425 69.89c47.622 171.16 167.319 576.6 175.07 596 6.079 15.21.173 33.19-13.18 40.13-13.354 6.94-29.131.23-35.211-14.98-7.841-19.62-129.19-429.65-177.363-602.8-10.718-38.52-17.518-66.7-19.798-78.59Zm-.679-9.3.05-1.02c-.025.34-.041.68-.05 1.02Zm13.093 24.63c3.331 2.09 7.307 3.33 12.125 3.33-4.367 0-8.489-1.2-12.125-3.33Z" style="fill:#45351d" transform="matrix(.78982 .01301 -.01086 .6931 -15.751 -429.724)"/>
  <path d="M516.573 878.204c4.785-8.753 39.556-30.713 42.587-25.981 12.602 19.682 21.94 22.961 33.716 19.881 9.124-2.387 18.288-5.021 21.393-17.501 1.942-7.803-4.205-16.403-3.411-22.303 2.393-17.767 40.326-26.352 46.446-13.809 7.258 14.875 13.023 73.151-34.055 94.602-29.595 13.484-55.42 8.192-74.022-6.24-11.849-9.193-33.636-26.854-32.654-28.649Z" style="fill:#ff9127" transform="matrix(1.4764 .6978 -.72578 1.61493 384.068 -1079.843)"/>
  <path d="M511.115 875.738c1.38-2.525 4.707-6.069 9.214-9.759 9.34-7.649 23.818-16.43 31.744-19.03 3.438-1.128 6.219-1.182 7.935-.748l2.383 1.027 1.135.913.923 1.141c10.338 16.145 17.201 19.916 26.861 17.389 7.096-1.856 14.576-3.526 16.991-13.231.936-3.761-.777-7.706-1.912-11.322-1.199-3.819-2.013-7.404-1.608-10.408.758-5.631 4.073-10.639 9.008-14.655 6.497-5.286 15.876-8.821 24.551-9.842 11.37-1.339 21.212 2.02 24.558 8.878 3.893 7.979 7.585 27.581 3.791 48.081-3.842 20.767-15.233 42.321-40.812 53.976-32.251 14.694-60.374 8.784-80.645-6.943-11.102-8.614-30.455-24.496-33.495-28.924l-.8-1.416-.473-1.678.063-1.846.588-1.603Zm13.117 2.227c5.559 4.883 20.74 18.136 28.99 24.536 16.934 13.138 40.459 17.811 67.399 5.536 21.499-9.795 30.765-28.104 33.994-45.558 3.279-17.719.46-34.692-2.904-41.588-.547-1.12-1.814-1.675-3.256-2.082-2.5-.708-5.574-.768-8.793-.389-6.298.741-13.152 3.207-17.868 7.045-2.54 2.067-4.467 4.528-4.858 7.426-.314 2.333 1.005 5.146 1.95 8.202 1.475 4.769 2.55 9.855 1.352 14.673-3.797 15.259-14.64 18.852-25.796 21.77-6.041 1.58-11.579 1.734-17.088-.12-6.814-2.293-13.873-8.002-21.748-19.616-1.034.353-2.331.829-3.401 1.327-6.577 3.062-15.355 8.599-22.019 13.783-2.333 1.815-4.423 3.534-5.954 5.055Z" style="fill:#45351d" transform="matrix(1.4764 .6978 -.72578 1.61493 384.068 -1079.843)"/>
  <path d="M362.666 607.723c34.21 27.721 60.41 16.537 96.357 12.038 55.244-6.913 72.304 31.722 75.356 69.148 2.941 36.075-6.291 82.853-104.139 75.826-64.784-4.654-94.938-24.322-105.347-43.203" style="fill:#f5ddca" transform="matrix(1.01918 0 0 1.04517 57.404 -48.79)"/>
  <path d="M353.886 618.025c-5.831-4.725-6.631-13.177-1.785-18.863 4.845-5.686 13.513-6.466 19.344-1.742 16.939 13.727 31.482 15.947 46.827 14.683 12.212-1.005 24.838-3.855 39.003-5.628 26.74-3.346 45.958 2.687 59.784 13.357 20.008 15.44 28.876 41.802 31.013 68.015 1.749 21.452-.912 45.882-17.765 64.109-16.005 17.308-45.823 30.106-101.076 26.137-72.172-5.183-104.841-29.184-116.437-50.219-3.59-6.511-1.082-14.64 5.595-18.14 6.678-3.501 15.014-1.056 18.603 5.456 9.227 16.736 36.834 32.061 94.258 36.186 42.61 3.06 66.311-4.013 78.654-17.361 11.492-12.428 11.974-29.417 10.781-44.045-1.524-18.702-6.4-38.115-20.675-49.13-9.027-6.967-21.78-9.977-39.238-7.793-39.961 5.001-68.857 15.793-106.886-15.022Z" style="fill:#452b19" transform="matrix(1.01918 0 0 1.04517 57.404 -48.79)"/>
  <g transform="matrix(.94255 .02032 -.04178 .9154 -42.212 -438.035)">
    <path d="M509.498 514.114c-25.416 4.547-123.593 67.233-166.608 105.133-58.581 51.615-111.18 113.64-147.278 180.926-28.504 53.129-42.834 84.488-60.298 155.272-25.555 103.585-23.533 256.765-15.735 257.905 17.137 2.51 59.501-47.88 129.875-63.66 76.341-17.11 143.532 7.77 157.02 3.67 6.239-1.9 48.304-312.659 65.475-419.2 11.839-73.461 30.762-220.046 37.549-220.046Z" style="fill:#ff9127"/>
    <clipPath id="a">
      <path d="M509.498 514.114c-25.416 4.547-123.593 67.233-166.608 105.133-58.581 51.615-111.18 113.64-147.278 180.926-28.504 53.129-42.834 84.488-60.298 155.272-25.555 103.585-23.533 256.765-15.735 257.905 17.137 2.51 59.501-47.88 129.875-63.66 76.341-17.11 143.532 7.77 157.02 3.67 6.239-1.9 48.304-312.659 65.475-419.2 11.839-73.461 30.762-220.046 37.549-220.046Z"/>
    </clipPath>
    <g clip-path="url(#a)">
      <path d="M400.151 148.87c1.816-1.233 4.321-.795 5.591.98 1.27 1.774.826 4.216-.99 5.449-7.669 5.21-21.661 16.153-32.113 28.882-6.63 8.075-11.898 16.839-12.76 25.305-.218 2.149-2.186 3.717-4.391 3.498-2.205-.219-3.817-2.142-3.598-4.292.997-9.795 6.805-20.072 14.476-29.415 11-13.396 25.715-24.924 33.785-30.407Z" style="fill:#7b5518" transform="matrix(1.57812 -.1206 .155 1.66857 -164.049 327.485)"/>
    </g>
    <path d="m506.223 497.114 2.866-.465c8.81 0 16.317 6.937 17.283 15.97.499 4.675-.839 9.107-3.446 12.51-8.097 25.97-23.826 147.746-34.228 212.29-15.49 96.113-51.227 358.031-62.771 410.841-1.571 7.18-3.239 11.71-4.178 13.43l-4.253 5.25-5.857 3.18c-5.226 1.59-16.744.94-32.902-1.74-27.793-4.6-74.409-13.02-125.29-1.62-46.873 10.51-80.52 37.49-102.183 51.72-14.371 9.43-26.104 13.27-33.676 12.16l-4.838-1.44-4.95-3.36-4.188-5.65-2.74-8.12c-5.966-27.42-5.75-165.11 17.982-261.302 17.917-72.624 32.604-104.805 61.849-159.314 37.018-69 90.894-132.659 150.967-185.588 30.796-27.134 89.213-66.729 130.422-89.616 19.421-10.785 35.533-17.811 44.108-19.345l.023.209Zm9.08 33.554c-.806.28-1.643.501-2.508.656-.136.024-.274.05-.414.079a14.93 14.93 0 0 0 2.922-.735Zm-31.227 13.495a690.799 690.799 0 0 0-5.304 2.916c-39.374 21.868-95.238 59.623-124.662 85.549-57.089 50.3-108.41 110.692-143.59 176.265-27.762 51.748-41.735 82.285-58.745 151.23-19.162 77.667-22.656 184.107-19.69 228.687 3.501-2.13 7.291-4.52 10.718-6.86 23.95-16.37 58.027-39.32 102.658-49.33 55.997-12.55 107.292-3.78 137.878 1.28 3.506.58 7.196 1.08 10.382 1.48 12.365-61.35 46.456-311.266 61.478-404.478 8.279-51.365 20.104-137.998 28.877-186.739Z" style="fill:#45351d"/>
  </g>
  <g transform="matrix(-.84369 .42783 .4223 .80952 638.972 -593.47)">
    <path d="M520.697 511.278c-1.295-1.637-40.194 14.517-65.825 29.439-38.552 22.444-84.516 52.027-137.219 102.112-88.905 84.49-136.852 159.57-172.111 242.045-46.668 109.164-69.009 283.086-62.713 281.056 27.383-8.84 65.798-32.62 141.701-33.44 87.291-.95 154.259 31.35 171.021 38.87 4.96 2.22 40.341-295.03 61.489-405.127 10.269-53.46 61.117-254.955 63.657-254.955Z" style="fill:#f7e200"/>
    <clipPath id="b">
      <path d="M520.697 511.278c-1.295-1.637-40.194 14.517-65.825 29.439-38.552 22.444-84.516 52.027-137.219 102.112-88.905 84.49-136.852 159.57-172.111 242.045-46.668 109.164-69.009 283.086-62.713 281.056 27.383-8.84 65.798-32.62 141.701-33.44 87.291-.95 154.259 31.35 171.021 38.87 4.96 2.22 40.341-295.03 61.489-405.127 10.269-53.46 61.117-254.955 63.657-254.955Z"/>
    </clipPath>
    <g clip-path="url(#b)">
      <path d="M423.725 149.933c-1.854-1.188-2.374-3.618-1.161-5.423 1.213-1.805 3.703-2.307 5.557-1.119 19.955 12.782 53.97 27.188 65.057 27.935 2.211.148 3.886 2.019 3.739 4.175-.147 2.156-2.061 3.785-4.272 3.637-11.72-.789-47.824-15.692-68.92-29.205Z" style="fill:#7b5518" transform="matrix(-1.43725 .66282 .6768 1.53301 1017.2 20.62)"/>
    </g>
    <path d="M534.576 519.391c.18-.336.35-.68.508-1.033 2.57-5.712 1.726-12.483-2.169-17.407l-3.353-3.197-4.257-2.177-4.809-.839-4.564.455c-7.995 1.666-44.279 16.816-68.949 31.179-39.37 22.92-86.3 53.143-140.122 104.291-90.86 86.347-139.797 163.125-175.83 247.413C87.984 978.769 65.377 1133.28 65.94 1161.65c.052 2.6.28 4.61.546 6.02l1.192 4.09 4.143 6.11 3.044 2.3 4.15 1.71 4.61.48 4.077-.74c26.522-8.56 63.658-31.91 137.176-32.71 83.983-.9 148.39 30.28 164.517 37.52l5.103 1.32 5.09-.42 5.001-2.28 4.518-4.68c.877-1.37 2.817-5.79 4.327-13.32 9.541-47.54 40.121-298.31 59.161-397.432 9.176-47.773 50.986-214.607 61.095-247.496.301-.978.656-2.051.886-2.731Zm-7.956 7.197a14.776 14.776 0 0 1-4.763 1.09l.005-.002a15.248 15.248 0 0 0 4.758-1.088Zm-30.666 12.051c-15.967 59.596-46.712 183.831-54.468 224.209-17.825 92.799-45.761 318.612-57.057 385.822-29.871-12.56-88.441-33.39-160.247-32.61-60.836.65-98.368 15.43-125.33 26.26 5.107-49.89 26.243-168.875 61.202-250.649 34.484-80.662 81.44-154.043 168.392-236.676 51.584-49.022 96.581-77.965 134.315-99.933 9.383-5.462 21.982-11.432 33.193-16.423Z" style="fill:#45351d"/>
  </g>
  <g transform="matrix(1.24115 -.24546 .16976 .90274 -294.67 -290.404)">
    <path d="M491.684 521.41c3.9-6.465 20.638-6.389 24.48-1.486 29.105 37.141 93.059 138.192 136.864 233.881 42.289 92.377 66.45 199.823 72.129 243.149 6.688 51.016 6.807 105.346 2.887 104.686-11.913-2-118.72-64.43-202.959-61.96-26.894.79-65.334-5.27-103.172 8.39-48.203 17.39-93.963 55.29-97.704 55.44-7.68.3-1.069-138.61 43.472-285.119 26.692-87.8 97.259-252.648 124.003-296.981Z" style="fill:#6ba110"/>
    <clipPath id="c">
      <path d="M491.684 521.41c3.9-6.465 20.638-6.389 24.48-1.486 29.105 37.141 93.059 138.192 136.864 233.881 42.289 92.377 66.45 199.823 72.129 243.149 6.688 51.016 6.807 105.346 2.887 104.686-11.913-2-118.72-64.43-202.959-61.96-26.894.79-65.334-5.27-103.172 8.39-48.203 17.39-93.963 55.29-97.704 55.44-7.68.3-1.069-138.61 43.472-285.119 26.692-87.8 97.259-252.648 124.003-296.981Z"/>
    </clipPath>
    <g clip-path="url(#c)">
      <path d="M415.019 144.687c.907-1.969 3.285-2.846 5.306-1.956 2.022.889 2.927 3.21 2.02 5.179-.357.776-.285 2.111-.165 3.805.255 3.586 1.233 8.345 2.745 13.442 2.296 7.747 5.825 16.265 10.092 22.657 2.505 3.752 5.183 6.78 8.11 8.124 2.006.921 2.873 3.256 1.933 5.211-.94 1.954-3.332 2.793-5.338 1.872-4.033-1.852-7.979-5.776-11.43-10.947-4.667-6.99-8.569-16.288-11.08-24.76-1.994-6.724-3.103-12.941-3.123-17.123-.012-2.389.36-4.266.93-5.504Z" style="fill:#7b5518" transform="matrix(1.17084 .23158 -.16425 1.65078 43.632 176.71)"/>
      <path d="M410.573 145.693c1.141-1.849 3.609-2.444 5.509-1.326 1.899 1.117 2.515 3.526 1.374 5.376-5.621 9.111-8.305 24.231-8.342 37.154-.025 8.277.967 15.654 3.279 19.755 1.069 1.896.36 4.277-1.581 5.314-1.941 1.037-4.384.34-5.453-1.555-2.763-4.903-4.304-13.662-4.275-23.557.042-14.335 3.255-31.054 9.489-41.161Z" style="fill:#7b5518" transform="matrix(1.17084 .23158 -.16425 1.65078 43.632 176.71)"/>
    </g>
    <path d="M486.805 515.807c1.377-2.284 3.559-4.331 6.387-5.715 2.95-1.443 6.741-2.265 10.538-2.395 4.443-.152 8.873.656 11.949 2.129 2.05.982 3.655 2.325 4.759 3.735 29.327 37.425 93.79 139.228 137.93 235.648 42.829 93.557 67.26 202.396 73.012 246.276 5.507 42.015 6.57 86.225 4.755 101.875-.56 4.83-1.663 7.94-2.534 9.4l-1.465 1.87-1.526 1.11-1.592.55h-1.683c-3.705-.63-16.3-6.74-34.427-15.13-40.28-18.65-109.405-48.48-167.629-46.77-26.511.77-64.411-5.36-101.71 8.1-38.064 13.74-74.568 40.48-89.545 50.68-5.119 3.49-8.565 5-9.575 5.04l-1.526-.16-1.445-.59-1.444-1.1-1.497-1.9-1.148-2.39c-.327-.87-.646-1.94-.922-3.23-.659-3.06-1.149-8.01-1.283-14.64-.825-40.62 10.559-154.487 46.661-273.237 26.89-88.452 98.018-254.494 124.96-299.156ZM328.01 1091.76c.108-.07.216-.15.323-.22 15.369-10.47 52.862-37.8 91.924-51.9 38.377-13.85 77.356-7.87 104.634-8.67 59.71-1.75 130.637 28.56 171.945 47.68 11.999 5.56 21.355 10.19 26.987 12.6.206-2.55.407-5.7.463-8.81.361-19.77-1.225-52.54-5.351-84.016-5.607-42.773-29.498-148.826-71.247-240.023-43.364-94.726-106.608-194.769-135.587-231.844-.508-.162-4.939-1.549-7.939-1.446-2.043.07-4.09.394-5.818 1.049-.695.263-1.702.918-1.898 1.047-26.633 44.288-96.473 207.591-122.929 294.612-35.164 115.664-46.495 226.491-45.691 266.061.026 1.28.095 2.61.184 3.88Z" style="fill:#45351d"/>
  </g>
  <path d="M268.575 513.4c-4.142 4.099-10.926 4.138-15.14.088-4.213-4.05-4.271-10.667-.129-14.765 18.977-18.779 104.545-55.392 159.993-64.733 70.682-11.908 152.98-4.163 189.926 11.795 5.407 2.336 7.864 8.509 5.483 13.777-2.381 5.268-8.704 7.648-14.112 5.312-34.54-14.919-111.521-21.439-177.599-10.307-36.433 6.138-86.806 24.616-119.871 41.169-13.212 6.614-23.569 12.734-28.551 17.664Z" style="fill:#45351d" transform="matrix(1.4925 -.07834 .07639 1.53055 -133.65 -127.686)"/>
</svg>