<svg xmlns="http://www.w3.org/2000/svg">
  <svg viewBox="0 -960 960 960" id="home">
    <path d="M240-200h120v-240h240v240h120v-360L480-740 240-560v360Zm-80 80v-480l320-240 320 240v480H520v-240h-80v240H160Zm320-350Z"/>
  </svg>
  <svg viewBox="0 -960 960 960" id="rules">
    <path d="m576-160-56-56 104-104-104-104 56-56 104 104 104-104 56 56-104 104 104 104-56 56-104-104-104 104Zm79-360L513-662l56-56 85 85 170-170 56 57-225 226ZM80-280v-80h360v80H80Zm0-320v-80h360v80H80Z"/>
  </svg>

  <svg viewBox="0 0 24 24" id="about">
    <path d="M0 0h24v24H0z" style="fill:none"/>
    <path d="M14.235 21.43c-.402-.005-1.13-.011-1.557-.006-.084.435-.273 1.102-.914 1.518-.725.471-2.236.592-3.073-.6-1.899-2.704-1.82-7.069-.774-9.239.12-.249.42-.353.668-.234.249.12.353.42.233.668-.932 1.933-1 5.821.692 8.23.466.663 1.306.599 1.71.336.363-.236.439-.63.483-.885.034-.2.06-.354.089-.428l.072-.131.119-.119.105-.058.127-.036c.22-.031 2.283-.014 2.355-.011l.131.024.124.06.106.093.075.107c.064.111.211.49.417.84.098.165.202.329.331.414.554.366 1.211.29 1.491-.152.244-.385.442-1.128.615-2.022.428-2.221.635-5.34.512-6.666-.047-.5-.076-1.234-.223-2.001-.052-.271.126-.533.397-.585.271-.052.533.126.585.397.154.803.188 1.573.236 2.097.129 1.381-.079 4.633-.526 6.948-.202 1.05-.464 1.914-.75 2.366-.546.863-1.809 1.165-2.888.453-.238-.157-.462-.437-.641-.742-.122-.206-.245-.46-.327-.636Z" style="fill:#7b5643"/>
    <path d="M11.708 13.632c-.09-.364-.384-1.297-.417-1.298" style="fill:none;stroke:#7b5643;stroke-width:.5px;stroke-linecap:round;stroke-miterlimit:1.5"/>
    <path d="M13.357 15.584c.024 1.086 1.054 1.43 1.519.719.28-.428.036-.923.381-1.264.527-.522 1.586-.085 1.649.508.037.352-.095 1.296-.654 1.941-.442.511-1.01.995-1.938 1.02-1.838.051-2.924-1.581-2.781-2.059" style="fill:none;stroke:#7b5643;stroke-width:.4px;stroke-linecap:round;stroke-miterlimit:1.5"/>
    <path d="M10.214 13.323c.736.514.92.403 1.672.308 1.156-.146 1.582.475 1.646 1.264.062.761-.614 1.653-2.105 1.527-1.207-.102-1.944-.522-2.161-.921" style="fill:none;stroke:#7b5643;stroke-width:.5px;stroke-linecap:round;stroke-miterlimit:1.5"/>
    <path d="M1.938 14.42c.036-.021.072-.042.107-.063.481-.292 1.13-.649 1.941-.804 1.352-.258 2.945.068 3.233.134-.102-.023-.181-.017-.241.008.078-.022.162-.026.246-.007-.002 0-.004-.001-.005-.001l.012.003c.012.003.021.004.026.006l.083.028.132.084.101.125-.433.749-.13-.017c-.002-.001-.006-.002-.012-.003-.15-.033-1.641-.353-2.824-.127-.892.171-1.548.646-1.968.893-.332.196-.604.26-.773.233l-.138-.044-.134-.091-.109-.144-.069-.189c-.131-.542-.196-3.255.371-5.059.437-1.39.936-2.422 1.805-3.513.604-.759 1.669-1.883 2.864-2.796 1.101-.842 3.031-1.83 3.559-1.909.273-.04.527.148.568.421.04.273-.148.528-.421.568-.463.069-2.133.976-3.099 1.714-1.121.858-2.121 1.912-2.689 2.625-.788.99-1.236 1.928-1.633 3.19-.372 1.185-.388 3.069-.37 3.986Zm5.202.262.377-.172-.112.096-.143.061-.12.015H7.14Z" style="fill:#7b5643"/>
    <path d="M22.107 8.917c-.503-.801-1.56-2.371-2.667-3.326-1.22-1.051-2.361-1.73-4.737-2.28-1.327-.306-2.851-.45-3.692-.483-.417-.016-1.084.045-1.2.056-.087.033-.184.042-.281.02-.27-.058-.442-.325-.383-.594l.05-.135.09-.119.121-.088.121-.047c.159-.043.948-.115 1.521-.092.883.035 2.485.186 3.878.508 2.592.599 3.834 1.349 5.165 2.497 1.695 1.461 3.093 3.783 3.26 4.247l.039.147.006.125-.059.206-.144.169-.109.062-.112.033c-.523.087-1.353.024-2.608.633-1.425.693-2.249 1.733-2.46 1.984-.178.211-.493.238-.704.061-.211-.178-.239-.494-.061-.705.239-.284 1.175-1.455 2.789-2.239.921-.448 1.633-.576 2.177-.64Z" style="fill:#7b5643"/>
    <path d="m8.964 2.503.109-.142.158-.12c.096-.057.224-.105.357-.134.127-.028.257-.038.361-.032l.176.03.154.067c.891.545 2.92 2.103 4.403 3.665 1.455 1.532 2.481 3.444 2.788 4.236.234.601.4 1.241.465 1.635.042.252.036.437.016.52l-.062.159-.133.152-.127.072-.15.034c-.104.007-.471-.039-.997-.107-1.063-.137-2.88-.338-4.32-.027-.653.142-1.612.21-2.489.627-.898.427-1.711 1.079-2.047 1.332-.1.075-.173.123-.211.144l-.144.054-.203.005-.165-.058-.135-.105-.122-.184c-.067-.147-.149-.5-.194-1.008-.09-1.024-.071-2.771.335-4.652.383-1.772 1.638-5.201 2.177-6.163ZM7.459 13.339c.458-.332 1.146-.8 1.784-1.104.955-.455 1.996-.547 2.708-.701 1.702-.368 3.906-.073 4.923.059-.077-.336-.195-.795-.336-1.158-.284-.731-1.237-2.494-2.581-3.909-1.368-1.44-3.219-2.88-4.11-3.445l-.067.014c-.54 1.04-1.663 4.149-2.015 5.782-.38 1.76-.401 3.395-.317 4.353.003.036.007.073.011.109Z" style="fill:#7b5643"/>
    <path d="M10.131 1.077c.294 1.113.425 1.116.292 1.513-.196.582-1.446.899-1.743.143-.502-1.276-.327-1.586-.259-1.706.231-.406.977-.485 1.118-.466.386.051.566.459.592.516Zm-.444.123c-.08.021-.161.043-.241.065l-.001.001.242-.066Zm-.49.135c-.01.003-.02.005-.03.008l.004.008c.009-.005.017-.011.026-.016Zm-.133.06c-.006-.008-.015-.014-.025-.018.006.01.015.016.025.018Zm.466.585c.006.03.012.061.018.091.011-.001.023 0 .035.001L9.53 1.98Zm.176.309c.004.036.014.065.044.076l-.044-.076Z" style="fill:#7b5643"/>
  </svg>
</svg>