<svg xmlns="http://www.w3.org/2000/svg" xml:space="preserve" style="fill-rule:evenodd;clip-rule:evenodd;stroke-linecap:round;stroke-linejoin:round;stroke-miterlimit:1.5" viewBox="0 0 448 177">
  <path d="M0 0h447.967v176.269H0z" style="fill:none"/>
  <path d="M84.198 169.07c-5.38-3.74-9.421-20.98-10.016-22.958-3.559-11.832-4.214-26.143-2.886-37.178 1.232-10.243 2.969-21.251 7.679-29.896 5.612-10.302 12.178-17.18 33.139-17.609 26.183-.537 36.001 13.314 38.49 35.176.538 4.731.875 16.292.038 26.632-.642 7.935-1.903 20.723-2.649 25.967-.675 4.744-2.327 16.385-5.157 19.866-4.42 5.438-16.645 3.639-20.232 0-3.92-3.978-2.902-8.391-5.581-10.527-2.207-1.76-7.144-1.321-8.972 0-2.237 1.616-1.04 6.315-5.539 10.527-3.758 3.517-12.775 3.852-18.314 0Z" style="fill:#fff4ec"/>
  <clipPath id="a">
    <path d="M84.198 169.07c-5.38-3.74-9.421-20.98-10.016-22.958-3.559-11.832-4.214-26.143-2.886-37.178 1.232-10.243 2.969-21.251 7.679-29.896 5.612-10.302 12.178-17.18 33.139-17.609 26.183-.537 36.001 13.314 38.49 35.176.538 4.731.875 16.292.038 26.632-.642 7.935-1.903 20.723-2.649 25.967-.675 4.744-2.327 16.385-5.157 19.866-4.42 5.438-16.645 3.639-20.232 0-3.92-3.978-2.902-8.391-5.581-10.527-2.207-1.76-7.144-1.321-8.972 0-2.237 1.616-1.04 6.315-5.539 10.527-3.758 3.517-12.775 3.852-18.314 0Z"/>
  </clipPath>
  <g clip-path="url(#a)">
    <path d="M88.423 68.095c-.334.71-2.433 4.557-3.625 6.793-2.608 4.889-3.644 9.144-4.906 14.51-1.198 5.09-1.938 10.856-2.156 16.098-.302 7.257-.835 13.537-.756 21.365.048 4.808.692 9.384 1.161 14.209.373 3.838 1.71 13.59 2.963 17.17 1.642 4.693 2.437 6.105 2.447 7.915.027 4.436-11.373-25.51-11.678-30.324-.332-5.26-.73-11.055-.909-15.799-.207-5.445 1.005-15.357 1.572-17.771 1.374-5.842 1.999-11.197 3.981-16.566 1.131-3.063 1.98-5.476 3.714-8.149 1.142-1.762 2.979-4.341 4.304-5.928.957-1.145 4.11-3.993 3.888-3.523Z" style="fill:#99664a;fill-opacity:.29"/>
  </g>
  <path d="M83.627 169.891c-1.723-1.197-3.352-3.666-4.756-6.627-3.097-6.531-5.226-15.468-5.646-16.864-3.599-11.962-4.264-26.429-2.922-37.585 1.247-10.369 3.027-21.505 7.794-30.256 2.893-5.311 6.049-9.723 11.167-12.879 5.077-3.131 12.109-5.031 22.83-5.251 13.44-.275 22.663 3.195 28.863 9.487 6.179 6.271 9.367 15.39 10.64 26.575.543 4.766.885 16.412.042 26.827-.644 7.953-1.909 20.771-2.656 26.026-.477 3.355-1.442 10.123-2.956 15.088-.688 2.256-1.506 4.15-2.415 5.269-2.393 2.943-6.868 4.015-11.26 3.771-4.337-.24-8.542-1.755-10.46-3.7-2.098-2.129-2.89-4.365-3.5-6.364-.506-1.654-.806-3.138-1.992-4.083-.945-.754-2.486-.985-3.974-.938-1.512.048-2.994.392-3.789.966-.73.527-.931 1.496-1.241 2.642-.608 2.245-1.324 5.112-4.201 7.805-1.636 1.532-4.176 2.538-7.035 2.891-4.172.515-9.014-.353-12.533-2.8Zm1.141-1.642c3.129 2.175 7.439 2.915 11.147 2.457 2.394-.295 4.543-1.084 5.913-2.366 2.523-2.361 3.105-4.9 3.638-6.868.45-1.665.939-2.974 2-3.74 1.032-.746 2.933-1.282 4.897-1.344 1.99-.063 4.021.366 5.283 1.373 1.228.979 1.819 2.351 2.324 3.966.623 1.989 1.134 4.396 3.347 6.641 1.669 1.694 5.37 2.898 9.146 3.107 3.723.207 7.569-.541 9.597-3.036 1.069-1.314 1.925-3.875 2.65-6.744 1.142-4.523 1.891-9.809 2.293-12.632.744-5.231 2.002-17.99 2.643-25.907.831-10.264.499-21.742-.036-26.438-1.215-10.677-4.18-19.413-10.078-25.399-5.877-5.965-14.655-9.152-27.397-8.891-10.241.21-16.972 1.963-21.821 4.954-4.81 2.966-7.742 7.143-10.461 12.134-4.652 8.54-6.347 19.419-7.565 29.537-1.312 10.914-.669 25.069 2.852 36.771.413 1.373 2.493 10.162 5.538 16.583 1.228 2.589 2.585 4.795 4.09 5.842Z" style="fill:#8f705a"/>
  <path d="M86.786 131.578c-1.302-.736-5.955-2.878-6.387-2.488-1.717 1.551 1.089 3.329 2.003 3.676 2.657 1.008 4.073 1.101 4.347.556.426-.846.659-1.392.037-1.744Z" style="fill:#9b694e;fill-opacity:.29"/>
  <path d="M86.337 103.49c-.582-1.612-.403 5.466.634 7.894 1.094 2.562 5.1 3.109 10.626 4.118 1.975.36 6.358.352 12.809.915 1.948.169 4.464.483 6.688.793 5.39.753 8.137 1.073 13.856.077 4.013-.699 4.75-4.727 5.064-5.355.075-.149-2.455 1.813-6.237 2.399-4.518.699-10.53.046-12.018-.17-4.936-.715-17.75-.965-27.387-3.462-3.398-.881-3.746-6.407-4.035-7.209Z" style="fill:#99664a;fill-opacity:.22"/>
  <path d="M89.388 84.336c-4.382 4.661-5.66 22.162-2.313 25.293 3.895 3.644 11.451 3.811 21.83 4.546 11.178.79 19.025 2.699 24.459-.214 4.999-2.68 10.058-26.323 1.152-30.317-4.757-2.133-11.917-3.237-20.848-3.607-9.315-.385-19.878-.382-24.28 4.299Z" style="fill:#ffe4d5"/>
  <path d="M89.024 83.994c1.823-1.939 4.658-3.122 8.032-3.795 4.922-.982 11.003-.894 16.633-.661 9.01.373 16.232 1.498 21.032 3.65 1.898.851 3.215 2.528 4.043 4.708.795 2.097 1.138 4.665 1.134 7.374-.01 5.632-1.52 11.873-3.466 15.671-.88 1.718-1.868 2.944-2.832 3.461-2.241 1.201-4.877 1.618-7.974 1.62-4.516.004-10.036-.873-16.757-1.349-6.257-.442-11.493-.683-15.526-1.593-2.776-.627-4.994-1.574-6.61-3.086-.588-.55-1.064-1.494-1.398-2.729-.467-1.724-.681-4.037-.654-6.555.04-3.744.609-7.946 1.631-11.32.699-2.309 1.619-4.234 2.712-5.396Zm.728.685c-1.01 1.074-1.836 2.866-2.483 5.001-.997 3.29-1.549 7.389-1.588 11.041-.025 2.413.171 4.63.619 6.282.275 1.015.633 1.809 1.116 2.261 1.5 1.403 3.57 2.259 6.147 2.84 3.994.902 9.18 1.133 15.377 1.572 6.692.473 12.188 1.35 16.685 1.346 2.913-.002 5.396-.372 7.502-1.502.836-.448 1.652-1.545 2.415-3.035 1.89-3.687 3.346-9.748 3.356-15.217.004-2.577-.313-5.022-1.069-7.017-.726-1.911-1.853-3.404-3.517-4.15-4.715-2.114-11.814-3.198-20.664-3.564-5.55-.23-11.545-.325-16.397.643-3.142.627-5.8 1.692-7.499 3.499Z" style="fill:#8f705a"/>
  <path d="M119.134 87.194c-3.106 1.637-5.585 9.914-1.337 13.998 4.761 4.575 15.513 3.202 17.159.724 1.549-2.333 3.229-10.218.984-12.692-2.943-3.247-11.997-4.564-16.806-2.03Z" style="fill:#fff"/>
  <path d="M122.329 88.652c-2.713.631-5.355 2.771-5.284 6.473.059 3.031 1.034 5.566 4.097 5.964 4.74.617 9.112 1.02 11.155-.07 3.038-1.62 3.688-7.859 1.882-9.879-2.45-2.74-8.994-3.152-11.85-2.488Z" style="fill:#ac7c5b"/>
  <path d="M124.687 91.833c-.125 1.508-1.298 2.643-2.619 2.534-1.321-.109-2.293-1.422-2.168-2.929.124-1.508 1.298-2.643 2.619-2.534 1.321.109 2.292 1.422 2.168 2.929Z" style="fill:#fff;stroke:#fff;stroke-width:1px"/>
  <path d="M125.053 94.729c-.032.525-.511.923-1.069.889-.558-.034-.985-.488-.953-1.013.032-.525.511-.924 1.069-.89.558.035.986.489.953 1.014Z" style="fill:#fff;stroke:#fff;stroke-width:1px"/>
  <path d="M93.051 86.221c-3.107 1.637-5.585 9.914-1.337 13.997 4.761 4.576 15.513 3.203 17.159.724 1.549-2.332 3.228-10.217.984-12.692-2.943-3.246-11.998-4.563-16.806-2.029Z" style="fill:#fff"/>
  <path d="M96.246 87.679c-2.713.631-5.356 2.771-5.284 6.473.059 3.031 1.034 5.566 4.097 5.964 4.74.617 9.112 1.02 11.155-.07 3.037-1.62 3.688-7.859 1.882-9.879-2.45-2.74-8.995-3.152-11.85-2.488Z" style="fill:#ac7c5b"/>
  <path d="M98.604 90.86c-.125 1.508-1.298 2.643-2.62 2.534-1.321-.109-2.292-1.422-2.168-2.929.125-1.508 1.299-2.643 2.62-2.534 1.321.109 2.292 1.422 2.168 2.929Z" style="fill:#fff;stroke:#fff;stroke-width:1px"/>
  <path d="M98.97 93.755c-.032.526-.511.924-1.069.89-.559-.034-.986-.488-.954-1.013.033-.525.512-.924 1.07-.89.558.034.985.488.953 1.013Z" style="fill:#fff;stroke:#fff;stroke-width:1px"/>
  <path d="M108.431 103.762c.875-.006 1.587.36 1.59.817.003.457-.704.832-1.579.838-.875.005-1.587-.361-1.59-.817-.003-.457.704-.832 1.579-.838ZM104.509 105.1c.74-.005 1.342.35 1.345.791.003.441-.595.803-1.334.808-.739.004-1.342-.35-1.344-.791-.003-.441.594-.803 1.333-.808ZM108.723 106.752c.624-.004 1.133.338 1.136.765.003.426-.502.775-1.126.779-.625.004-1.134-.339-1.137-.765-.003-.426.502-.775 1.127-.779ZM119.039 104.256c-.879-.028-1.605.322-1.619.781-.014.459.687.854 1.567.882.879.028 1.604-.322 1.619-.781.014-.459-.688-.854-1.567-.882ZM122.947 105.7c-.743-.024-1.357.317-1.371.761-.014.443.578.822 1.321.845.742.024 1.357-.317 1.371-.761.014-.443-.578-.822-1.321-.845ZM118.671 107.254c-.628-.02-1.148.312-1.162.74-.013.428.485.792 1.113.812.627.02 1.148-.312 1.161-.74.014-.429-.485-.792-1.112-.812Z" style="fill:#e7a468"/>
  <path d="M114.273 39.365c-.326-.009-1.039-1.019-1.165-1.313-.369-.862-.448-2.679.297-4.289 1.442-3.116 4.955-4.884 8.451-4.805 2.26.052 4.625 1.061 4.672 1.248.088.359-.501.44-1.206.564-.856.151-3.474.822-3.781.945-2.453.981-4.569 2.624-6.076 4.801-.36.52-1.192 2.721-1.192 2.849Z" style="fill:#a85f53"/>
  <path d="M116.221 39.821c-.087.368-.276.708-.552.976-.386.377-.909.581-1.448.567l-.797-.171-.606-.355c-.588-.454-1.38-1.607-1.548-1.998-.509-1.189-.707-3.698.32-5.917 1.767-3.819 6.028-6.062 10.312-5.964 2.523.057 5.135 1.147 5.677 1.52l.515.478.375.77.066.618-.131.686-.243.48-.449.495c-.351.289-1.119.571-2.043.734-.765.135-3.111.722-3.386.832-2.087.835-3.891 2.229-5.174 4.083-.238.344-.807 1.935-.888 2.166Z" style="fill:#7b3f3a"/>
  <path d="M114.679 39.859c-.083.315.687 1.283.934 1.486.724.597 2.446 1.182 4.2.919 3.396-.51 6.078-3.386 6.982-6.764.585-2.184.279-4.738.113-4.834-.32-.186-.563.357-.88.999-.384.779-1.763 3.104-1.967 3.364-1.629 2.079-3.8 3.649-6.313 4.485-.6.2-2.945.381-3.069.345Z" style="fill:#a85f53"/>
  <path d="M114.788 37.862c.244-.014 1.932-.113 2.328-.245 2.139-.712 3.984-2.052 5.371-3.821.183-.233 1.404-2.32 1.748-3.016.416-.842.902-1.5 1.278-1.756l.601-.292.529-.099.695.067.575.236.633.577.315.628c.205.625.519 3.438-.134 5.876-1.108 4.139-4.456 7.6-8.617 8.224-2.418.364-4.771-.53-5.769-1.353-.329-.27-1.213-1.354-1.483-2.046l-.171-.681.059-.813c.138-.522.48-.966.95-1.231.335-.189.714-.276 1.092-.255Z" style="fill:#7b3f3a"/>
  <path d="M109.171 52.225c.107-.453-1.596-1.127-3.824-1.765-1.639-.469-2.973-1.436-4.101-1.68-1.036-.224-2.059.435-2.283 1.471-.225 1.036.435 2.059 1.471 2.283 2.662.576 8.59.314 8.737-.309Z" style="fill:#7a6d1f;stroke:#5c5017;stroke-width:4px"/>
  <path d="M107.654 52.144c-.092-.054-1.495-.14-1.629-.147-.939-.048-1.826-.101-2.763-.216-.988-.121-1.864-.308-2.708-.645-.481-.192-1.154-.742-1.166-.671-.031.181.031.991.498 1.352.379.293 1.05.398 1.833.506.572.078 2.45.094 2.774.095.278 0 1.639-.043 2.081-.097.1-.013 1.171-.123 1.08-.177Z" style="fill:#5c5017;fill-opacity:.34"/>
  <path d="M110.522 47c-.068-.46 2.234-.488 4.251-.91 1.484-.309 2.595-1.059 3.612-1.194.934-.123 1.805.629 1.944 1.68s-.506 2.004-1.44 2.128c-2.4.318-8.272-1.071-8.367-1.704Z" style="fill:#7a6d1f;stroke:#5c5017;stroke-width:4px"/>
  <path d="M111.51 47.168c.099-.039 1.497.103 1.631.118.934.103 1.818.194 2.762.232.995.039 1.888-.004 2.776-.199.506-.112 1.259-.547 1.259-.475.001.183-.191.973-.709 1.254-.422.228-1.101.224-1.891.203-.577-.015-2.433-.301-2.753-.353-.275-.045-1.611-.307-2.038-.432-.097-.028-1.136-.31-1.037-.348Z" style="fill:#5c5017;fill-opacity:.34"/>
  <path d="M114.292 39.161c-.027-.011.177-1.959 1.468-3.605.701-.893 1.693-1.886 2.654-2.478 1.029-.633 3.136-1.637 4.438-1.894 1.532-.303 3.128-.429 3.232-.245.088.158-.491 1.842-.99 2.638-.629 1.004-2.065 2.718-2.785 3.384-.764.707-1.982 1.62-3.226 2.182-1.497.675-2.715.754-4.369.754" style="fill:#c58c83"/>
  <path d="m112.799 40.474-.33-.49-.134-.405-.038-.624c.032-.441.374-2.701 1.89-4.633.836-1.066 2.031-2.24 3.179-2.947 1.181-.726 3.606-1.859 5.099-2.153 1.809-.358 3.696-.38 4.152-.234l.76.422.449.548.225.607.033.634c-.045.531-.692 2.478-1.295 3.44-.705 1.124-2.316 3.044-3.121 3.79-.891.824-2.313 1.883-3.763 2.537-1.78.803-3.223.931-5.191.931-.903 0-1.668-.6-1.915-1.423Zm3.949-2.692c.494-.083.982-.223 1.512-.462 1.039-.469 2.052-1.236 2.691-1.827.483-.447 1.334-1.434 1.955-2.268-1.108.303-2.649 1.068-3.443 1.557-.776.477-1.565 1.289-2.129 2.008-.244.312-.436.659-.586.992Z" style="fill:#7b3f3a"/>
  <path d="M116.184 41.19c.399-.007 1.432-.126 1.759-.208.703-.176 1.569-.653 2.243-.922 1.551-.621 2.907-1.674 3.966-2.946.82-.984 1.252-1.72 1.785-2.786.189-.377.685-1.764.753-1.764.001 0 .018 1.083-.045 1.365-.306 1.38-.528 2.245-1.068 3.295-.279.543-1.156 1.796-1.602 2.219-.528.499-1.524 1.294-2.159 1.626-1.158.607-2.085.88-3.669.77-1.209-.085-1.744-.649-1.963-.649Z" style="fill:#7b3f3a;fill-opacity:.32"/>
  <path d="M113.343 59.827c.57 2.133-.698 4.328-2.831 4.898-2.132.57-4.327-.698-4.897-2.831-.825-3.083-1.293-6.296-.19-12.604.876-5.011 2.756-9.728 6.276-12.7 1.687-1.424 4.213-1.21 5.637.477 1.424 1.687 1.211 4.212-.476 5.636-2.168 1.83-3.017 4.88-3.556 7.965-.802 4.583-.562 6.919.037 9.159Z" style="fill:#5c5017"/>
  <path d="M109.732 59.631c-1.506-.003-10.223 1.2-10.184 1.277.05.1 3.209.784 3.409 1.115.323.535-1.986 1.549-1.407 1.897.183.11 2.5-1.14 2.993-1.007.485.131-.253 1.945-.014 1.985.276.046 2.018-1.242 2.464-1.153.396.079.731 1.071 1.156 1.131.548.079.735-.931 1.253-1.005.445-.064 1.364 1.371 1.764 1.421.256.032.25-1.647.768-1.628.564.021 1.987 1.266 2.261 1.266.298 0-.139-1.342.291-1.523.379-.159 1.843.408 1.772.155-.16-.573-1.152-1.515-1.032-1.743.157-.297 2.4-.671 2.362-.958-.039-.296-5.266-1.226-7.856-1.23Z" style="fill:#678620"/>
  <path d="m120.234 63.856.009.098-.32 1.243-.704 1.089-1.208.914-.639.173-.133.196-.691.616-1.155.566-1.198.179-1.044-.21-.882.421-1.599.12-1.157-.316-.328-.188-.085.032-1.517.047-1.151-.428c-.343.169-.64.304-.772.34l-1.788.096-.961-.286-.87-.521-.147-.174-.971.01-1.431-.523-1.028-.864-.623-.964-.315-1.221-.473-.264-1.083-1.34-.375-1.176.004-1.25.463-1.326 1.106-1.253.855-.484 1.052-.291c1.497-.269 9.211-1.289 10.664-1.286 2.789.005 8.123.981 9.199 1.419l.963.53.862.84.538.951.252.96.009 1.003-.205.886-.384.798-.583.736-.156.102Zm-9.896.257c-.027.166-.04.346-.03.535l.03-.535Zm1.611 2.742c.062-.068.121-.141.177-.218l-.177.218Z" style="fill:#678620"/>
  <path d="M77.048 51.29c.032.232.591 4.238 1.353 8.725 3.564 20.97 12.835 70.725 13.519 73.13.264.927.56 2.037 1.012 3.049.326.73.708 1.43 1.328 1.824 1.249.794 3.236 1.067 4.469-.028.506-.45.837-1.142.967-2.081.15-1.093 1.161-1.859 2.254-1.708 1.094.151 1.859 1.161 1.708 2.254-.285 2.072-1.154 3.532-2.273 4.525-2.56 2.275-6.678 2.063-9.272.413-1.029-.655-1.838-1.64-2.455-2.793-.743-1.387-1.206-3.027-1.585-4.36-.688-2.419-10.031-52.462-13.615-73.555-.923-5.428-1.425-9.047-1.402-9.668-.068-.237-.092-.49-.065-.75.114-1.098 1.097-1.897 2.195-1.783l.452.096.465.218.402.325.285.37.205.439.108.503c.026.247-.025.605-.055.855Zm-2.85 1.024c.17.075.361.126.577.148-.204-.021-.398-.072-.577-.148Z" style="fill:#928268"/>
  <path d="M74.284 50.645c-.079-.16-.116-.343-.098-.533.05-.55.537-.955 1.087-.905l.243.049.248.112.214.17.154.195.145.341.043.36c0 .185-.054.423-.067.568-.041.444.549 3.786 1.476 8.881 3.812 20.959 13.678 70.674 14.391 73.075.287.964.613 2.118 1.097 3.17.42.912.948 1.755 1.731 2.24 1.596.99 4.12 1.219 5.668-.189.653-.594 1.108-1.484 1.262-2.707.069-.548.57-.936 1.117-.867.548.069.936.569.867 1.117-.225 1.791-.945 3.067-1.901 3.936-2.205 2.006-5.793 1.82-8.067.41-.895-.555-1.593-1.407-2.138-2.397-.724-1.314-1.176-2.876-1.553-4.143-.715-2.408-10.619-52.267-14.442-73.287-.982-5.399-1.543-8.951-1.5-9.421.003-.04.013-.107.023-.175Z" style="fill:#7f6b4c"/>
  <path d="M86.713 130.927c1.725-.17 5.572-1.031 5.92-1.193.171.734 2.19 6.208 3.229 7.662.978 1.37 2.606 1.042 3.372.582 1.522-.912 1.438-2.847 1.93-3.754.787-1.451 4.805-.33 5.235.576.494 1.043.17 5.453-3.235 8.227-2.072 1.688-6.046 2.22-8.688 1.242-2.836-1.051-5.166-4.193-6.859-7.733-.651-1.361-2.488-5.452-.904-5.609Z" style="fill:#e9a367"/>
  <path d="M86.615 129.932c1.63-.161 5.269-.952 5.598-1.105.273-.126.589-.123.859.009.271.132.467.379.536.672.162.7 2.077 5.92 3.068 7.307.591.827 1.581.583 2.044.306.665-.399.859-1.096 1.026-1.708.175-.646.313-1.248.539-1.666.47-.867 1.646-1.302 3.008-1.206 1.119.079 2.34.468 3.076.906.484.288.794.632.933.924.193.406.335 1.201.257 2.218-.155 2.026-1.124 5.063-3.764 7.213-2.306 1.879-6.726 2.493-9.666 1.404-3.042-1.126-5.599-4.443-7.415-8.239-.494-1.034-1.586-3.532-1.627-4.989-.018-.636.149-1.139.425-1.473l.226-.223.273-.177.3-.116.304-.057Zm.486 1.958c.003.146.013.349.041.505.234 1.259 1.01 2.943 1.377 3.709 1.571 3.285 3.673 6.252 6.304 7.227 2.344.868 5.871.418 7.709-1.079 1.827-1.488 2.658-3.505 2.938-5.08.15-.842.174-1.537.05-1.882-.061-.043-.248-.171-.391-.24-.535-.258-1.283-.465-1.976-.514-.273-.019-.536-.014-.768.031-.141.027-.284.028-.341.134-.224.411-.298 1.062-.507 1.707-.301.927-.797 1.834-1.789 2.428-1.07.641-3.334 1.054-4.7-.859-.871-1.219-2.405-5.132-3.074-7.038-1.322.319-3.525.784-4.873.951Z" style="fill:#9f764c"/>
  <path d="M82.807 118.412c.994 1.143 2.596 1.959 4.707 1.484 2.029-.456 2.927-2.077 5.772-1.786 2.231.229 4.546 1.945 5.251 5.675.563 2.978-1.26 6.416-4.712 7.663-3.88 1.402-7.857 1.631-13.356-1.737" style="fill:#fff4ec"/>
  <path d="M82.052 119.068c-.362-.416-.318-1.048.098-1.41.417-.363 1.049-.318 1.411.098.788.906 2.061 1.541 3.734 1.164.925-.208 1.584-.7 2.344-1.088.979-.5 2.078-.888 3.748-.717 2.576.264 5.319 2.178 6.133 6.484.644 3.407-1.406 7.363-5.356 8.79-4.129 1.492-8.364 1.759-14.217-1.825-.471-.288-.619-.904-.331-1.375.288-.47.904-.619 1.375-.33 5.146 3.15 8.863 2.961 12.494 1.649 2.955-1.068 4.552-3.989 4.07-6.538-.597-3.155-2.484-4.672-4.371-4.865-1.437-.147-2.28.304-3.096.756-.727.403-1.442.805-2.354 1.011-2.55.573-4.482-.423-5.682-1.804Z" style="fill:#8f705a"/>
  <path d="M65.129 11.286c.409.334 1.773.059 2.997-.211 1.111-.244 1.885-.657 2.734-1.451.316-.295-1.422-7.474-4.361-6.563-2.729.846-2.205 7.542-1.37 8.225Z" style="fill:#eeb927"/>
  <path d="m63.863 12.834-.612-.733c-.133-.228-.267-.533-.381-.906-.285-.937-.479-2.498-.389-4.074.081-1.443.412-2.886 1.01-3.936.577-1.013 1.396-1.718 2.416-2.035l1.112-.169 1.075.164c.581.18 1.139.508 1.649.973 1.045.953 1.915 2.607 2.453 4.146.591 1.69.735 3.249.659 3.657l-.255.695-.374.469c-1.14 1.065-2.179 1.615-3.67 1.944-1.028.226-2.143.429-2.885.409l-.959-.15-.849-.454Zm2.762-3.519c.361-.057.769-.126 1.07-.193.393-.086.72-.205 1.026-.378-.227-.851-.661-2.267-1.224-3.118-.128-.194-.362-.435-.496-.567-.024.051-.04.114-.069.169-.135.261-.228.568-.299.894-.204.936-.106 2.319-.008 3.193Z" style="fill:#9f764c"/>
  <path d="M138.137 122.794c-1.113 1.942-3.141 3.335-5.519 4.307-3.297 1.349-7.915 1.625-8.369 7.153-.354 4.309 4.346 7.799 7.382 8.071 7.724.693 12.182-5.789 13.303-9.532" style="fill:#fff4ec"/>
  <path d="M137.27 122.297c.274-.479.886-.645 1.365-.37.478.274.644.886.37 1.365-1.217 2.121-3.41 3.672-6.008 4.735-1.313.537-2.837.902-4.222 1.5-1.779.769-3.297 1.98-3.529 4.809-.152 1.849.818 3.505 2.114 4.745 1.331 1.273 3.022 2.128 4.36 2.248 7.128.639 11.222-5.369 12.256-8.823.159-.529.716-.829 1.245-.671.529.158.83.716.671 1.245-1.207 4.032-6.029 10.987-14.351 10.241-1.698-.152-3.874-1.179-5.564-2.795-1.724-1.65-2.927-3.893-2.725-6.354.313-3.805 2.337-5.446 4.73-6.48 1.396-.604 2.933-.974 4.258-1.516 2.157-.883 4.019-2.117 5.03-3.879Z" style="fill:#8f705a"/>
  <path d="M68.405 8.894c-3.83.563-18.923 9.13-25.605 14.361-9.099 7.123-17.374 15.74-23.216 25.153-4.613 7.432-6.964 11.827-10.043 21.794-4.507 14.585-5.22 36.279-4.062 36.465 2.546.408 9.213-6.593 19.838-8.605 11.526-2.183 21.406 1.55 23.45 1.012.945-.248 9.293-44.114 12.566-59.144C63.59 29.566 67.39 8.872 68.405 8.894Z" style="fill:#e9a367"/>
  <clipPath id="b">
    <path d="M68.405 8.894c-3.83.563-18.923 9.13-25.605 14.361-9.099 7.123-17.374 15.74-23.216 25.153-4.613 7.432-6.964 11.827-10.043 21.794-4.507 14.585-5.22 36.279-4.062 36.465 2.546.408 9.213-6.593 19.838-8.605 11.526-2.183 21.406 1.55 23.45 1.012.945-.248 9.293-44.114 12.566-59.144C63.59 29.566 67.39 8.872 68.405 8.894Z"/>
  </clipPath>
  <g clip-path="url(#b)">
    <path d="M65.359 11.532c-3.532 3.812-11.596 6.797-21.128 16.561-6.509 6.668-14.096 15.243-20.328 25.512C15.145 68.038 11.32 83.143 8.16 98.648c-.471 2.309-1.682 7.78-2.314 8.03-1.549.613-1.895-34.778 13.339-56.524C38.426 22.687 60.96 13.253 65.359 11.532Z" style="fill:#cd8d5b"/>
  </g>
  <path d="m68.115 6.938.332-.044c1.039.022 1.889.837 1.954 1.874.035.573-.174 1.107-.541 1.497-1.371 3.496-4.572 20.901-6.573 30.09-2.951 13.554-10.026 50.509-12.101 57.946-.264.949-.519 1.546-.661 1.772l-.546.596-.703.34c-.751.197-2.376.047-4.65-.36-4.172-.747-11.165-2.094-18.937-.622-7.157 1.355-12.431 5.101-15.802 7.069-2.051 1.197-3.681 1.713-4.725 1.545l-.786-.296-.619-.584-.341-.658c-.069-.191-.137-.441-.194-.751-.706-3.88.245-23.269 4.408-36.741 3.145-10.179 5.543-14.668 10.255-22.258 5.961-9.605 14.397-18.404 23.683-25.673 4.761-3.727 13.714-9.122 19.996-12.218 2.901-1.43 5.289-2.362 6.549-2.547l.002.023Zm-2.946 5.233c-.573.264-1.188.559-1.837.879-6.061 2.987-14.705 8.184-19.299 11.78-8.914 6.978-17.027 15.411-22.75 24.632-4.515 7.275-6.817 11.575-9.831 21.33-3.558 11.513-4.734 27.57-4.443 33.334.709-.377 1.526-.878 2.454-1.441 3.644-2.216 8.824-5.328 15.482-6.588 8.365-1.585 15.895-.19 20.386.615.705.126 1.459.229 2.035.301.219-.802.527-1.974.808-3.191 2.724-11.833 8.588-42.299 11.205-54.318 1.658-7.613 4.157-20.738 5.79-27.333Z" style="fill:#9f764c"/>
  <path d="M68.253 8.933c.063-.29 6.351-.842 10.78-.67 6.662.26 14.794.922 25.202 3.706 17.556 4.695 29.001 10.923 39.243 18.916 13.557 10.58 28.196 30.877 27.218 31.04-4.256.706-10.99.269-21.202 5.189-11.745 5.658-18.542 14.134-20.282 16.184-.515.607-25.16-34.27-35.364-46.655-4.955-6.014-25.255-27.878-25.595-27.71Z" style="fill:#f2ce1b"/>
  <clipPath id="c">
    <path d="M68.253 8.933c.063-.29 6.351-.842 10.78-.67 6.662.26 14.794.922 25.202 3.706 17.556 4.695 29.001 10.923 39.243 18.916 13.557 10.58 28.196 30.877 27.218 31.04-4.256.706-10.99.269-21.202 5.189-11.745 5.658-18.542 14.134-20.282 16.184-.515.607-25.16-34.27-35.364-46.655-4.955-6.014-25.255-27.878-25.595-27.71Z"/>
  </clipPath>
  <g clip-path="url(#c)">
    <path d="M168.884 61.114c-3.232-3.186-6.607-8.463-17.229-16.861-7.309-5.779-15.27-11.067-27.37-17.146-11.094-5.574-32.192-15.913-44.509-17.202-7.583-.794-10.38-.484-9.379-.711 3.379-1.097 36.067-1.824 58.645 12.146 28.519 17.645 37.873 35.48 39.842 39.774Z" style="fill:#e3c46e"/>
  </g>
  <path d="M67.192 10.628c-.059-.036-.116-.076-.171-.119-.606-.474-.886-1.253-.722-2.004l.206-.545.365-.479.499-.36.558-.212c1.168-.317 6.97-.808 11.184-.644 6.778.264 15.052.939 25.641 3.772 17.877 4.781 29.527 11.132 39.957 19.272 12.461 9.724 25.793 27.51 27.611 31.086.157.31.257.562.312.744l.103.534-.013.47-.115.454-.221.427-.378.42-.492.307-.493.147c-4.146.687-10.714.226-20.661 5.018-11.369 5.477-17.941 13.691-19.625 15.676l-.504.427-.589.236-.676.038-.765-.24c-.194-.105-.704-.509-1.363-1.295-4.461-5.32-25.349-34.693-34.535-45.844-4.433-5.379-21.22-23.52-24.779-26.973-.119-.115-.255-.24-.334-.313Zm1.277.294c.226-.024.424-.084.598-.162-.192.086-.394.139-.598.162Zm4.185-.468c5.939 6.18 18.904 20.264 22.738 24.917 8.746 10.615 28.101 37.757 33.771 44.903 3.012-3.436 9.523-10.173 19.463-14.962 8.473-4.082 14.607-4.594 18.953-5.023-3.81-5.703-14.907-19.692-25.331-27.827-10.055-7.847-21.295-13.952-38.53-18.561-10.226-2.735-18.217-3.384-24.763-3.639-1.849-.072-4.294.05-6.301.192Z" style="fill:#9f764c"/>
  <path d="M66.64 10.677c.593-1.05 2.911-2.084 3.757-1.483 6.746 4.794 22.854 16.904 34.054 28.602 10.812 11.292 18.462 25.377 20.746 31.211 2.691 6.87 4.177 14.451 3.387 14.507-2.399.173-25.105-4.489-41.622-.946-5.273 1.131-13.003 1.744-20.084 5.087-9.021 4.259-17.009 11.288-17.741 11.451-1.504.334-3.943-19.313.88-41.46 2.891-13.272 12.552-39.763 16.623-46.969Z" style="fill:#d4c421"/>
  <path d="M65.769 10.186c.454-.805 1.669-1.648 2.827-1.991.951-.282 1.848-.194 2.381.184 6.774 4.815 22.949 16.978 34.196 28.725 10.925 11.41 18.647 25.644 20.956 31.538 2.204 5.63 3.6 11.73 3.664 13.973.018.641-.096 1.08-.218 1.298l-.199.266-.22.173-.238.109-.262.051c-2.391.172-25.022-4.498-41.484-.967-5.215 1.119-12.864 1.709-19.867 5.015-7.144 3.372-13.629 8.505-16.31 10.503-.863.643-1.455.977-1.642 1.019l-.364.023-.332-.081-.298-.168-.285-.281c-.271-.342-.598-1.12-.862-2.309-1.254-5.628-2.072-21.922 1.828-39.833 2.908-13.352 12.634-39.999 16.729-47.247ZM49.421 97.735c.122-.087.252-.181.378-.276 2.736-2.039 9.362-7.266 16.652-10.708 7.159-3.38 14.97-4.017 20.301-5.161 15.456-3.315 36.314.51 41.006.9-.024-.409-.071-.987-.164-1.548-.463-2.785-1.662-7.316-3.328-11.57-2.261-5.774-9.837-19.709-20.537-30.885-11.137-11.631-27.15-23.671-33.883-28.458-.031-.003-.136-.014-.203-.01-.15.01-.313.044-.479.094-.657.194-1.396.6-1.654 1.056-4.046 7.162-13.642 33.497-16.516 46.69-3.816 17.525-3.057 33.465-1.83 38.972.072.323.169.643.257.904Z" style="fill:#9f764c"/>
  <path d="M50.52 100.488c-.744.815-2.01.873-2.826.129-.815-.743-.873-2.01-.13-2.825 4.231-4.637 23.895-14.239 36.802-17.099 16.463-3.647 35.893-2.837 44.765.469 1.035.385 1.562 1.538 1.176 2.572-.385 1.034-1.538 1.561-2.572 1.176-8.424-3.138-26.873-3.775-42.504-.311-12.142 2.69-30.732 11.526-34.711 15.889ZM70.185 10.212c-1.23 2.228-.952 14.373 1.602 18.323.02.031.062.054.061.09-.004.207-.071.41-.075.618-.203-.05-.419-.027-.621-.077-.013-.003-.602-.686-1.151-1.828-2.415-5.03-4.093-16.406-2.114-19.026.659-.871 1.441-.744 1.577-.722.017.003.981.601.983.61.085.365.308.727.248 1.097-.066.406-.335.731-.489.889.009-.014.014-.027.017-.039-.011.017-.021.035-.032.053-.044.045-.077.074-.09.085.037-.027.064-.052.084-.073Zm0 0 .006-.012c.005-.004.01-.009.015-.014-.006.008-.013.017-.021.026Zm.039-.075c.001-.067-.112-.106-.244-.181.058.046.125.094.244.181Z" style="fill:#9f764c"/>
  <path d="M72.044 10.835c.061.011.104.017.121.019-.135-.007-.174-.016-.121-.019Zm0 0c-.21-.041-.632-.155-.922-.465-.012-.013-.409-1.067-.405-1.075.56-1.241.573-1.583 1.925-1.4 3.45.468 14.685 4.776 17.237 11.505.02.054.073.107.06.164-.074.306-.165.27-.239.578-.179-.106-.397-.133-.575-.239-.02-.011-1.569-4.482-10.696-7.643-3.785-1.31-6.132-1.441-6.385-1.425Zm.121.019c.012 0 .011.001 0 0ZM55.872 28.021c-.078-.116-.209-.188-.287-.304-.007-.01-.242-2.705 3.272-8.975 1.275-2.275 5.328-8.894 7.834-8.983.045-.002.103-.031.135.001.337.329.607.723.944 1.053l-1.035.748c.004.138.089.175.006.189-1.897.328-10.075 10.762-10.56 15.872-.004.037.014.082-.008.112-.085.109-.216.177-.301.287Z" style="fill:#9f764c"/>
  <path d="M172.933 135.379c0-.611.012-1.765.037-3.464.025-1.698.061-3.753.108-6.165.046-2.412.104-5.02.173-7.825.069-2.804.147-5.648.232-8.531.086-2.884.173-5.632.261-8.247.089-2.614.186-4.932.291-6.954.105-2.022.207-3.568.307-4.637 1.986-.442 4.068-.77 6.246-.985 2.178-.214 4.459-.322 6.844-.322 2.928 0 5.494.449 7.699 1.346 2.206.898 3.921 2.298 5.147 4.202 1.226 1.904 1.839 4.367 1.839 7.39 0 3.076-.505 5.74-1.514 7.992-1.01 2.252-2.537 3.982-4.582 5.191-2.045 1.209-4.614 1.814-7.708 1.814-.619 0-1.358-.053-2.216-.159-.858-.106-1.519-.24-1.984-.403-.011.671-.036 1.836-.074 3.495-.039 1.659-.082 3.521-.129 5.585s-.092 4.083-.136 6.057c-.045 1.973-.075 3.61-.091 4.909-.521 0-1.259-.004-2.217-.013-.957-.009-1.981-.029-3.071-.059-1.09-.03-2.125-.065-3.105-.104-.979-.039-1.765-.077-2.357-.113Zm10.989-29.177c.465.096 1.001.178 1.61.244.609.067 1.198.1 1.768.1 1.074 0 2.064-.191 2.972-.571.907-.381 1.637-.966 2.187-1.755.551-.789.826-1.8.826-3.033 0-1.783-.478-2.995-1.432-3.636-.955-.64-2.229-.961-3.823-.96-.603 0-1.248.031-1.934.095-.686.063-1.414.147-2.183.249 0 .133.011 2.353.017 3.16.005.807.007 1.625.004 2.453-.003.828-.004 1.577-.004 2.248 0 .671-.003 1.14-.008 1.406ZM209.165 135.576c-.543 0-1.301-.015-2.275-.045s-2.022-.066-3.146-.108c-1.123-.043-2.208-.086-3.254-.132-1.046-.045-1.917-.092-2.615-.14.244-1.493.581-3.4 1.013-5.721.431-2.321.933-4.901 1.506-7.739s1.184-5.795 1.834-8.872c.65-3.076 1.315-6.136 1.996-9.18.68-3.043 1.343-5.934 1.988-8.672.644-2.739 1.237-5.165 1.78-7.281 2.241-.32 4.45-.584 6.628-.789 2.178-.206 4.304-.309 6.379-.309 1.173 0 2.344.036 3.512.109 1.167.072 2.324.19 3.469.353.438 2.128.878 4.568 1.321 7.322.442 2.753.889 6 1.341 9.742.451 3.741.905 8.131 1.362 13.169.457 5.038.918 10.906 1.383 17.603-.736.109-1.781.221-3.134.336-1.353.115-2.767.202-4.242.263-1.474.06-2.785.091-3.93.091-.044-.701-.083-1.498-.116-2.389-.034-.892-.071-1.847-.113-2.865-.041-1.019-.079-2.045-.112-3.079-.033-1.033-.062-2.038-.087-3.014-.025-.976-.046-1.867-.063-2.67-.708.018-1.472.045-2.291.081-.819.037-1.642.082-2.469.136-.827.055-1.606.117-2.337.186-.73.07-1.372.141-1.926.214-.553.072-.952.133-1.195.181-.332 1.638-.646 3.29-.942 4.955-.296 1.665-.553 3.216-.772 4.651-.218 1.436-.383 2.64-.493 3.613Zm3.568-23.283c.509-.103 1.306-.21 2.39-.322 1.085-.112 2.213-.207 3.383-.286 1.171-.079 2.118-.127 2.843-.145-.033-.514-.082-1.478-.145-2.892-.064-1.415-.139-2.964-.225-4.647-.085-1.683-.166-3.231-.241-4.642-.074-1.412-.142-2.383-.203-2.915-.36 0-.897.024-1.61.072-.714.049-1.402.1-2.063.155-.662.054-1.125.099-1.391.136-.132.695-.315 1.67-.547 2.924-.233 1.254-.482 2.638-.747 4.152-.266 1.515-.527 3.006-.784 4.475-.258 1.469-.478 2.78-.66 3.935ZM239.92 135.946c-.128-2.72-.287-6.044-.478-9.973-.191-3.929-.391-8.136-.598-12.621-.208-4.485-.41-8.946-.607-13.382-.197-4.437-.378-8.502-.545-12.195.875-.091 1.989-.186 3.342-.286 1.353-.099 2.811-.199 4.374-.299 1.564-.1 3.099-.182 4.607-.245 1.508-.064 2.846-.096 4.014-.096 1.71 0 3.424.173 5.142.517 1.718.344 3.293.953 4.724 1.827 1.43.873 2.576 2.111 3.436 3.712.861 1.602 1.291 3.672 1.291 6.211.001 2.49-.579 4.836-1.738 7.036-1.159 2.2-2.708 3.805-4.644 4.814.509 1.022 1.073 2.275 1.693 3.759.62 1.483 1.246 3.069 1.876 4.755.631 1.686 1.237 3.356 1.819 5.009.581 1.653 1.097 3.172 1.548 4.556.451 1.384.787 2.506 1.009 3.364-.653.435-1.515.848-2.586 1.238s-2.171.737-3.299 1.042c-1.129.306-2.109.552-2.939.74-.83.187-1.334.29-1.511.308-.171-.967-.445-2.24-.822-3.817-.376-1.578-.811-3.287-1.303-5.127-.493-1.841-.987-3.645-1.482-5.413-.496-1.768-.955-3.356-1.378-4.765-.424-1.408-.755-2.448-.993-3.118-.509.127-1.021.238-1.535.335-.515.097-1.003.166-1.465.209-.462.042-.873.072-1.233.09.072.575.158 1.496.257 2.766.1 1.269.205 2.735.316 4.397.111 1.662.219 3.371.324 5.127.105 1.756.195 3.406.27 4.951.075 1.544.123 2.818.146 3.821-.886.206-1.964.363-3.234.472-1.27.109-2.587.183-3.951.222-1.364.04-2.646.059-3.847.059Zm8.797-30.519c.692 0 1.4-.028 2.125-.086.725-.057 1.583-.177 2.573-.358 1.428-.284 2.576-.662 3.445-1.134.869-.471 1.498-1.071 1.889-1.799.39-.729.585-1.595.585-2.598 0-1.318-.277-2.274-.831-2.87-.553-.595-1.315-.976-2.287-1.142-.971-.166-2.096-.249-3.374-.249-.354 0-.772.015-1.253.045-.482.031-.966.068-1.453.114-.487.045-.93.09-1.328.136-.399.045-.695.08-.888.104.038.411.268 3.048.34 3.849.072.801.136 1.594.191 2.38.056.786.244 3.27.266 3.608ZM283.956 135.572c-.542 0-1.3-.015-2.274-.045s-2.023-.066-3.146-.108c-1.124-.043-2.208-.086-3.254-.132-1.046-.045-1.918-.092-2.615-.14.243-1.493.581-3.4 1.012-5.721.432-2.321.934-4.901 1.507-7.739.572-2.838 1.183-5.795 1.834-8.872.65-3.076 1.315-6.136 1.995-9.18.681-3.043 1.344-5.934 1.988-8.672.645-2.738 1.238-5.165 1.78-7.281 2.241-.32 4.451-.583 6.629-.789 2.177-.206 4.304-.309 6.379-.309 1.173 0 2.343.036 3.511.109 1.168.072 2.324.19 3.47.353.437 2.128.877 4.568 1.32 7.322.443 2.753.89 6 1.341 9.742.451 3.741.905 8.131 1.362 13.169.457 5.038.918 10.906 1.383 17.603-.736.109-1.78.221-3.133.336-1.353.115-2.767.202-4.242.263-1.475.06-2.785.091-3.931.091-.044-.701-.083-1.498-.116-2.389-.033-.892-.071-1.847-.112-2.865-.042-1.019-.079-2.045-.112-3.079-.034-1.033-.063-2.038-.088-3.014-.025-.976-.045-1.866-.062-2.67-.708.018-1.472.045-2.291.081-.819.037-1.642.082-2.47.136-.827.055-1.606.117-2.336.186-.731.07-1.373.141-1.926.214-.554.072-.952.133-1.195.181-.332 1.638-.646 3.29-.942 4.955-.296 1.665-.554 3.216-.772 4.651-.219 1.436-.383 2.64-.494 3.613Zm3.568-23.283c.51-.103 1.306-.21 2.391-.322 1.085-.112 2.212-.207 3.383-.286 1.17-.079 2.118-.127 2.843-.145-.034-.514-.082-1.478-.146-2.892-.063-1.415-.138-2.964-.224-4.647-.086-1.683-.166-3.231-.241-4.642-.075-1.412-.143-2.383-.204-2.915-.359 0-.896.024-1.61.072-.714.049-1.401.1-2.063.155-.661.054-1.124.1-1.39.136-.133.695-.315 1.67-.548 2.924-.232 1.254-.481 2.638-.747 4.152-.265 1.515-.527 3.006-.784 4.475-.257 1.469-.477 2.78-.66 3.935ZM312.727 135.371c0-.61.013-1.765.037-3.463.025-1.699.061-3.754.108-6.165.047-2.412.105-5.02.174-7.825.069-2.805.146-5.649.232-8.532.086-2.883.173-5.632.261-8.246.088-2.614.185-4.932.29-6.954.105-2.022.207-3.568.307-4.638 1.987-.441 4.069-.769 6.246-.984 2.178-.215 4.459-.322 6.845-.322 2.927 0 5.493.448 7.699 1.346 2.205.897 3.921 2.298 5.147 4.202 1.225 1.904 1.838 4.367 1.839 7.389 0 3.077-.505 5.741-1.515 7.993-1.01 2.251-2.537 3.982-4.582 5.191-2.044 1.209-4.614 1.813-7.707 1.813-.62 0-1.359-.052-2.216-.158-.858-.106-1.52-.24-1.984-.404-.011.671-.036 1.836-.075 3.496-.039 1.659-.081 3.521-.128 5.585s-.093 4.083-.137 6.056c-.044 1.974-.074 3.61-.091 4.91-.52 0-1.259-.004-2.216-.013-.958-.009-1.981-.029-3.072-.059-1.09-.03-2.125-.065-3.104-.104-.98-.04-1.766-.077-2.358-.114Zm10.989-29.177c.465.097 1.002.178 1.611.245.608.066 1.198.1 1.768.1 1.073-.001 2.064-.191 2.971-.572.908-.381 1.637-.966 2.188-1.754.55-.789.825-1.8.825-3.033 0-1.783-.477-2.995-1.432-3.636-.954-.641-2.229-.961-3.822-.961-.604 0-1.248.032-1.934.096-.687.063-1.414.146-2.184.249 0 .133.012 2.353.017 3.16.006.807.007 1.624.004 2.452-.002.828-.004 1.578-.004 2.249s-.002 1.139-.008 1.405ZM347.151 134.164c.083-1.33.158-3.14.224-5.431s.122-4.865.166-7.721c.044-2.856.066-5.81.066-8.862-.001-3.053-.023-6.069-.067-9.049-.045-2.98-.1-5.742-.167-8.287-.066-2.545-.141-4.675-.224-6.392.642-.097 1.653-.205 3.034-.326 1.381-.121 2.81-.182 4.287-.182.714 0 1.544.023 2.491.068.946.045 1.591.107 1.934.186.033 1.257.044 2.853.033 4.787-.011 1.934-.041 4.1-.091 6.496-.05 2.397-.121 4.928-.215 7.594-.094 2.665-.199 5.349-.315 8.051-.05 1.42-.114 2.8-.191 4.139-.077 1.339-.163 2.483-.257 3.432 1.743-.115 3.467-.214 5.171-.295 1.705-.082 3.415-.144 5.13-.186 1.716-.043 3.44-.064 5.172-.064.094.622.174 1.614.241 2.974.066 1.36.12 2.807.162 4.343.041 1.535.057 2.868.046 3.998-2.651.375-5.331.655-8.04.839-2.709.185-5.281.289-7.715.313-2.015.025-3.957-.004-5.828-.085-1.87-.082-3.553-.195-5.047-.34ZM395.529 136.147c-3.94 0-7.033-.965-9.28-2.896-2.247-1.932-3.919-4.686-5.015-8.265-1.023-3.221-1.663-7.132-1.918-11.732-.254-4.6-.382-9.81-.382-15.631 0-.888.009-1.816.029-2.783.019-.967.041-1.95.066-2.947.025-.997.054-1.967.087-2.91.033-.943.063-1.823.091-2.639.908-.103 1.826-.189 2.756-.258.93-.07 1.815-.105 2.656-.105 1.118 0 2.232.038 3.341.113 1.11.076 2.102.165 2.976.268-.144 1.819-.271 3.793-.381 5.92-.111 2.128-.191 4.295-.241 6.501-.049 2.206-.074 4.346-.074 6.419 0 2.436.062 4.59.187 6.46.125 1.871.331 3.471.619 4.801.432 1.983 1.067 3.447 1.905 4.393.838.946 1.922 1.419 3.25 1.419 1.472 0 2.619-.549 3.441-1.646.821-1.097 1.398-2.633 1.73-4.606.332-1.974.498-4.278.498-6.913 0-.968-.013-2.222-.038-3.763-.025-1.542-.061-3.214-.108-5.019-.047-1.804-.107-3.587-.179-5.349s-.149-3.361-.232-4.796c-.083-1.436-.172-2.549-.266-3.341.88 0 1.901.039 3.063.117 1.162.079 2.313.168 3.453.268 1.14.099 2.133.208 2.98.326.847.118 1.392.213 1.635.285.189 1.282.342 2.68.461 4.194.119 1.514.211 3.078.275 4.692.063 1.614.095 3.231.095 4.85.001 4.83-.228 9.336-.684 13.519-.456 4.183-1.303 7.852-2.539 11.007-1.237 3.155-3.005 5.619-5.304 7.39-2.3 1.771-5.284 2.657-8.953 2.657Z" style="fill:#92704a;fill-rule:nonzero"/>
  <path d="M437.406 126.1c-.05 1.192-.267 2.264-.651 3.217-.385.953-.976 1.698-1.774 2.236-.798.537-1.836.78-3.115.727-1.223-.051-2.228-.407-3.014-1.068-.786-.66-1.357-1.542-1.712-2.644-.355-1.103-.504-2.342-.447-3.717.028-.678.109-1.337.242-1.977.134-.641.274-1.194.423-1.659.148-.466.26-.774.337-.923-.376.02-.751.063-1.126.128-.375.066-.712.171-1.009.316-.808.348-1.482.89-2.022 1.628-.539.738-.832 1.666-.879 2.784-.049 1.19.187 2.2.71 3.032.522.832 1.157 1.466 1.904 1.903l-1.471 1.855c-.666-.438-1.25-1.005-1.752-1.702-.503-.696-.888-1.492-1.157-2.387-.268-.895-.381-1.856-.339-2.881.066-1.577.465-2.876 1.197-3.897s1.65-1.745 2.753-2.173c.577-.222 1.201-.391 1.872-.509.671-.117 1.516-.165 2.536-.141 1.133.035 2.078.058 2.833.069.756.011 1.386.006 1.889-.016.646-.023 1.064-.103 1.253-.239.19-.137.29-.337.301-.601.013-.326-.143-.601-.468-.826-.325-.224-.79-.358-1.394-.402l1.225-1.294c1.004.078 1.746.385 2.228.922.481.537.708 1.133.681 1.787-.021.519-.157.962-.406 1.329-.25.368-.555.65-.916.849-.361.198-.717.311-1.067.34.366.218.737.617 1.114 1.199.377.582.684 1.279.923 2.094.238.814.337 1.694.298 2.641Zm-2.027-.449c.027-.67-.057-1.328-.254-1.973-.197-.644-.476-1.242-.836-1.793-.359-.551-.768-1.02-1.226-1.406-.746-.024-1.399-.053-1.96-.088-.561-.036-1.085-.078-1.572-.126-.119.288-.292.852-.52 1.692-.227.84-.363 1.805-.409 2.895-.039.939.067 1.79.316 2.551.25.761.623 1.37 1.121 1.827.498.456 1.105.7 1.822.729.873.037 1.56-.127 2.061-.49.5-.362.859-.875 1.077-1.537.217-.661.344-1.422.38-2.281ZM423.895 111.079c-.524-.336-.995-.801-1.412-1.395-.416-.594-.74-1.254-.97-1.98-.23-.725-.33-1.437-.301-2.134.018-.45.079-.905.183-1.367.104-.461.242-.824.414-1.089l2.507.572c-.116.224-.242.518-.378.88-.137.363-.216.821-.239 1.376-.025.604.07 1.213.285 1.827.215.615.52 1.184.915 1.708s.853.956 1.375 1.297c.778-.108 1.714-.205 2.81-.291 1.095-.085 2.214-.157 3.355-.214 1.141-.058 2.184-.099 3.129-.124.944-.025 1.657-.028 2.138-.008.018.32.018.726 0 1.218-.018.491-.043.931-.074 1.321-.998-.042-2.03-.065-3.096-.07-1.066-.005-2.148.01-3.248.044-1.1.034-2.204.093-3.313.175-1.108.083-2.202.191-3.281.325-1.079.134-2.133.294-3.161.48-.06-.193-.12-.429-.182-.708-.061-.279-.114-.545-.158-.797s-.066-.424-.064-.517c.366-.106.833-.216 1.401-.328.569-.112 1.024-.179 1.365-.201ZM435.373 90.07c.529.153 1.081.376 1.655.668.573.291 1.053.691 1.439 1.198.387.507.563 1.17.529 1.988-.043 1.037-.33 1.839-.859 2.404-.53.565-1.209.951-2.036 1.156-.827.205-1.711.288-2.651.249-.497-.021-1.1-.053-1.81-.097-.71-.043-1.459-.091-2.247-.143-.788-.052-1.551-.105-2.289-.159-.738-.055-1.392-.104-1.96-.148-.568-.044-.982-.076-1.242-.096.063 1.001.144 1.852.242 2.553.098.701.171 1.141.218 1.32-.243.028-.512.049-.808.062-.296.014-.569.023-.819.025-.25.003-.425.002-.524-.002-.066-.529-.137-1.164-.211-1.905-.075-.741-.121-1.459-.139-2.156-.465-.029-1.007-.06-1.626-.094-.62-.034-1.212-.061-1.776-.079-.462-.017-.91-.02-1.342-.01-.433.011-.803.023-1.111.037l.005-2.192c.175-.011.577-.02 1.206-.025.629-.004 1.39.012 2.284.049.314.013.696.029 1.144.049.448.02.831.041 1.147.064-.009-.284-.014-.635-.015-1.052-.001-.417.003-.755.011-1.014.012-.465.029-.917.053-1.357.023-.44.047-.817.072-1.133.025-.316.043-.511.054-.584.214-.025.529-.035.944-.031.415.004.746.011.993.022-.02.094-.047.424-.082.988-.036.565-.061 1.128-.076 1.69-.012.402-.015.843-.011 1.324.005.48.015.898.028 1.254.288.021.72.057 1.296.105.576.049 1.225.099 1.946.149.722.05 1.45.103 2.186.157.736.054 1.417.101 2.044.139.627.038 1.123.064 1.486.079.645.027 1.274.014 1.888-.038.614-.052 1.127-.216 1.539-.492.412-.276.632-.73.658-1.363.018-.435-.144-.79-.487-1.064-.342-.274-.738-.488-1.187-.643-.449-.154-.821-.27-1.114-.346.073-.064.177-.167.313-.311.136-.143.277-.3.422-.47.145-.17.274-.323.388-.459.114-.136.191-.225.232-.266Z" style="fill:#d4c421;fill-rule:nonzero;stroke:#d4c421;stroke-width:1px;stroke-linecap:butt;stroke-miterlimit:2"/>
</svg>