<svg xmlns="http://www.w3.org/2000/svg" xml:space="preserve" style="fill-rule:evenodd;clip-rule:evenodd;stroke-linecap:round;stroke-linejoin:round;stroke-miterlimit:1.5" viewBox="0 0 84 103">
  <path d="M0 0h150v200H0z" style="fill:none" transform="scale(.5535 .5105)"/>
  <g transform="matrix(.05501 0 0 .05501 -14.208 -13.438)">
    <path d="M949.595 1708.06c-45.062-31.33-78.907-175.73-83.89-192.3-29.815-99.11-35.298-218.98-24.18-311.41 10.321-85.81 24.876-178.01 64.323-250.425 47.007-86.293 102.012-143.902 277.582-147.498 219.32-4.493 301.56 111.526 322.4 294.643 4.51 39.63 7.34 136.47.33 223.08-5.38 66.47-15.95 173.59-22.2 217.5-5.65 39.75-19.49 137.25-43.19 166.41-37.03 45.55-139.42 30.49-169.47 0-32.84-33.32-24.31-70.29-46.75-88.18-18.49-14.74-59.84-11.06-75.15 0-18.74 13.54-8.71 52.9-46.4 88.18-31.47 29.47-107 32.27-153.405 0Z" style="fill:#fff4ec"/>
    <clipPath id="a">
      <path d="M949.595 1708.06c-45.062-31.33-78.907-175.73-83.89-192.3-29.815-99.11-35.298-218.98-24.18-311.41 10.321-85.81 24.876-178.01 64.323-250.425 47.007-86.293 102.012-143.902 277.582-147.498 219.32-4.493 301.56 111.526 322.4 294.643 4.51 39.63 7.34 136.47.33 223.08-5.38 66.47-15.95 173.59-22.2 217.5-5.65 39.75-19.49 137.25-43.19 166.41-37.03 45.55-139.42 30.49-169.47 0-32.84-33.32-24.31-70.29-46.75-88.18-18.49-14.74-59.84-11.06-75.15 0-18.74 13.54-8.71 52.9-46.4 88.18-31.47 29.47-107 32.27-153.405 0Z"/>
    </clipPath>
    <g clip-path="url(#a)">
      <path d="M822.841 1145.3c-2.797 5.95-20.383 38.17-30.369 56.89-21.839 40.96-30.52 76.6-41.096 121.54-10.032 42.64-16.226 90.94-18.055 134.85-2.533 60.78-6.993 113.39-6.337 178.96.403 40.27 5.797 78.6 9.729 119.01 3.128 32.16 14.328 113.84 24.819 143.82 13.757 39.32 20.41 51.14 20.5 66.3.221 37.16-95.268-213.67-97.818-254-2.787-44.05-6.114-92.6-7.621-132.33-1.73-45.62 8.418-128.64 13.172-148.86 11.509-48.93 16.741-93.79 33.341-138.76 9.473-25.66 16.586-45.87 31.113-68.26 9.57-14.76 24.952-36.36 36.056-49.66 8.012-9.59 34.419-33.45 32.566-29.5Z" style="fill:#99664a;fill-opacity:.29" transform="translate(162.151 -283.029)"/>
    </g>
    <path d="M939.219 1722.99c-15.487-10.77-30.47-32.73-43.099-59.36-26.196-55.25-44.269-130.82-47.822-142.63-30.524-101.47-36.203-224.19-24.819-318.83 10.593-88.07 25.917-182.61 66.407-256.94 25.086-46.052 52.627-84.172 97.001-111.537 43.643-26.913 104.023-43.552 196.173-45.44 116.01-2.376 195.44 28.08 248.95 82.384 53.13 53.926 80.93 132.193 91.88 228.373 4.59 40.26 7.51 138.63.38 226.61-5.4 66.8-16.03 174.46-22.31 218.59-4.04 28.44-12.26 85.78-25.09 127.86-6.21 20.36-13.79 37.36-22 47.46-21.82 26.85-62.39 37.41-102.46 35.19-39.08-2.16-76.77-16.37-94.05-33.9-18.93-19.2-26.21-39.29-31.72-57.32-3.59-11.77-4.98-22.68-13.42-29.41-6.35-5.06-16.85-6.03-26.86-5.72-10.46.33-20.81 2.27-26.31 6.25-2.66 1.92-3.3 5.37-4.49 9.11-1.62 5.11-3.01 10.88-4.77 17.07-5.28 18.51-13.49 40.06-35.37 60.53-15.01 14.05-38.2 23.55-64.42 26.79-37.23 4.6-80.381-3.3-111.781-25.13Zm20.753-29.85c24.286 16.88 57.778 22.46 86.568 18.9 17.78-2.19 33.86-7.73 44.04-17.25 23.3-21.81 25.17-45.78 30.33-62.06 3.84-12.09 9.25-21.37 17.85-27.58 9.81-7.09 27.78-12.52 46.45-13.11 19.13-.61 38.53 3.95 50.67 13.63 11.81 9.42 17.85 22.42 22.71 37.95 4.83 15.44 8.49 34.26 25.66 51.68 12.77 12.96 41.29 21.52 70.17 23.12 27.91 1.55 57.04-3.12 72.24-21.82 8.33-10.25 14.65-30.35 20.3-52.72 9.48-37.51 15.68-81.36 19.01-104.78 6.21-43.7 16.71-150.28 22.07-216.41 6.9-85.25 4.17-180.56-.27-219.56-9.89-86.94-33.63-158.237-81.66-206.977-47.65-48.363-118.99-73.669-222.3-71.553-83.43 1.709-138.33 15.673-177.84 40.037-38.775 23.912-62.239 57.742-84.159 97.984-38.404 70.499-52.191 160.359-62.239 243.899-10.853 90.23-5.566 207.25 23.539 304 2.951 9.81 16.106 65.05 35.803 114.34 11.773 29.47 25.109 57.19 41.058 68.28Z" style="fill:#8f705a"/>
  </g>
  <path d="M690.522 1703.95c-10.907-6.42-49.886-25.08-53.502-21.68-14.381 13.51 9.119 29.01 16.779 32.03 22.253 8.78 34.116 9.59 36.414 4.84 3.562-7.37 5.516-12.13.309-15.19Z" style="fill:#9b694e;fill-opacity:.29" transform="matrix(.05501 0 0 .05289 1.238 -26.868)"/>
  <path d="M752.498 1318.32c-4.871-13.5-3.37 45.79 5.313 66.13 9.162 21.46 42.718 26.04 89.006 34.49 16.539 3.02 53.26 2.95 107.294 7.66 16.312 1.42 37.388 4.04 56.019 6.65 45.14 6.3 68.16 8.98 116.06.64 33.62-5.86 39.79-39.59 42.42-44.85.63-1.25-20.56 15.18-52.25 20.09-37.84 5.86-88.2.38-100.66-1.43-41.348-5.98-148.68-8.08-229.4-28.99-28.461-7.38-31.376-53.67-33.802-60.39Z" style="fill:#99664a;fill-opacity:.22" transform="matrix(.05501 0 0 .05501 -2.379 -22.217)"/>
  <path d="M981.564 994.263c-31.483 36.457-40.662 173.357-16.622 197.847 27.986 28.51 82.278 29.82 156.838 35.56 80.3 6.19 136.68 21.12 175.72-1.67 35.91-20.96 72.26-205.91 8.28-237.149-34.18-16.686-85.62-25.325-149.78-28.216-66.93-3.017-142.81-2.995-174.436 33.628Z" style="fill:#ffe4d5" transform="matrix(.06414 0 0 .0589 -22.534 -17.088)"/>
  <path d="M975.885 988.448c13.623-15.775 34.735-25.56 59.945-31.036 35.66-7.746 79.71-7.096 120.49-5.258 65.4 2.948 117.8 11.944 152.64 28.952 11.83 5.772 20.79 15.975 27.15 29.334 8.77 18.4 12.57 43.05 12.53 69.36-.07 44.81-11.14 94.45-25.36 124.67-6.81 14.48-14.64 24.66-22.1 29.01-16.66 9.73-36.24 13.2-59.27 13.22-32.53.03-72.28-6.83-120.68-10.56-45.21-3.48-83.04-5.41-112.18-12.57-20.779-5.1-37.335-12.93-49.434-25.26-4.662-4.75-8.576-12.83-11.231-23.49-3.437-13.82-5.038-32.34-4.84-52.52.292-29.72 4.445-63.06 11.896-89.84 5.247-18.85 12.245-34.518 20.444-44.012Zm11.358 11.632c-6.914 8-12.457 21.41-16.882 37.31-7.056 25.36-10.95 56.95-11.226 85.09-.181 18.4 1.164 35.3 4.298 47.9 1.726 6.94 3.802 12.45 6.834 15.53 10.291 10.49 24.54 16.76 42.213 21.1 28.53 7.01 65.58 8.79 109.85 12.2 40.09 3.08 74.22 8.36 103.19 10.02 27.35 1.56 49.89.04 68.29-10.71 7.58-4.42 14.6-17.57 21-34.75 10.59-28.42 18.18-67.89 18.24-104 .03-19.56-2.13-38.12-7.41-53.26-4.78-13.72-12.08-24.56-23.05-29.914-33.52-16.363-84-24.645-146.91-27.481-39.53-1.782-82.24-2.564-116.8 4.945-21.61 4.693-39.96 12.494-51.637 26.02Z" style="fill:#8f705a" transform="matrix(.06414 0 0 .0589 -22.534 -17.088)"/>
  <path d="M1006.89 1027.1c-25.365 14.89-42.939 85.1-5.83 117.64 41.59 36.47 131.04 20.86 143.86-.51 12.07-20.11 23.1-86.73 3.38-106.58-25.88-26.03-102.14-33.59-141.41-10.55Z" style="fill:#fff" transform="scale(.05501) rotate(2.619 6445.465 401.31)"/>
  <path d="M1034.91 1046.87c-22.45 6.31-43.747 25.23-41.729 56.19 1.652 25.33 10.779 46.17 36.569 48.33 39.89 3.35 76.63 5.05 93.3-4.85 24.8-14.72 27.85-67.18 11.97-83.39-21.55-21.99-76.47-22.93-100.11-16.28Z" style="fill:#ac7c5b" transform="matrix(.05496 .00251 -.00251 .05496 1.36 -16.662)"/>
  <ellipse cx="1029.38" cy="1052.29" rx="19.237" ry="12.04" style="fill:#fff;stroke:#fff;stroke-width:12.52px" transform="matrix(-.0054 .06543 -.09162 -.00757 157.56 -14.54)"/>
  <ellipse cx="1029.38" cy="1052.29" rx="19.237" ry="12.04" style="fill:#fff;stroke:#fff;stroke-width:31.42px" transform="matrix(-.0014 .02279 -.03871 -.00237 98.565 25.277)"/>
  <path d="M1006.89 1027.1c-25.365 14.89-42.939 85.1-5.83 117.64 41.59 36.47 131.04 20.86 143.86-.51 12.07-20.11 23.1-86.73 3.38-106.58-25.88-26.03-102.14-33.59-141.41-10.55Z" style="fill:#fff" transform="matrix(.05496 .00251 -.00251 .05496 -10.64 -16.625)"/>
  <path d="M1034.91 1046.87c-22.45 6.31-43.747 25.23-41.729 56.19 1.652 25.33 10.779 46.17 36.569 48.33 39.89 3.35 76.63 5.05 93.3-4.85 24.8-14.72 27.85-67.18 11.97-83.39-21.55-21.99-76.47-22.93-100.11-16.28Z" style="fill:#ac7c5b" transform="matrix(.05496 .00251 -.00251 .05496 -10.659 -17.11)"/>
  <ellipse cx="1029.38" cy="1052.29" rx="19.237" ry="12.04" style="fill:#fff;stroke:#fff;stroke-width:12.52px" transform="matrix(-.0054 .06543 -.09162 -.00757 145.54 -14.988)"/>
  <ellipse cx="1029.38" cy="1052.29" rx="19.237" ry="12.04" style="fill:#fff;stroke:#fff;stroke-width:31.42px" transform="matrix(-.0014 .02279 -.03871 -.00237 86.546 24.829)"/>
  <g transform="matrix(.08924 -.00058 .00058 .08924 -34.416 -69.66)">
    <ellipse cx="928.318" cy="1356.08" rx="8.184" ry="4.272" style="fill:#e7a468"/>
    <ellipse cx="928.318" cy="1356.08" rx="8.184" ry="4.272" style="fill:#e7a468" transform="matrix(.84493 0 0 .96604 123.655 52.681)"/>
    <ellipse cx="928.318" cy="1356.08" rx="8.184" ry="4.272" style="fill:#e7a468" transform="matrix(.71391 0 0 .93324 266.984 105.693)"/>
  </g>
  <g transform="matrix(-.08968 -.00283 -.00283 .08968 141.161 -67.946)">
    <ellipse cx="928.318" cy="1356.08" rx="8.184" ry="4.272" style="fill:#e7a468"/>
    <ellipse cx="928.318" cy="1356.08" rx="8.184" ry="4.272" style="fill:#e7a468" transform="matrix(.84493 0 0 .96604 123.655 52.681)"/>
    <ellipse cx="928.318" cy="1356.08" rx="8.184" ry="4.272" style="fill:#e7a468" transform="matrix(.71391 0 0 .93324 266.984 105.693)"/>
  </g>
  <path d="M1180.68 618.772c-2.74-.072-8.7-8.534-9.76-10.995-3.09-7.225-3.76-22.443 2.49-35.931 12.08-26.101 41.5-40.909 70.78-40.243 18.93.431 38.75 8.889 39.13 10.455.75 3.005-4.19 3.682-10.1 4.722-7.16 1.262-29.1 6.884-31.67 7.913-20.54 8.216-38.26 21.979-50.89 40.219-3.02 4.353-9.98 22.786-9.98 23.86Z" style="fill:#a85f53" transform="matrix(.05501 0 0 .05501 -13.061 -13.281)"/>
  <path d="M1253.91 588.912c-12.94 5.405-24.22 14.039-32.46 25.417l-5.67 13.903a36.367 36.367 0 0 1-9.73 16.579 36.374 36.374 0 0 1-26.32 10.302l-11.03-1.939-12.17-6.539-10.07-10.155-8.95-14.382c-5.64-13.157-8.46-40.96 2.9-65.52 17.99-38.867 61.01-62.312 104.61-61.319 21.6.491 43.97 8.479 52.35 12.731l12.68 9.359 4.93 6.804 3.64 9.195.79 14.421-5.32 14.884-5.35 6.828-7.61 6.04-10.32 4.595c-2.99.918-6.96 1.706-11.28 2.467-5.05.89-22.55 5.516-25.62 6.329Z" style="fill:#7b3f3a" transform="matrix(.05501 0 0 .05501 -13.061 -13.281)"/>
  <path d="M1180.68 618.772c-2.74-.072-8.7-8.534-9.76-10.995-3.09-7.225-3.76-22.443 2.49-35.931 12.08-26.101 41.5-40.909 70.78-40.243 18.93.431 38.75 8.889 39.13 10.455.75 3.005-4.19 3.682-10.1 4.722-7.16 1.262-29.1 6.884-31.67 7.913-20.54 8.216-38.26 21.979-50.89 40.219-3.02 4.353-9.98 22.786-9.98 23.86Z" style="fill:#a85f53" transform="matrix(.01543 -.0528 -.0528 -.01543 66.533 92.883)"/>
  <path d="m1215.78 628.232 5.67-13.903c8.24-11.378 19.52-20.012 32.46-25.417 3.07-.813 20.57-5.439 25.62-6.329 4.32-.761 8.29-1.549 11.28-2.467l10.32-4.595 7.61-6.04 5.35-6.828 5.32-14.884-.79-14.421-3.64-9.195-4.93-6.804-12.68-9.359c-8.38-4.252-30.75-12.24-52.35-12.731-43.6-.993-86.62 22.452-104.61 61.319-11.36 24.56-8.54 52.363-2.9 65.52l8.95 14.382 10.07 10.155 12.17 6.539 11.03 1.939c9.8.256 19.29-3.459 26.32-10.302a36.367 36.367 0 0 0 9.73-16.579Z" style="fill:#7b3f3a" transform="matrix(.01543 -.0528 -.0528 -.01543 66.533 92.883)"/>
  <path d="M1064.34 675.044c-3.9-.073-6.39 15.061-7.67 34.43-.95 14.25-6.5 26.883-6.5 36.555 0 8.878 7.21 16.086 16.09 16.086 8.87 0 16.08-7.208 16.08-16.086 0-22.819-12.64-70.885-18-70.985Z" style="fill:#7a6d1f;stroke:#5c5017;stroke-width:72.71px" transform="matrix(-.01163 .05377 -.05377 -.01163 98.218 -22.694)"/>
  <path d="M1028.66 873.649c.83-.321 12.54.862 13.66.986 7.82.87 15.23 1.631 23.13 1.946 8.34.332 15.82-.028 23.26-1.669 4.24-.937 10.54-4.577 10.55-3.977 0 1.537-1.6 8.155-5.94 10.504-3.54 1.914-9.23 1.877-15.84 1.705-4.84-.126-20.38-2.526-23.07-2.962-2.3-.373-13.49-2.572-17.07-3.615-.81-.237-9.51-2.596-8.68-2.918Z" style="fill:#5c5017;fill-opacity:.34" transform="matrix(-.0543 -.00888 -.00888 .0543 112.446 -11.655)"/>
  <path d="M1059 669.964c-3.9-.072-1.61 21.47-2.89 40.839-.94 14.249-5.94 25.554-5.94 35.226 0 8.878 7.21 16.086 16.09 16.086 8.87 0 16.08-7.208 16.08-16.086 0-22.819-17.98-75.964-23.34-76.065Z" style="fill:#7a6d1f;stroke:#5c5017;stroke-width:76.86px" transform="matrix(.00722 .05454 .04847 -.00642 10.043 -29.178)"/>
  <path d="M1028.66 873.649c.83-.321 12.54.862 13.66.986 7.82.87 15.23 1.631 23.13 1.946 8.34.332 15.82-.028 23.26-1.669 4.24-.937 10.54-4.577 10.55-3.977 0 1.537-1.6 8.155-5.94 10.504-3.54 1.914-9.23 1.877-15.84 1.705-4.84-.126-20.38-2.526-23.07-2.962-2.3-.373-13.49-2.572-17.07-3.615-.81-.237-9.51-2.596-8.68-2.918Z" style="fill:#5c5017;fill-opacity:.34" transform="matrix(.05501 0 0 .05501 -5.971 -23.708)"/>
  <path d="M1180.84 617.065c-.23-.092 1.48-16.407 12.29-30.197 5.87-7.479 14.18-15.795 22.24-20.753 8.62-5.305 26.26-13.719 37.17-15.871 12.83-2.533 26.2-3.59 27.07-2.048.74 1.321-4.11 15.43-8.29 22.094-5.27 8.407-17.3 22.77-23.33 28.344-6.41 5.927-16.6 13.573-27.03 18.277-12.53 5.656-22.74 6.322-36.59 6.322" style="fill:#c58c83" transform="matrix(.05501 0 0 .05501 -13.061 -13.281)"/>
  <path d="m1150.27 635.842-2.57-3.803-2.42-7.351-.7-10.783c.34-4.704 3.79-28.879 19.95-49.474 8.34-10.627 20.34-22.233 31.78-29.277 11.37-6.997 34.8-17.737 49.19-20.576 19.38-3.826 39.65-2.961 44.54-1.401l13.21 7.373 8.04 9.814 4.02 10.859.58 10.811c-.49 5.778-7.2 27.089-13.77 37.564-6.64 10.6-21.84 28.691-29.44 35.721-8.7 8.048-22.61 18.341-36.77 24.73-17.69 7.983-31.99 9.538-51.54 9.538-15.63 0-28.97-9.888-34.1-23.745Z" style="fill:#7b3f3a" transform="matrix(.05501 0 0 .05501 -13.061 -13.281)"/>
  <path d="M1067.81 823.576c3.34-.058 12-1.055 14.73-1.738 5.89-1.474 13.15-5.471 18.79-7.729 12.99-5.196 24.35-14.018 33.23-24.673 6.86-8.242 10.48-14.406 14.95-23.34 1.57-3.157 5.73-14.769 6.3-14.769.01 0 .15 9.072-.37 11.427-2.57 11.564-4.43 18.811-8.95 27.603-2.34 4.549-9.68 15.043-13.42 18.583-4.42 4.186-12.77 10.842-18.08 13.627-9.71 5.082-17.47 7.369-30.74 6.443-10.13-.707-14.61-5.434-16.44-5.434Z" style="fill:#7b3f3a;fill-opacity:.32" transform="matrix(.05501 0 0 .05501 -5.971 -23.708)"/>
  <path d="M1210.76 780.042c10.36 38.766-12.69 78.657-51.46 89.026-38.76 10.369-78.65-12.686-89.02-51.452-8.01-29.957-13.05-61.174-2.33-122.46 8.99-51.427 29.77-99.087 65.9-129.584 30.66-25.884 76.57-22.003 102.46 8.662 25.88 30.664 22 76.575-8.67 102.459-11.56 9.759-13.57 27.055-16.45 43.51-5.24 29.942-4.35 45.203-.43 59.839Z" style="fill:#5c5017" transform="matrix(.05501 0 0 .05501 -13.061 -13.281)"/>
  <path d="M1142.64 788.524c-12.62-.022-85.63 10.054-85.31 10.703.42.837 26.88 6.566 28.56 9.336 2.71 4.484-16.64 12.978-11.78 15.891 1.53.921 20.94-9.55 25.06-8.435 4.07 1.098-2.11 16.294-.11 16.628 2.31.385 16.9-10.405 20.64-9.658 3.31.663 6.12 8.965 9.68 9.474 4.59.655 6.15-7.801 10.49-8.422 3.73-.532 11.43 11.481 14.78 11.9 2.15.268 2.1-13.791 6.43-13.63 4.73.175 16.64 10.604 18.95 10.604 2.49 0-1.17-11.245 2.43-12.756 3.18-1.333 15.44 3.412 14.84 1.299-1.34-4.806-9.64-12.696-8.64-14.604 1.31-2.491 20.11-5.622 19.78-8.027-.33-2.478-44.11-10.265-65.8-10.303Z" style="fill:#678620" transform="matrix(.05501 0 0 .05501 -13.061 -13.281)"/>
  <path d="m1266.29 841.24-8.1 20.223-15.75 17.303-11.63 6.415-.18.209-14.74 10.877-18.05 7.165-17.81 2.192-4.38-.742-5.81 2.19-24.21 1.016-15.61-3.986-10.92.338-4.11-1.521-27.88 1.447-21.45-8.419-5.65-.145-23.31-9.002-15.46-12.313-10.19-13.36-4.45-11.094-14.299-18.29-6.818-21.373.069-22.729 8.425-24.094 20.073-22.756 15.49-8.773 16.89-4.808c13.52-2.433 83.22-11.417 96.34-11.394 27.86.049 81.03 10.412 91.78 14.79l16.28 8.998 15.41 15.046 9.72 17.178 4.55 17.372-2.34 30.384-11.88 21.656Zm-240.52-72.567 9.73-9.713c-3.78 3.083-7 6.337-9.73 9.713Zm1.97 47.186.82-5.34a60.894 60.894 0 0 0-.82 5.34Zm50.83 67.028-13.99-13.838c4.13 5.719 8.95 10.255 13.99 13.838Zm21.06 1.108-5.63-5.017a58.133 58.133 0 0 0 5.63 5.017Zm35.15 5.991-5.31-2.927c1.74 1.132 3.52 2.1 5.31 2.927Zm51.7-10.767a62.448 62.448 0 0 0 7.88-8.898l-7.88 8.898Zm-7.51 13.321.78-.207-5.5-.535c1.58.333 3.16.576 4.72.742Zm46.88-40.039c.8-2.235 1.49-4.57 2.05-7.007l-2.05 7.007Zm-9.5 20.992-.02.038a59.533 59.533 0 0 0 7.44-3.025l-7.42 2.987Zm36.28-36.951c.74-4.199 1.04-8.596.81-13.172l-.81 13.172Zm.99-61.819a67.692 67.692 0 0 0-4.07-6.241l4.07 6.241Zm-161.41 23.041c-2.89 5.212-5.18 11.175-6.66 17.99l6.66-17.99Zm36.92 71.612-6.01 5.671a59.899 59.899 0 0 0 6.01-5.671Zm-39.11-97.757c-5.29 3.899-10.15 8.814-14.46 14.839l14.46-14.839Zm81.75 59.543-1.34 11.375c.74-3.96 1.18-7.75 1.34-11.375Zm-1.91-59.038 14.08 13.86c-4.01-5.699-8.87-10.255-14.08-13.86Zm22.9 1.935 9.29 7.567c-3-2.999-6.14-5.492-9.29-7.567Zm5.98-24.871 9.52 1.199c-3.32-.7-6.51-1.068-9.52-1.199Z" style="fill:#678620" transform="matrix(.05501 0 0 .05501 -13.061 -13.281)"/>
  <path d="M527.449 1020.94a36.228 36.228 0 0 1-2.164-12.37c0-20.066 16.29-36.355 36.354-36.355l8.006.858 8.542 2.974 7.629 4.981 5.649 5.938 4.323 7.219 2.696 8.245.622 13.77c.047-.65.057-1.26.057-1.78 0-.85-.287-4.17-.287-4.17s8.127 32.82 18.366 69.62c47.594 171.07 167.204 576.27 174.951 595.65 2.251 5.63 4.747 12.17 7.905 18.43 1.873 3.71 2.946 8.19 6.347 9.89 4.145 2.07 10.503 4.03 13.989.22 1.14-1.24 1.053-3.24 1.133-5.6.68-20.05 17.513-35.78 37.566-35.1 20.053.68 35.781 17.51 35.101 37.57-.784 23.1-9.001 40.02-20.174 52.23-25.253 27.58-70.096 30.73-100.124 15.72-24.077-12.04-39.806-42.72-49.259-66.38-7.846-19.63-129.282-429.9-177.483-603.14-10.585-38.05-17.334-66.05-19.745-78.42Zm-.851-9.44.087-1.78c-.044.6-.073 1.19-.087 1.78Zm1.817 11.84c4.982 13.94 19.348 21.58 33.224 21.58-14.807 0-27.558-8.87-33.224-21.58Z" style="fill:#928268" transform="matrix(.05472 .00566 -.00566 .05472 8.758 -32.49)"/>
  <path d="M544.674 1015.1a18.06 18.06 0 0 1-1.212-6.53c0-10.033 8.145-18.178 18.177-18.178l4.146.443 4.394 1.53 3.918 2.558 2.91 3.06 2.248 3.757 1.434 4.39.286 8.78c.013-.18.011-.35.011-.49 0-.24-.034-1.15-.034-1.15s8.27 33.7 18.778 71.47c47.746 171.61 167.812 578.08 175.584 597.53 2.972 7.43 6.363 16.36 10.965 24.34 3.199 5.56 6.777 10.86 12.039 13.49 10.583 5.29 26.622 5.96 35.522-3.76 3.639-3.98 5.638-9.74 5.894-17.26.34-10.03 8.756-17.89 18.783-17.55 10.026.34 17.89 8.75 17.55 18.78-.608 17.91-6.753 31.11-15.413 40.57-19.8 21.63-55.048 23.51-78.591 11.74-9.344-4.67-17.124-12.34-23.405-21.63-7.436-11-12.759-24.37-17.102-35.23-7.821-19.57-128.801-428.57-176.85-601.27-12.17-43.75-19.421-73.31-20.032-79.39Zm11.202 10.71c1.713.6 3.622.94 5.763.94-2.014 0-3.952-.33-5.763-.94Z" style="fill:#7f6b4c" transform="matrix(.05478 .00502 -.00502 .05478 8.175 -32.32)"/>
  <path d="M521.29 836.35c8.553-.903 27.629-5.467 29.355-6.323.844 3.891 10.857 32.902 16.008 40.61 4.853 7.262 12.921 5.523 16.722 3.088 7.546-4.835 7.133-15.091 9.572-19.901 3.901-7.692 23.823-1.748 25.955 3.055 2.453 5.525.845 28.905-16.04 43.608-10.277 8.947-29.98 11.767-43.081 6.581-14.065-5.568-25.617-22.224-34.013-40.99-3.228-7.214-12.337-28.899-4.478-29.728Z" style="fill:#e9a367" transform="matrix(.09293 0 0 .08694 -9.251 -9.756)"/>
  <path d="M546.64 819.345a10.135 10.135 0 0 1 8.726.346c2.912 1.52 5.028 4.362 5.761 7.736.759 3.495 9.655 29.599 14.282 36.524.697 1.042 1.888.257 2.433-.092.931-.596 1.284-1.604 1.625-2.524.602-1.626.968-3.314 1.339-4.859.758-3.165 1.594-5.99 2.681-8.134l1.713-2.71 2.056-2.211 4.448-2.889c3.309-1.503 7.622-2.159 12.207-1.813 6.486.489 13.544 2.942 17.811 5.658l4.111 3.369 2.79 4.201c1.212 2.73 2.307 8.046 1.816 14.888-.857 11.954-6.208 29.881-20.781 42.57-12.798 11.143-37.299 14.907-53.613 8.45-16.272-6.441-30.271-25.103-39.985-46.814-2.679-5.988-8.415-20.51-8.635-28.946l.775-6.617.998-2.619 1.66-2.696 1.955-2.065 2.369-1.638 5.051-1.557c7.171-.757 26.407-5.558 26.407-5.558Zm-16.146 27.16c1.539 4.92 3.824 12.025 4.981 14.61 7.081 15.826 16.181 30.471 28.043 35.166 9.888 3.914 24.792 2.04 32.548-4.713 7.799-6.791 11.322-16.012 12.518-23.201.243-1.457.328-3.175.351-4.578l-7.427-1.686c-.356 1.587-.65 3.411-1.197 5.214-1.898 6.247-5.15 12.267-11.404 16.274-7.068 4.529-21.985 7.238-31.01-6.268-3.852-5.765-10.218-22.324-14.198-33.706-4.185 1.009-8.928 2.068-13.205 2.888Z" style="fill:#9f764c" transform="matrix(.09293 0 0 .08694 -9.251 -9.756)"/>
  <path d="M921.362 1616.63c8.326 9.58 21.745 16.41 39.431 12.43 16.998-3.82 24.518-17.4 48.347-14.96 18.69 1.92 38.08 16.29 43.99 47.53 4.71 24.95-10.56 53.75-39.48 64.2-32.499 11.74-65.807 13.65-111.872-14.55" style="fill:#fff4ec" transform="matrix(.05501 0 0 .05501 -13.295 -31.752)"/>
  <path d="M907.645 1628.56c-6.582-7.57-5.781-19.06 1.79-25.64 7.57-6.59 19.06-5.79 25.643 1.78 4.574 5.27 12.01 8.81 21.726 6.63 6.877-1.55 11.683-5.4 17.333-8.28 9.624-4.92 20.433-8.71 36.853-7.03 24.95 2.55 52.12 20.53 60 62.24 6.19 32.74-13.2 70.95-51.16 84.66-37.037 13.38-75.05 16-127.543-16.14-8.556-5.24-11.249-16.44-6.011-24.99 5.239-8.56 16.438-11.25 24.994-6.01 39.637 24.27 68.239 23.06 96.2 12.95 19.89-7.18 31.04-26.57 27.8-43.72-3.94-20.81-15.54-31.55-27.98-32.83-9.398-.96-14.851 2.2-20.19 5.16-6.879 3.81-13.683 7.51-22.318 9.45-25.656 5.78-45.058-4.34-57.137-18.23Z" style="fill:#8f705a" transform="matrix(.05501 0 0 .05501 -13.295 -31.752)"/>
  <path d="M395.028 147.305c2.169 1.773 9.399.313 15.881-1.114 5.89-1.297 9.988-3.483 14.491-7.692 1.672-1.563-7.539-39.605-23.109-34.777-14.462 4.485-11.686 39.967-7.263 43.583Z" style="fill:#eeb927" transform="matrix(.08697 0 0 .08697 -5.108 -4.99)"/>
  <path d="m380.472 165.11-4.775-5.155-3.129-5.71c-2.407-5.722-4.637-17.625-3.951-29.709.549-9.663 2.957-19.27 6.961-26.295l3.941-5.706 5.639-5.43 10.322-5.348 6.33-1.294 6.492.011 11.422 3.421 9.394 6.89c3.052 3.027 5.914 6.817 8.392 11.077 6.577 11.303 10.333 26.268 10.923 32.451l.018 6-1.259 5.655-2.452 4.99-3.636 4.341c-7.839 7.328-14.996 11.093-25.249 13.351-8.278 1.823-17.409 2.866-22.467 2.086l-6.901-1.97-6.015-3.656Z" style="fill:#9f764c" transform="matrix(.08697 0 0 .08697 -5.108 -4.99)"/>
  <path d="M1145.53 1638.65c-9.21 16.06-25.98 27.58-45.65 35.62-27.28 11.16-65.47 13.44-69.23 59.17-2.93 35.64 35.95 64.5 61.06 66.76 63.9 5.73 100.77-47.88 110.04-78.85" style="fill:#fff4ec" transform="matrix(.05571 0 0 .05571 -.927 -32.083)"/>
  <path d="M1129.96 1629.72c4.93-8.6 15.91-11.57 24.5-6.64 8.59 4.92 11.57 15.9 6.64 24.5-11.06 19.29-30.8 33.65-54.43 43.31-10.8 4.42-23.35 7.41-34.74 12.34-11.74 5.07-21.85 13-23.39 31.68-1.01 12.33 5.89 23.19 14.54 31.46 9.27 8.88 20.91 15.11 30.23 15.95 53.19 4.77 83.53-40.34 91.25-66.12 2.84-9.49 12.85-14.88 22.34-12.04 9.49 2.84 14.89 12.85 12.05 22.34-10.83 36.16-54.24 98.27-128.84 91.58-15.79-1.42-36.15-10.74-51.85-25.77-16.34-15.64-27.41-37.03-25.5-60.34 2.98-36.2 22.17-51.86 44.93-61.7 11.61-5.02 24.38-8.11 35.4-12.61 15.71-6.43 29.51-15.11 36.87-27.94Z" style="fill:#8f705a" transform="matrix(.05571 0 0 .05571 -.927 -32.083)"/>
  <g transform="matrix(.0689 .00145 -.00305 .06524 -2.774 -27.562)">
    <path d="M509.498 514.114c-25.416 4.547-123.593 67.233-166.608 105.133-58.581 51.615-111.18 113.64-147.278 180.926-28.504 53.129-42.834 84.488-60.298 155.272-25.555 103.585-23.533 256.765-15.735 257.905 17.137 2.51 59.501-47.88 129.875-63.66 76.341-17.11 143.532 7.77 157.02 3.67 6.239-1.9 48.304-312.659 65.475-419.2 11.839-73.461 30.762-220.046 37.549-220.046Z" style="fill:#e9a367"/>
    <clipPath id="b">
      <path d="M509.498 514.114c-25.416 4.547-123.593 67.233-166.608 105.133-58.581 51.615-111.18 113.64-147.278 180.926-28.504 53.129-42.834 84.488-60.298 155.272-25.555 103.585-23.533 256.765-15.735 257.905 17.137 2.51 59.501-47.88 129.875-63.66 76.341-17.11 143.532 7.77 157.02 3.67 6.239-1.9 48.304-312.659 65.475-419.2 11.839-73.461 30.762-220.046 37.549-220.046Z"/>
    </clipPath>
    <g clip-path="url(#b)">
      <path d="M399.485 152.15c-15.705 15.301-50.325 26.138-92.589 65.222-28.862 26.69-62.68 61.183-91.149 103.105-40.014 58.923-59.385 121.739-76.044 186.385-2.481 9.626-8.765 32.418-11.479 33.334-6.661 2.249-.486-146.937 68.388-235.275 86.991-111.576 183.967-146.468 202.873-152.771Z" style="fill:#cd8d5b" transform="matrix(1.57812 -.1206 .155 1.66857 -164.049 327.485)"/>
    </g>
    <path d="m506.732 499.187 2.392-.389c7.545 0 13.98 6.102 14.804 14.037.446 4.291-.83 8.345-3.267 11.373-8.079 25.325-23.939 147.999-34.398 212.896-15.487 96.09-51.211 357.946-62.753 410.736-1.51 6.91-3.082 11.27-3.985 12.92l-3.731 4.62-4.974 2.71c-5.032 1.52-16.113.75-31.67-1.82-28.024-4.64-75.026-13.09-126.331-1.59-47.247 10.59-81.197 37.73-103.033 52.07-13.634 8.95-24.651 12.82-31.836 11.77l-5.779-2.13-4.651-4.34-2.642-4.88c-.539-1.38-1.098-3.21-1.589-5.46-5.947-27.34-5.686-164.59 17.97-260.478 17.866-72.417 32.513-104.506 61.674-158.861 36.898-68.776 90.605-132.225 150.484-184.983 30.694-27.045 88.922-66.505 129.996-89.316 19.078-10.596 34.877-17.553 43.301-19.06l.018.175Zm-19.397 40.704a531.831 531.831 0 0 0-9.884 5.367c-39.509 21.942-95.562 59.833-125.087 85.847-57.285 50.473-108.774 111.074-144.074 176.87-27.845 51.903-41.86 82.532-58.92 151.683-19.841 80.422-22.902 191.582-19.405 233.552 4.231-2.62 9.009-5.91 14.353-9.56 23.748-16.23 57.517-39.02 101.771-48.94 55.573-12.46 106.481-3.72 136.837 1.3 4.342.72 8.959 1.31 12.646 1.73 1.186-5.62 2.769-13.47 4.175-21.6 14.506-83.89 44.158-299.73 57.888-384.923 8.549-53.042 20.87-143.746 29.7-191.326Z" style="fill:#9f764c"/>
  </g>
  <g transform="matrix(-.06167 .0305 .03087 .0577 47.014 -38.64)">
    <path d="M520.697 511.278c-1.295-1.637-40.194 14.517-65.825 29.439-38.552 22.444-84.516 52.027-137.219 102.112-88.905 84.49-136.852 159.57-172.111 242.045-46.668 109.164-69.009 283.086-62.713 281.056 27.383-8.84 65.798-32.62 141.701-33.44 87.291-.95 154.259 31.35 171.021 38.87 4.96 2.22 40.341-295.03 61.489-405.127 10.269-53.46 61.117-254.955 63.657-254.955Z" style="fill:#f2ce1b"/>
    <clipPath id="c">
      <path d="M520.697 511.278c-1.295-1.637-40.194 14.517-65.825 29.439-38.552 22.444-84.516 52.027-137.219 102.112-88.905 84.49-136.852 159.57-172.111 242.045-46.668 109.164-69.009 283.086-62.713 281.056 27.383-8.84 65.798-32.62 141.701-33.44 87.291-.95 154.259 31.35 171.021 38.87 4.96 2.22 40.341-295.03 61.489-405.127 10.269-53.46 61.117-254.955 63.657-254.955Z"/>
    </clipPath>
    <g clip-path="url(#c)">
      <path d="M389.882 154.418c-14.836 12.106-38.504 23.858-78.561 64.583-27.567 28.026-53.369 59.005-84.376 106.986-28.43 43.993-81.398 127.775-92.415 178.848-6.782 31.442-6.753 43.313-7.249 39.011-3.064-14.67 8.768-152.098 77.642-240.436 86.992-111.576 166.052-142.69 184.959-148.992Z" style="fill:#e3c46e" transform="matrix(.59381 1.56828 1.47347 -.5744 -368.076 632.403)"/>
    </g>
    <path d="M533.366 519.21c.23-.422.442-.858.634-1.309 2.26-5.298 1.387-11.586-2.243-16.176l-3.187-3.04-3.977-2.037-4.415-.771-4.211.422c-7.939 1.654-43.954 16.725-68.449 30.986-39.281 22.868-86.106 53.022-139.806 104.055-90.671 86.167-139.509 162.785-175.468 246.898-42.973 100.521-65.553 254.772-64.99 283.092.05 2.53.272 4.5.531 5.88l1.15 3.94 1.684 3.15 2.288 2.72 2.878 2.17 3.855 1.6 4.198.43 3.661-.66c26.612-8.59 63.878-31.99 137.645-32.79 84.262-.91 148.887 30.37 165.068 37.63l4.69 1.21 4.583-.37 4.46-2.03 4.065-4.22c.846-1.32 2.675-5.59 4.132-12.85 9.541-47.54 40.119-298.303 59.158-397.423 9.181-47.797 51.014-214.718 61.128-247.624.32-1.042.702-2.187.938-2.883Zm-35.621 17.489c-15.8 58.759-47.127 185.245-54.965 226.049-17.995 93.685-46.295 322.932-57.377 387.702-29.205-12.42-88.482-34.04-161.488-33.26-61.849.67-99.532 16-126.52 26.85 4.848-49.09 26.084-169.814 61.446-252.531 34.558-80.837 81.613-154.378 168.753-237.19 51.707-49.138 96.809-78.15 134.632-100.169 10.035-5.843 23.724-12.255 35.519-17.451Z" style="fill:#9f764c"/>
  </g>
  <path d="M493.452 516.194c3.9-6.465 16.227-10.52 19.806-5.237 28.509 42.087 95.965 147.159 139.77 242.848 42.289 92.377 66.45 199.823 72.129 243.149 6.688 51.016 6.807 105.346 2.887 104.686-11.913-2-118.72-64.43-202.959-61.96-26.894.79-65.334-5.27-103.172 8.39-48.203 17.39-93.963 55.29-97.704 55.44-7.68.3-1.069-138.61 43.472-285.119 26.692-87.8 99.028-257.865 125.771-302.197Z" style="fill:#d4c421" transform="matrix(.09072 -.0175 .0124 .06434 -21.226 -17.04)"/>
  <path d="M485.207 506.306c3.743-6.204 12.09-11.803 19.604-12.839 3.407-.469 6.609-.069 9.193 1.007l4.239 2.675 2.843 3.268c28.772 42.475 96.827 148.541 141.036 245.112 43.239 94.452 67.873 204.353 73.679 248.652 4.369 33.329 6.01 68.019 5.627 88.959-.211 11.57-1.333 19.8-2.447 23.33l-2.167 4.82-3.594 3.92-3.06 1.44-3.399.15c-3.793-.64-16.708-6.8-35.265-15.39-39.937-18.49-108.458-48.17-166.186-46.47-26.251.77-63.78-5.42-100.713 7.91-37.713 13.61-73.872 40.14-88.71 50.25-6.047 4.12-10.182 5.62-11.375 5.66l-3.607-.65-3.062-1.97-2.478-2.96-1.981-4.05c-1.217-3.29-2.488-10.28-2.699-20.66-.833-41.04 10.572-156.114 47.047-276.092 27.04-88.941 100.384-261.162 127.475-306.072ZM332.64 1081.4c17.799-12.27 51.57-35.48 86.589-48.12 38.744-13.98 78.093-8.05 105.631-8.86 73.587-2.16 164.314 44.6 194.919 58.36l.008-.43c.355-19.45-1.216-51.66-5.273-82.622-5.552-42.354-29.241-147.345-70.58-237.647-42.58-93.011-107.734-194.946-136.858-238.148-.835.124-2.026.347-2.811.688-.956.415-2.462 1.543-2.748 1.76-26.539 44.218-97.602 211.561-123.887 298.022-27.53 90.552-40.321 178.137-44.111 230.487-.685 9.46-.873 19.01-.879 26.51Z" style="fill:#9f764c" transform="matrix(.09072 -.0175 .0124 .06434 -21.226 -17.04)"/>
  <path d="M267.38 512.569c-3.592 3.554-9.393 3.523-12.947-.068-3.554-3.592-3.524-9.393.068-12.947 18.87-18.673 103.991-55.015 159.126-64.303 70.304-11.845 152.165-4.199 188.914 11.674 4.638 2.004 6.777 7.396 4.774 12.035-2.004 4.639-7.396 6.778-12.035 4.774-34.737-15.004-112.155-21.624-178.611-10.428-51.6 8.693-131.629 41.787-149.289 59.263Z" style="fill:#9f764c" transform="matrix(.10909 -.00558 .00558 .10909 -9.457 -5.442)"/>
  <path d="M88.953 18.3c-1.773 3.528-1.699 16.741.519 20.94.039.072.125.133.121.215-.024.544-.178 1.078-.202 1.622-.536-.13-1.106-.078-1.642-.208-.591-.144-4.347-6.026-5.952-16.625-1.066-7.036-.066-9.514 1.25-10.864 2.464-2.53 3.053-1.473 6.053.39.02.012.688 2.884.681 2.929-.098.599-.45 1.105-.828 1.601Z" style="fill:#9f764c" transform="matrix(.3797 0 0 .3797 -1.486 .686)"/>
  <path d="M89.403 17.182c-.018.07-.032.119-.04.145.034-.091.046-.139.04-.145Zm0 0c.115-.451.374-1.741-.125-2.887-.018-.041-2.143-2.1-2.167-2.1-3.712.059-4.726-.28-5.384 3.376-.855 4.748-.648 18.661 5.827 24.951.11.106.19.275.339.31.897.21.921-.015 1.823.196-.085-.599-.008-1.214-.093-1.813-.007-.048-3.513-3.913-2.118-14.567.642-4.906 1.847-7.512 1.898-7.466Zm-.04.145c-.01.028-.008.027 0 0Z" style="fill:#9f764c" transform="matrix(-.15085 .34845 .34845 .15085 39.905 -25.323)"/>
  <path d="M89.149 40.769c-.353-.104-.742-.04-1.095-.144-.588-.173-4.023-5.992-5.249-16.428-.732-6.236.143-8.208.419-8.786 1.197-2.511 2.023-1.131 4.815-.845l-1.543 2.314 1.322.892c-1.69 3.355-1.275 17.313 1.332 21.706.044.075.138.134.138.22 0 .36-.139.711-.139 1.071Z" style="fill:#9f764c" transform="matrix(.29433 .23988 -.24239 .2974 8.62 -17.819)"/>
  <path d="m.035.005.001-.048.002-.085.002-.108.004-.118a3.854 3.854 0 0 1 .008-.209l.005-.064a.883.883 0 0 1 .197-.018.32.32 0 0 1 .116.019.155.155 0 0 1 .077.057.173.173 0 0 1 .028.102c0 .043-.008.08-.023.111a.158.158 0 0 1-.069.071.237.237 0 0 1-.116.025L.234-.262C.221-.264.211-.265.204-.268l-.001.049a2.355 2.355 0 0 0-.004.16L.197.009H.164L.118.008.071.006.035.005Zm.166-.403a.244.244 0 0 0 .051.005.112.112 0 0 0 .045-.008.07.07 0 0 0 .032-.024.064.064 0 0 0 .013-.042c0-.024-.007-.041-.022-.05A.105.105 0 0 0 .263-.53l-.029.001a.371.371 0 0 0-.033.004v.127Z" style="fill:#92704a;fill-rule:nonzero" transform="matrix(19.9672 -.00105 .00115 21.8092 1.576 101.548)"/>
  <path d="M.181.008.147.007.1.005.051.004.011.002a2.83 2.83 0 0 1 .016-.079l.022-.107.028-.122.03-.127a4.104 4.104 0 0 1 .057-.22l.1-.011a1.54 1.54 0 0 1 .149-.002l.052.004.02.101.02.135c.007.051.013.112.02.181l.021.243-.047.005-.064.003-.059.002-.002-.033-.002-.04-.001-.042-.002-.042v-.037l-.035.001-.037.002-.035.003a.912.912 0 0 0-.029.003l-.018.002L.2-.106l-.011.064-.008.05Zm.054-.322.036-.004.051-.004.043-.002-.002-.04-.004-.064a9.73 9.73 0 0 0-.006-.104l-.025.001-.031.002-.021.002-.008.04-.011.058-.012.061-.01.054Z" style="fill:#92704a;fill-rule:nonzero" transform="matrix(19.9672 -.00105 .00115 21.8092 9.554 101.548)"/>
  <path d="M.065.013.058-.125a24.458 24.458 0 0 1-.009-.174L.04-.483.032-.652l.05-.003.066-.005.069-.003.061-.001c.026 0 .051.002.077.007a.23.23 0 0 1 .071.025.134.134 0 0 1 .052.051c.013.022.02.051.02.086a.187.187 0 0 1-.027.097.154.154 0 0 1-.07.066.627.627 0 0 1 .026.052c.009.021.019.042.028.066l.028.069.023.062.015.047a.181.181 0 0 1-.039.017.73.73 0 0 1-.05.014L.388.006.365.01a.455.455 0 0 0-.012-.053l-.02-.071a1.598 1.598 0 0 0-.043-.14.479.479 0 0 0-.015-.043l-.023.005-.022.003-.018.001.004.038.004.061a1.536 1.536 0 0 1 .009.139l.002.052a.42.42 0 0 1-.108.01L.065.013Zm.133-.421L.23-.409l.039-.005A.18.18 0 0 0 .32-.43a.066.066 0 0 0 .029-.025.069.069 0 0 0 .009-.036c0-.018-.005-.031-.013-.039a.06.06 0 0 0-.034-.016.389.389 0 0 0-.051-.003H.241l-.022.002-.02.002-.013.001.005.053.003.033.004.05Z" style="fill:#92704a;fill-rule:nonzero" transform="matrix(19.9672 -.00105 .00115 21.8092 21.12 101.547)"/>
  <path d="M.181.008.147.007.1.005.051.004.011.002a2.83 2.83 0 0 1 .016-.079l.022-.107.028-.122.03-.127a4.104 4.104 0 0 1 .057-.22l.1-.011a1.54 1.54 0 0 1 .149-.002l.052.004.02.101.02.135c.007.051.013.112.02.181l.021.243-.047.005-.064.003-.059.002-.002-.033-.002-.04-.001-.042-.002-.042v-.037l-.035.001-.037.002-.035.003a.912.912 0 0 0-.029.003l-.018.002L.2-.106l-.011.064-.008.05Zm.054-.322.036-.004.051-.004.043-.002-.002-.04-.004-.064a9.73 9.73 0 0 0-.006-.104l-.025.001-.031.002-.021.002-.008.04-.011.058-.012.061-.01.054Z" style="fill:#92704a;fill-rule:nonzero" transform="matrix(19.9672 -.00105 .00115 21.8092 32.043 101.547)"/>
  <path d="m.035.005.001-.048.002-.085.002-.108.004-.118a3.854 3.854 0 0 1 .008-.209l.005-.064a.883.883 0 0 1 .197-.018.32.32 0 0 1 .116.019.155.155 0 0 1 .077.057.173.173 0 0 1 .028.102c0 .043-.008.08-.023.111a.158.158 0 0 1-.069.071.237.237 0 0 1-.116.025L.234-.262C.221-.264.211-.265.204-.268l-.001.049a2.355 2.355 0 0 0-.004.16L.197.009H.164L.118.008.071.006.035.005Zm.166-.403a.244.244 0 0 0 .051.005.112.112 0 0 0 .045-.008.07.07 0 0 0 .032-.024.064.064 0 0 0 .013-.042c0-.024-.007-.041-.022-.05A.105.105 0 0 0 .263-.53l-.029.001a.371.371 0 0 0-.033.004v.127Z" style="fill:#92704a;fill-rule:nonzero" transform="matrix(19.9672 -.00105 .00115 21.8092 43.608 101.546)"/>
  <path d="M.049-.012a3.29 3.29 0 0 0 .006-.181l.001-.122L.055-.44a27.422 27.422 0 0 0-.006-.203l.045-.004A.69.69 0 0 1 .159-.65l.038.001a.33.33 0 0 1 .029.003v.066l-.001.09a31.26 31.26 0 0 0-.003.104l-.005.111-.003.057L.21-.17l.078-.004.077-.003.078-.001.004.041.002.06.001.055C.41-.017.369-.013.329-.01c-.041.002-.08.004-.116.004L.125-.007a1.385 1.385 0 0 1-.076-.005Z" style="fill:#92704a;fill-rule:nonzero" transform="matrix(19.9672 -.00105 .00115 21.8092 53.692 101.545)"/>
  <path d="M.297.016a.224.224 0 0 1-.14-.04.233.233 0 0 1-.075-.114A.566.566 0 0 1 .053-.3a3.47 3.47 0 0 1-.006-.216v-.038l.001-.041.002-.04.001-.036a.596.596 0 0 1 .042-.004l.04-.001.05.001.045.004c-.003.025-.004.052-.006.082L.218-.5l-.001.089a1.18 1.18 0 0 0 .012.155.134.134 0 0 0 .029.061.066.066 0 0 0 .049.019.065.065 0 0 0 .052-.022.15.15 0 0 0 .026-.064.534.534 0 0 0 .007-.095v-.052L.39-.478.387-.552a7.994 7.994 0 0 0-.003-.066L.38-.664l.046.001.052.004a.474.474 0 0 1 .07.008c.002.018.005.037.006.058l.005.065.001.067c0 .066-.003.129-.01.186a.545.545 0 0 1-.039.152.239.239 0 0 1-.079.102.234.234 0 0 1-.135.037Z" style="fill:#92704a;fill-rule:nonzero" transform="matrix(19.9672 -.00105 .00115 21.8092 63.286 101.545)"/>
  <path d="M.268.011a.367.367 0 0 1-.113-.017.166.166 0 0 1-.081-.054.149.149 0 0 1-.03-.098c0-.04.011-.072.033-.098a.2.2 0 0 1 .09-.059.429.429 0 0 1 .199-.014 1.005 1.005 0 0 1 .091.021.225.225 0 0 0-.006-.036.152.152 0 0 0-.012-.032.17.17 0 0 0-.06-.062.191.191 0 0 0-.099-.025.183.183 0 0 0-.168.091L.045-.417a.22.22 0 0 1 .056-.058.329.329 0 0 1 .321-.022.204.204 0 0 1 .1.144.433.433 0 0 1 .009.081l.001.091a.776.776 0 0 0 .004.061c.001.02.005.034.01.04a.029.029 0 0 0 .021.008.031.031 0 0 0 .028-.016c.008-.01.012-.025.013-.045l.047.038c-.002.032-.011.056-.029.072a.093.093 0 0 1-.062.024.088.088 0 0 1-.047-.011.084.084 0 0 1-.044-.062.126.126 0 0 1-.041.037.3.3 0 0 1-.164.046Zm.013-.066a.226.226 0 0 0 .13-.04.193.193 0 0 0 .048-.041.659.659 0 0 1 .002-.113.733.733 0 0 0-.162-.024.266.266 0 0 0-.088.014.156.156 0 0 0-.063.038.086.086 0 0 0-.023.059c0 .028.007.05.021.066a.104.104 0 0 0 .055.032.32.32 0 0 0 .08.009Z" style="fill:#d4c421;fill-rule:nonzero;stroke:#d4c421;stroke-width:.11px;stroke-linecap:butt;stroke-miterlimit:2" transform="matrix(.3565 -8.58382 9.3757 .38939 81.605 101.161)"/>
  <path d="M.127-.442a.17.17 0 0 1 .046-.047.253.253 0 0 1 .068-.033.218.218 0 0 1 .074-.013.26.26 0 0 1 .048.004c.017.003.03.007.039.012l-.016.081a.555.555 0 0 0-.032-.011.185.185 0 0 0-.112.006.249.249 0 0 0-.058.031.186.186 0 0 0-.043.046c.005.025.009.055.014.09.004.035.009.07.012.107l.009.1.004.068a.498.498 0 0 1-.043.002L.091 0 .089-.099.082-.203a1.315 1.315 0 0 0-.011-.106 1.5 1.5 0 0 0-.037-.205l.024-.007.028-.006.018-.003.014.045.009.043Z" style="fill:#d4c421;fill-rule:nonzero;stroke:#d4c421;stroke-width:.11px;stroke-linecap:butt;stroke-miterlimit:2" transform="matrix(.3565 -8.58382 9.3757 .38939 81.836 95.603)"/>
  <path d="M.422-.102a.23.23 0 0 1-.021.054.113.113 0 0 1-.108.067.134.134 0 0 1-.085-.024.137.137 0 0 1-.044-.064.286.286 0 0 1-.012-.085v-.058l.002-.072.002-.073.003-.063.001-.04a1.2 1.2 0 0 0-.134.02.178.178 0 0 1-.004-.026L.02-.492.019-.509l.067-.009c.025-.004.051-.006.075-.008l.001-.052v-.057A.619.619 0 0 0 .16-.678L.158-.713l.076-.003a1.569 1.569 0 0 1 .004.112v.073l.037-.002.035-.001h.048a.562.562 0 0 0 .06.002.211.211 0 0 1 .002.03l.001.032-.035-.001a.58.58 0 0 0-.059 0L.281-.47a1.893 1.893 0 0 0-.044.003l-.002.041-.002.063-.003.07-.001.066-.001.047c0 .021.001.041.004.061a.103.103 0 0 0 .019.048c.011.013.027.019.049.019a.045.045 0 0 0 .037-.017.107.107 0 0 0 .02-.038.339.339 0 0 0 .011-.037l.011.01.017.013a.25.25 0 0 1 .026.019Z" style="fill:#d4c421;fill-rule:nonzero;stroke:#d4c421;stroke-width:.11px;stroke-linecap:butt;stroke-miterlimit:2" transform="matrix(.3565 -8.58382 9.3757 .38939 81.998 91.694)"/>
</svg>