<svg xmlns="http://www.w3.org/2000/svg" xml:space="preserve" style="fill-rule:evenodd;clip-rule:evenodd;stroke-linecap:round;stroke-linejoin:round;stroke-miterlimit:1.62791" viewBox="0 0 440 172"><path d="M0 0h1080v1350H0z" style="fill:#fff" transform="matrix(.41478 0 0 .25322 -2.988 -80.05)"/><g transform="matrix(.11938 0 0 .11938 -32.158 -36.827)"><path d="M1044.42 1729.43c-72.985-1.84-106.523-91.13-125.912-150.81-40.385-124.32-29.993-279.82-8.648-364.24 21.184-83.79 40.18-203.27 88.91-269.796 32.69-44.629 47.55-57.548 165.29-61.718 130.26-4.614 273.87 28.562 289.02 208.374 3.9 46.28-9.89 126.52-8.87 159.42.93 29.95.38 122.99 4.75 231.18 5.15 127.22-12.95 213.58-50.44 244.23-28.77 23.52-92.36 21.05-120.87-33.38-20.75-39.61-13.36-82.84-83.8-79.45-81.05 3.9-39.42 118.95-149.43 116.19Z" style="fill:#fff4ec"/><clipPath id="a"><path d="M1044.42 1729.43c-72.985-1.84-106.523-91.13-125.912-150.81-40.385-124.32-29.993-279.82-8.648-364.24 21.184-83.79 40.18-203.27 88.91-269.796 32.69-44.629 47.55-57.548 165.29-61.718 130.26-4.614 273.87 28.562 289.02 208.374 3.9 46.28-9.89 126.52-8.87 159.42.93 29.95.38 122.99 4.75 231.18 5.15 127.22-12.95 213.58-50.44 244.23-28.77 23.52-92.36 21.05-120.87-33.38-20.75-39.61-13.36-82.84-83.8-79.45-81.05 3.9-39.42 118.95-149.43 116.19Z"/></clipPath><g clip-path="url(#a)"><path d="M987.779 977.545c-25.719 20.451-44.038 143.105-5.097 184.395 31.838 33.76 79.208 49.51 153.758 55.25 80.31 6.18 104.78 15.8 143.82-6.99 35.91-20.97 82.11-149.35 25.52-221.349-24.36-30.985-85.62-25.325-149.78-28.216-66.93-3.017-113.02-26.986-168.221 16.91Z" style="fill:#ffe4d5" transform="matrix(1.0322 0 0 .94799 12.698 66.781)"/><path d="M985.66 974.386c33.97-27.015 64.56-29.065 98.44-25.638 21.97 2.221 45.34 6.775 72.05 7.979 38.66 1.742 76.27.419 105.46 5.782 20.33 3.737 36.67 10.791 46.9 23.799 34.8 44.282 31.95 109.332 15.93 158.952-10.78 33.41-27.61 59.7-42.48 68.38-20.13 11.75-36.5 15.17-58.18 14.83-21.09-.33-47.34-4.28-87.59-7.38-75.69-5.83-123.69-22.07-156.015-56.35-9.797-10.39-16.226-25.64-19.831-43.2-5.255-25.59-4.558-56.11-.222-82.82 2.904-17.9 7.443-34.09 12.866-45.999 3.843-8.435 8.195-14.775 12.672-18.335Zm4.237 6.317c-3.753 2.985-7.251 8.423-10.473 15.494-5.172 11.353-9.458 26.813-12.227 43.883-4.176 25.73-4.902 55.11.158 79.76 3.273 15.93 8.939 29.87 17.833 39.3 31.362 33.25 78.082 48.49 151.512 54.15 40.06 3.08 66.19 7.03 87.18 7.36 20.38.31 35.77-2.86 54.68-13.9 13.86-8.09 29.05-32.94 39.11-64.08 15.24-47.21 18.49-109.15-14.62-151.276-9.26-11.78-24.22-17.787-42.64-21.171-28.94-5.317-66.23-3.953-104.56-5.68-26.84-1.21-50.33-5.774-72.41-8.006-32.18-3.255-61.27-1.492-93.543 24.166Z" style="fill:#8f705a" transform="matrix(1.0322 0 0 .94799 12.698 66.781)"/><g transform="rotate(3.421 14894.476 -1609.55) scale(1.43603)"><ellipse cx="928.318" cy="1356.08" rx="8.184" ry="4.272" style="fill:#e7a468"/><ellipse cx="928.318" cy="1356.08" rx="8.184" ry="4.272" style="fill:#e7a468" transform="matrix(.84493 0 0 .96604 123.655 52.681)"/><ellipse cx="928.318" cy="1356.08" rx="8.184" ry="4.272" style="fill:#e7a468" transform="matrix(.71391 0 0 .93324 266.984 105.693)"/></g><g transform="scale(-1.4439 1.4439) rotate(-9.594 -3328.1 11786.948)"><ellipse cx="928.318" cy="1356.08" rx="8.184" ry="4.272" style="fill:#e7a468"/><ellipse cx="928.318" cy="1356.08" rx="8.184" ry="4.272" style="fill:#e7a468" transform="matrix(.84493 0 0 .96604 123.655 52.681)"/><ellipse cx="928.318" cy="1356.08" rx="8.184" ry="4.272" style="fill:#e7a468" transform="matrix(.71391 0 0 .93324 266.984 105.693)"/></g><g transform="matrix(6.44134 .66505 -.74634 7.22866 577.037 -252.494)"><ellipse cx="102.062" cy="171.032" rx="9.701" ry="6.365" style="fill:#fff"/><clipPath id="b"><ellipse cx="102.062" cy="171.032" rx="9.701" ry="6.365"/></clipPath><g clip-path="url(#b)"><ellipse cx="154.951" cy="153.085" rx="2.421" ry="2.778" style="fill:#3f7c9c;stroke:#3f7c9c;stroke-width:3.12px" transform="matrix(.55773 -.05758 .03775 .36563 12.102 121.417)"/><path d="M97.249 170.302c1.545 3.151 10.552 6.047 14.114 1.703" style="fill:none;stroke:#f0ece9;stroke-width:3.18px" transform="matrix(1.41659 -.1113 .14626 1.07799 -70.77 .482)"/></g><ellipse cx="102.062" cy="171.032" rx="9.701" ry="6.365" style="fill:none;stroke:#8f705a;stroke-width:.61px"/></g><g transform="matrix(6.44134 .66505 -.77136 7.47098 760.709 -272.207)"><ellipse cx="102.062" cy="171.032" rx="9.701" ry="6.365" style="fill:#fff"/><clipPath id="c"><ellipse cx="102.062" cy="171.032" rx="9.701" ry="6.365"/></clipPath><g clip-path="url(#c)"><ellipse cx="154.951" cy="153.085" rx="2.421" ry="2.778" style="fill:#3f7c9c;stroke:#3f7c9c;stroke-width:3.83px" transform="matrix(.42708 -.0441 .03312 .32082 33.58 125.562)"/><path d="M97.249 170.302c1.545 3.151 10.552 6.047 14.114 1.703" style="fill:none;stroke:#f0ece9;stroke-width:3.14px" transform="matrix(1.41659 -.1113 .14626 1.07799 -70.77 .482)"/></g><ellipse cx="102.062" cy="171.032" rx="9.701" ry="6.365" style="fill:none;stroke:#8f705a;stroke-width:.6px"/></g></g><path d="M1044.21 1737.8c-31.7-.8-56.665-16.56-76.417-39.61-27.989-32.67-45.318-80.25-57.251-116.99-40.9-125.9-30.42-283.38-8.803-368.88 21.421-84.72 40.999-205.42 90.273-272.686 13.848-18.904 24.818-32.297 40.808-42.012 23.38-14.21 58-20.544 130.95-23.127 80.23-2.842 165.27 8.748 223.93 57.972 39.55 33.19 67.43 83.393 73.73 158.063 3.91 46.41-9.87 126.88-8.85 159.87.93 29.94.38 122.95 4.75 231.1 3.13 77.47-2.33 140-15.34 184.35-9.13 31.14-22.14 53.6-38.17 66.7-31.75 25.96-102.13 24.08-133.59-35.97-6.41-12.24-10.25-24.81-14.4-36.32-4.13-11.5-8.37-21.93-17.3-29.05-8.96-7.15-22.46-10.65-44.28-9.6-20.9 1-32.3 10.61-40.58 23.5-6.23 9.69-10.86 21.05-16.08 32.26-8.79 18.86-19.27 37.17-38.94 48.65-13.15 7.66-30.47 12.38-54.44 11.78Zm.42-16.75c18.1.46 31.73-2.43 42.3-7.73 25.19-12.63 32.93-38.3 43.43-60.3 12.02-25.2 26.74-46.4 63.09-48.14 23.36-1.13 38.93 2.71 49.97 9.37 11.54 6.95 18.45 17.06 23.72 29.01 6.01 13.63 9.73 29.88 17.93 45.55 25.57 48.8 82.35 51.86 108.15 30.77 13.96-11.42 24.74-31.3 32.69-58.44 12.63-43.05 17.72-103.77 14.68-178.97-4.37-108.22-3.82-201.29-4.75-231.25-1.02-32.81 12.78-112.83 8.89-158.98-5.83-69.17-31.17-115.897-67.8-146.64-55.62-46.676-136.5-56.758-212.57-54.063-68.34 2.42-100.94 7.389-122.84 20.701-14.21 8.634-23.69 20.797-35.99 37.596-48.187 65.776-66.603 184.046-87.549 266.896-21.073 83.35-31.377 236.87 8.493 359.6 9.488 29.2 22.364 65.68 41.869 95.05 18.378 27.67 42.637 49.13 76.287 49.97Z" style="fill:#8f705a"/></g><path d="M1180.68 618.772c-2.74-.072-8.7-8.534-9.76-10.995-3.09-7.225-3.76-22.443 2.49-35.931 12.08-26.101 41.5-40.909 70.78-40.243 18.93.431 38.75 8.889 39.13 10.455.75 3.005-4.19 3.682-10.1 4.722-7.16 1.262-29.1 6.884-31.67 7.913-20.54 8.216-38.26 21.979-50.89 40.219-3.02 4.353-9.98 22.786-9.98 23.86Z" style="fill:#a85f53" transform="matrix(.11938 0 0 .11938 -29.67 -36.488)"/><path d="M1196.99 622.591a16.716 16.716 0 0 1-4.62 8.18 16.765 16.765 0 0 1-12.13 4.748l-6.67-1.435-5.08-2.977c-4.92-3.795-11.56-13.457-12.97-16.73-4.26-9.959-5.92-30.978 2.68-49.567 14.8-31.983 50.49-50.772 86.38-49.955 21.13.481 43.01 9.612 47.55 12.734l4.32 4.006 3.14 6.449.55 5.179-1.1 5.739-2.03 4.025-3.76 4.141c-2.94 2.426-9.38 4.786-17.12 6.151-6.41 1.129-26.06 6.048-28.36 6.968-17.48 6.993-32.59 18.676-43.34 34.201-1.99 2.88-6.76 16.211-7.44 18.143Z" style="fill:#7b3f3a" transform="matrix(.11938 0 0 .11938 -29.67 -36.488)"/><path d="M1180.68 618.772c-2.74-.072-8.7-8.534-9.76-10.995-3.09-7.225-3.76-22.443 2.49-35.931 12.08-26.101 41.5-40.909 70.78-40.243 18.93.431 38.75 8.889 39.13 10.455.75 3.005-4.19 3.682-10.1 4.722-7.16 1.262-29.1 6.884-31.67 7.913-20.54 8.216-38.26 21.979-50.89 40.219-3.02 4.353-9.98 22.786-9.98 23.86Z" style="fill:#a85f53" transform="matrix(.0335 -.1146 -.11459 -.0335 143.053 193.896)"/><path d="M1196.99 622.591c.68-1.932 5.45-15.263 7.44-18.143 10.75-15.525 25.86-27.208 43.34-34.201 2.3-.92 21.95-5.839 28.36-6.968 7.74-1.365 14.18-3.725 17.12-6.151l3.76-4.141 2.03-4.025 1.1-5.739-.55-5.179-3.14-6.449-4.32-4.006c-4.54-3.122-26.42-12.253-47.55-12.734-35.89-.817-71.58 17.972-86.38 49.955-8.6 18.589-6.94 39.608-2.68 49.567 1.41 3.273 8.05 12.935 12.97 16.73l5.08 2.977 6.67 1.435c4.52.117 8.89-1.595 12.13-4.748a16.716 16.716 0 0 0 4.62-8.18Z" style="fill:#7b3f3a" transform="matrix(.0335 -.1146 -.11459 -.0335 143.053 193.896)"/><path d="M1064.34 675.044c-3.9-.073-6.39 15.061-7.67 34.43-.95 14.25-6.5 26.883-6.5 36.555 0 8.878 7.21 16.086 16.09 16.086 8.87 0 16.08-7.208 16.08-16.086 0-22.819-12.64-70.885-18-70.985Z" style="fill:#7a6d1f;stroke:#5c5017;stroke-width:33.51px;stroke-miterlimit:1.5" transform="matrix(-.02524 .11669 -.11669 -.02524 211.812 -56.914)"/><path d="M1028.66 873.649c.83-.321 12.54.862 13.66.986 7.82.87 15.23 1.631 23.13 1.946 8.34.332 15.82-.028 23.26-1.669 4.24-.937 10.54-4.577 10.55-3.977 0 1.537-1.6 8.155-5.94 10.504-3.54 1.914-9.23 1.877-15.84 1.705-4.84-.126-20.38-2.526-23.07-2.962-2.3-.373-13.49-2.572-17.07-3.615-.81-.237-9.51-2.596-8.68-2.918Z" style="fill:#5c5017;fill-opacity:.34" transform="matrix(-.11782 -.01926 -.01926 .11782 242.689 -32.958)"/><path d="M1059 669.964c-3.9-.072-1.61 21.47-2.89 40.839-.94 14.249-5.94 25.554-5.94 35.226 0 8.878 7.21 16.086 16.09 16.086 8.87 0 16.08-7.208 16.08-16.086 0-22.819-17.98-75.964-23.34-76.065Z" style="fill:#7a6d1f;stroke:#5c5017;stroke-width:35.42px;stroke-miterlimit:1.5" transform="matrix(.01567 .11835 .10519 -.01393 20.468 -70.983)"/><path d="M1028.66 873.649c.83-.321 12.54.862 13.66.986 7.82.87 15.23 1.631 23.13 1.946 8.34.332 15.82-.028 23.26-1.669 4.24-.937 10.54-4.577 10.55-3.977 0 1.537-1.6 8.155-5.94 10.504-3.54 1.914-9.23 1.877-15.84 1.705-4.84-.126-20.38-2.526-23.07-2.962-2.3-.373-13.49-2.572-17.07-3.615-.81-.237-9.51-2.596-8.68-2.918Z" style="fill:#5c5017;fill-opacity:.34" transform="matrix(.11938 0 0 .11938 -14.284 -59.113)"/><path d="M1180.84 617.065c-.23-.092 1.48-16.407 12.29-30.197 5.87-7.479 14.18-15.795 22.24-20.753 8.62-5.305 26.26-13.719 37.17-15.871 12.83-2.533 26.2-3.59 27.07-2.048.74 1.321-4.11 15.43-8.29 22.094-5.27 8.407-17.3 22.77-23.33 28.344-6.41 5.927-16.6 13.573-27.03 18.277-12.53 5.656-22.74 6.322-36.59 6.322" style="fill:#c58c83" transform="matrix(.11938 0 0 .11938 -29.67 -36.488)"/><path d="m1168.33 628.06-2.76-4.099-1.12-3.396-.33-5.224c.28-3.695 3.14-22.63 15.83-38.812 7.01-8.93 17.02-18.762 26.64-24.681 9.88-6.085 30.2-15.571 42.71-18.04 15.15-2.99 30.96-3.177 34.78-1.957l6.36 3.534 3.76 4.593 1.88 5.087.28 5.309c-.38 4.447-5.79 20.753-10.85 28.814-5.9 9.417-19.39 25.498-26.14 31.743-7.47 6.904-19.37 15.77-31.52 21.251-14.91 6.728-27 7.804-43.48 7.804-7.57 0-13.97-5.03-16.04-11.926Zm33.08-22.549c4.13-.69 8.22-1.866 12.66-3.87 8.71-3.928 17.19-10.355 22.54-15.303 4.05-3.746 11.18-12.006 16.38-18.994-9.29 2.54-22.19 8.943-28.85 13.039-6.49 3.996-13.1 10.796-17.83 16.825-2.04 2.606-3.65 5.514-4.9 8.303Z" style="fill:#7b3f3a" transform="matrix(.11938 0 0 .11938 -29.67 -36.488)"/><path d="M1067.81 823.576c3.34-.058 12-1.055 14.73-1.738 5.89-1.474 13.15-5.471 18.79-7.729 12.99-5.196 24.35-14.018 33.23-24.673 6.86-8.242 10.48-14.406 14.95-23.34 1.57-3.157 5.73-14.769 6.3-14.769.01 0 .15 9.072-.37 11.427-2.57 11.564-4.43 18.811-8.95 27.603-2.34 4.549-9.68 15.043-13.42 18.583-4.42 4.186-12.77 10.842-18.08 13.627-9.71 5.082-17.47 7.369-30.74 6.443-10.13-.707-14.61-5.434-16.44-5.434Z" style="fill:#7b3f3a;fill-opacity:.32" transform="matrix(.11938 0 0 .11938 -14.284 -59.113)"/><path d="M1172.88 790.171c4.78 17.864-5.84 36.247-23.71 41.025-17.86 4.778-36.24-5.846-41.02-23.71-6.91-25.825-10.82-52.744-1.59-105.577 7.34-41.976 23.08-81.488 52.57-106.38 14.14-11.928 35.29-10.139 47.22 3.992 11.93 14.13 10.14 35.287-3.99 47.215-18.16 15.327-25.27 40.87-29.79 66.715-6.71 38.389-4.7 57.956.31 76.72Z" style="fill:#5c5017" transform="matrix(.11938 0 0 .11938 -29.67 -36.488)"/><path d="M1142.64 788.524c-12.62-.022-85.63 10.054-85.31 10.703.42.837 26.88 6.566 28.56 9.336 2.71 4.484-16.64 12.978-11.78 15.891 1.53.921 20.94-9.55 25.06-8.435 4.07 1.098-2.11 16.294-.11 16.628 2.31.385 16.9-10.405 20.64-9.658 3.31.663 6.12 8.965 9.68 9.474 4.59.655 6.15-7.801 10.49-8.422 3.73-.532 11.43 11.481 14.78 11.9 2.15.268 2.1-13.791 6.43-13.63 4.73.175 16.64 10.604 18.95 10.604 2.49 0-1.17-11.245 2.43-12.756 3.18-1.333 15.44 3.412 14.84 1.299-1.34-4.806-9.64-12.696-8.64-14.604 1.31-2.491 20.11-5.622 19.78-8.027-.33-2.478-44.11-10.265-65.8-10.303Z" style="fill:#678620" transform="matrix(.11938 0 0 .11938 -29.67 -36.488)"/><path d="m1230.61 823.914.07.822-2.68 10.413-5.9 9.124-10.11 7.65-5.36 1.454-1.11 1.638-5.79 5.159-9.67 4.745-10.03 1.502-8.75-1.759-7.39 3.525-13.39 1.001-9.7-2.647-2.74-1.569-.72.268-12.7.391-9.64-3.584c-2.88 1.411-5.36 2.548-6.47 2.85l-14.98.799-8.04-2.394-7.3-4.368-1.22-1.453-8.14.087-11.98-4.384-8.62-7.237-5.21-8.075-2.65-10.229-3.95-2.213-9.07-11.219-3.15-9.85.04-10.476 3.88-11.106 9.25-10.492 7.17-4.056 8.81-2.438c12.54-2.256 77.16-10.795 89.33-10.774 23.36.041 68.04 8.219 77.05 11.891l8.07 4.434 7.22 7.042 4.51 7.967 2.1 8.038.08 8.404-1.72 7.414-3.21 6.69-4.89 6.164-1.3.851Zm-82.9 2.155a21.691 21.691 0 0 0-.25 4.482l.25-4.482Zm13.5 22.966a21.52 21.52 0 0 0 1.48-1.823l-1.48 1.823Z" style="fill:#678620" transform="matrix(.11938 0 0 .11938 -29.67 -36.488)"/><path d="M579.569 1013.6c.469 1.9 8.57 34.8 18.789 71.52 47.757 171.66 167.86 578.22 175.633 597.67 2.994 7.5 6.417 16.49 11.054 24.54 3.344 5.8 7.136 11.29 12.636 14.04 11.09 5.55 27.883 6.11 37.21-4.07 3.835-4.19 5.997-10.24 6.266-18.17.314-9.25 8.071-16.49 17.311-16.18 9.241.31 16.489 8.07 16.175 17.31-.593 17.51-6.576 30.42-15.04 39.66-19.372 21.16-53.869 22.94-76.903 11.42-9.132-4.56-16.723-12.07-22.862-21.15-7.378-10.91-12.65-24.18-16.96-34.96-7.818-19.57-128.762-428.47-176.799-601.12-12.362-44.43-19.663-74.16-20.01-79.35a16.731 16.731 0 0 1-1.183-6.19c0-9.247 7.507-16.754 16.753-16.754l3.844.411 4.068 1.416 3.627 2.369 2.696 2.834 2.085 3.484 1.335 4.09c.426 2.04.31 5.07.275 7.18Zm-22.863 10.98c1.479.48 3.115.74 4.933.74-1.717 0-3.373-.26-4.933-.74Z" style="fill:#9f7b42" transform="scale(.11938) rotate(5.903 6424.51 1108.781)"/><path d="M554.494 1012.94a8.323 8.323 0 0 1-1.231-4.37c0-4.62 3.753-8.38 8.376-8.38l2.065.22 2.157.75 1.917 1.26 1.434 1.5 1.471 2.74.629 2.96c.139 1.55-.127 3.57-.127 4.8 0 3.73 7.476 31.16 19.103 72.95 47.828 171.9 168.14 579.05 175.925 598.53 3.127 7.83 6.732 17.2 11.574 25.61 4.196 7.28 9.248 13.91 16.149 17.36 14.074 7.03 35.297 7.01 47.133-5.92 4.992-5.45 8.11-13.22 8.46-23.54.157-4.62 4.035-8.24 8.655-8.09 4.621.16 8.245 4.04 8.088 8.66-.513 15.11-5.541 26.31-12.847 34.29-16.86 18.41-46.933 19.6-66.979 9.58-7.888-3.94-14.367-10.51-19.669-18.35-7.038-10.41-12.01-23.1-16.121-33.38-7.807-19.54-128.54-427.85-176.508-600.26-12.321-44.29-19.716-73.49-19.716-77.44 0-.33.028-.9.062-1.48Z" style="fill:#c79547" transform="matrix(.11889 .0109 -.0109 .11889 16.414 -77.804)"/><path d="M521.29 836.35c8.553-.903 27.629-5.467 29.355-6.323.844 3.891 10.709 33.017 16.008 40.61 3.677 5.269 11.016 6.341 16.722 3.088 6.167-3.516 6.418-16.873 8.857-21.682 3.902-7.693 32.541-4.931 31.788 4.883-1.116 14.549-6.358 37.622-16.509 46.912-14.469 13.242-32.83 13.129-48.029 5.201-14.604-7.618-24.651-22.485-33.714-42.961-3.2-7.228-12.337-28.899-4.478-29.728Z" style="fill:#e9a367" transform="matrix(.20167 0 0 .18866 -21.402 -28.837)"/><path d="M520.803 831.075c8.08-.853 26.125-5.048 27.755-5.856a4.67 4.67 0 0 1 4.262.045c1.342.701 2.318 2.01 2.655 3.565.803 3.699 10.115 31.42 15.153 38.639 2.279 3.265 6.876 3.596 10.413 1.58.725-.413 1.186-1.199 1.623-2.055.759-1.488 1.295-3.254 1.76-5.043 1.254-4.822 2.107-9.786 3.449-12.434 1.195-2.355 3.566-4.409 6.951-5.646 5.362-1.96 13.777-2.031 20.616-.271 4.37 1.124 8.091 3.036 10.343 5.351 1.076 1.106 1.879 2.322 2.412 3.604l.663 2.315.104 2.49c-.703 9.175-2.977 21.573-6.98 32.134-2.867 7.562-6.663 14.177-11.246 18.372-16.1 14.735-36.516 14.759-53.429 5.938-15.515-8.093-26.392-23.704-36.022-45.458-2.429-5.487-7.847-18.709-8.055-26.421-.091-3.372.736-6.043 2.101-7.81l1.122-1.187 1.356-.937 1.485-.615 1.509-.3Zm2.415 10.377c.015.771.063 1.845.206 2.667 1.166 6.681 5.023 15.619 6.826 19.692 8.498 19.199 17.713 33.322 31.406 40.464 13.486 7.034 29.792 7.286 42.63-4.463 3.538-3.238 6.292-8.465 8.504-14.301 3.572-9.421 5.603-20.464 6.265-28.717-.24-.227-.938-.87-1.485-1.185-2.172-1.25-5.174-2.032-8.281-2.426-3.248-.41-6.621-.375-9.392.201-.913.19-1.751.435-2.467.763-.321.147-.781.467-.903.553-1.329 2.762-1.869 8.299-3.386 12.991-1.537 4.755-3.961 8.732-7.433 10.711-7.877 4.491-17.953 2.678-23.029-4.595-4.455-6.383-12.027-27.248-15.317-37.393-6.558 1.695-17.466 4.154-24.144 5.038Z" style="fill:#a5915a" transform="matrix(.20167 0 0 .18866 -21.402 -28.837)"/><path d="M923.567 1615.41c6.389 15.61 18.319 25.09 32.122 21.22 10.092-2.83 18.26-14.93 34.821-19.66 23.8-6.81 48.89 24.06 52.24 55.68 3.22 30.42-24.69 53.17-50.239 58.72-40.982 8.92-58.344 7.05-85.166-7.34" style="fill:#fff4ec" transform="matrix(.11938 0 0 .11938 -30.178 -76.57)"/><path d="M919.691 1617a4.188 4.188 0 0 1 7.751-3.17c5.474 13.36 15.291 22.08 27.116 18.76 4.614-1.29 8.715-4.82 13.627-8.45 5.73-4.23 12.344-8.67 21.173-11.2 10.812-3.09 21.912.44 31.522 8.35 13.43 11.07 23.91 30.84 26.03 50.92 3.45 32.61-26.12 57.3-53.509 63.26-42.37 9.21-60.306 7.13-88.037-7.75a4.188 4.188 0 0 1 3.961-7.38c25.914 13.91 42.701 15.55 82.296 6.94 23.709-5.16 49.949-25.97 46.959-54.19-1.89-17.86-11.08-35.49-23.03-45.33-7.31-6.03-15.658-9.12-23.889-6.76-9.371 2.68-15.854 7.92-21.627 12.21-4.536 3.37-8.728 6.19-13.215 7.45-15.786 4.42-29.82-5.81-37.128-23.66Z" style="fill:#8f705a" transform="matrix(.11938 0 0 .11938 -30.178 -76.57)"/><path d="M395.028 147.305c2.169 1.773 9.399.313 15.881-1.114 5.89-1.297 9.988-3.483 14.491-7.692 1.672-1.563-7.539-39.605-23.109-34.777-14.462 4.485-11.686 39.967-7.263 43.583Z" style="fill:#eeb927" transform="matrix(.18872 0 0 .18872 -12.41 -18.495)"/><path d="M391.675 151.408c-1.172-.958-2.595-3.011-3.543-6.126-1.382-4.542-2.278-12.111-1.845-19.743.386-6.79 1.853-13.597 4.667-18.533 2.349-4.122 5.619-7.059 9.767-8.345 5.62-1.742 10.765-.054 15.189 3.981 4.975 4.537 9.002 12.475 11.564 19.801 2.277 6.513 3.405 12.503 3.42 14.989l-.394 2.653-.609 1.242-.872 1.043c-5.272 4.927-10.076 7.477-16.971 8.995-4.991 1.1-10.396 2.146-14.002 2.048-1.409-.038-2.633-.237-3.627-.551l-1.343-.546-1.401-.908Zm6.974-8.613c.479.001 1.054-.01 1.538-.054 2.828-.258 6.306-1.004 9.582-1.725 4.169-.918 7.253-2.38 10.389-4.959-.664-4.712-3.573-14.723-8.157-21.663-1.166-1.766-2.433-3.326-3.847-4.446-1.291-1.023-2.7-1.659-4.294-1.165-2.201.683-3.512 2.76-4.55 5.203-1.486 3.501-2.198 7.844-2.442 12.153-.351 6.174 1.21 14.033 1.781 16.656Z" style="fill:#a5915a" transform="matrix(.18872 0 0 .18872 -12.41 -18.495)"/><path d="M1123.04 1630.15c-2.54 20.45-18.56 34.09-37.24 49.71-22.61 18.9-46.26 25.95-50.48 63.16-4.02 35.54 20.27 53.09 44.52 59.99 31.4 8.93 64.24-10.59 83.21-61.2" style="fill:#fff4ec" transform="matrix(.1209 0 0 .1209 -3.339 -77.29)"/><path d="M1118.94 1629.64a4.137 4.137 0 0 1 4.61-3.59c2.27.28 3.88 2.35 3.59 4.61-2.66 21.44-19.11 35.99-38.69 52.37-9.07 7.58-18.3 13.26-26.39 19.74-11.33 9.07-20.26 19.81-22.63 40.72-3.74 32.99 19.02 49.14 41.54 55.54 29.72 8.45 60.25-10.77 78.21-58.67a4.14 4.14 0 0 1 5.33-2.42c2.13.8 3.22 3.19 2.42 5.32-20 53.32-55.14 73.13-88.22 63.73-25.99-7.39-51.81-26.35-47.5-64.43 2.69-23.75 12.82-35.95 25.68-46.25 8.05-6.44 17.23-12.09 26.25-19.63 17.78-14.86 33.38-27.57 35.8-47.04Z" style="fill:#8f705a" transform="matrix(.1209 0 0 .1209 -3.339 -77.29)"/><path d="M509.498 514.114c-25.416 4.547-125.868 65.405-168.883 103.305-58.581 51.615-110.503 115.729-146.601 183.015-28.504 53.129-41.236 84.227-58.7 155.011-25.555 103.585-23.533 256.765-15.735 257.905 17.137 2.51 59.501-47.88 129.875-63.66 76.341-17.11 143.532 7.77 157.02 3.67 6.239-1.9 48.304-312.659 65.475-419.2 11.839-73.461 30.762-220.046 37.549-220.046Z" style="fill:#e9a367" transform="matrix(.1495 .00314 -.00663 .14158 -7.345 -67.477)"/><path d="m506.949 500.357 2.204-.358c6.954 0 12.885 5.623 13.644 12.936.419 4.032-.811 7.835-3.144 10.641-8.065 24.873-24.014 148.16-34.512 213.297-15.484 96.074-51.2 357.887-62.74 410.677-1.472 6.73-2.986 10.98-3.866 12.59l-3.462 4.29-4.593 2.5c-4.955 1.51-15.864.69-31.182-1.85-28.115-4.65-75.271-13.12-126.743-1.58-47.405 10.63-81.479 37.84-103.388 52.23-13.329 8.75-24.065 12.63-31.089 11.6l-5.348-1.97-4.318-4.03-2.483-4.59c-.52-1.34-1.058-3.09-1.531-5.27-5.935-27.28-5.642-164.23 17.962-259.908 17.837-72.297 30.856-104.054 59.969-158.318 36.831-68.653 89.784-134.091 149.555-186.755 44.502-39.21 148.754-101.589 175.048-106.294l.017.162Zm-17.906 36.601c-38.751 18.787-106.663 62.285-139.697 91.39-57.391 50.567-108.281 113.357-143.647 179.276-27.894 51.994-40.34 82.433-57.431 151.704-20.172 81.772-23.012 195.242-19.261 235.872 4.619-2.77 9.925-6.42 15.947-10.54 23.662-16.17 57.304-38.89 101.399-48.78 55.406-12.42 106.16-3.69 136.425 1.32 4.747.78 9.817 1.4 13.688 1.82 1.214-5.69 2.908-14 4.4-22.64 14.506-83.89 44.16-299.736 57.891-384.933 8.745-54.26 21.432-147.97 30.286-194.489Z" style="fill:#a5915a" transform="matrix(.1495 .00314 -.00663 .14158 -7.345 -67.477)"/><path d="M520.697 511.278c-1.295-1.637-40.194 14.517-65.825 29.439-38.552 22.444-84.516 52.027-137.219 102.112-88.905 84.49-136.852 159.57-172.111 242.045-46.668 109.164-69.009 283.086-62.713 281.056 27.383-8.84 65.798-32.62 141.701-33.44 87.291-.95 154.259 31.35 171.021 38.87 4.96 2.22 40.341-295.03 61.489-405.127 10.269-53.46 61.117-254.955 63.657-254.955Z" style="fill:#f2ce1b" transform="matrix(-.13382 .06617 .06698 .1252 100.697 -91.517)"/><path d="M532.328 518.671c.23-.414.44-.844.63-1.289 2.082-4.883 1.278-10.678-2.068-14.908l-2.94-2.805-3.672-1.88-4.089-.714-3.967.4c-7.902 1.646-43.745 16.667-68.128 30.862-39.223 22.836-85.981 52.945-139.603 103.903-90.532 86.036-139.301 162.534-175.205 246.518-42.897 100.343-65.454 254.312-64.892 282.582.048 2.45.258 4.35.509 5.67l1.076 3.69 1.562 2.93 2.117 2.51 2.658 2.01 3.56 1.47 3.876.4 3.381-.61c26.672-8.6 64.029-32.03 137.963-32.83 84.499-.92 149.308 30.44 165.534 37.72l4.327 1.12 4.227-.35 4.116-1.87 3.759-3.91c.819-1.27 2.558-5.41 3.968-12.43 9.54-47.54 40.117-298.298 59.156-397.416 9.186-47.822 51.04-214.83 61.159-247.753.338-1.1.745-2.312.986-3.02Zm-6.622 5.84a12.195 12.195 0 0 1-4.049.848 12.573 12.573 0 0 0 4.049-.848Zm-26.209 10.116c-15.561 57.583-47.654 187.032-55.599 228.394-18.126 94.361-46.705 326.239-57.616 389.089-28.661-12.3-88.442-34.51-162.319-33.72-62.981.68-100.846 16.61-127.886 27.47 4.487-47.92 25.837-170.932 61.722-254.871 34.613-80.966 81.738-154.627 169.016-237.571 51.785-49.212 96.955-78.268 134.834-100.321 10.701-6.23 25.536-13.099 37.848-18.47Z" style="fill:#a5915a" transform="matrix(-.13382 .06617 .06698 .1252 100.697 -91.517)"/><path d="M493.452 516.194c3.9-6.465 16.227-10.52 19.806-5.237 28.509 42.087 95.965 147.159 139.77 242.848 42.289 92.377 66.45 199.823 72.129 243.149 6.688 51.016 6.807 105.346 2.887 104.686-11.913-2-118.72-64.43-202.959-61.96-26.894.79-65.334-5.27-103.172 8.39-48.203 17.39-93.963 55.29-97.704 55.44-7.68.3-1.069-138.61 43.472-285.119 26.692-87.8 99.028-257.865 125.771-302.197Z" style="fill:#d4c421" transform="matrix(.19686 -.03796 .02693 .13962 -47.388 -44.643)"/><path d="M489.653 511.637c2.986-4.95 9.731-9.154 15.726-9.98 4.926-.679 9.235 1.119 11.486 4.443 28.63 42.266 96.363 147.796 140.354 243.891 42.726 93.333 67.106 201.911 72.843 245.685 5.48 41.804 6.557 85.794 4.751 101.364-.516 4.45-1.492 7.33-2.295 8.67l-1.225 1.57-1.241.91-1.27.43h-1.329c-11.873-1.99-118.304-64.37-202.264-61.91-26.598.78-64.618-5.34-102.039 8.17-38.171 13.77-74.783 40.58-89.801 50.81-4.83 3.29-8.048 4.81-9.001 4.85l-1.808-.33-1.55-1-1.299-1.56-1.13-2.32c-1.005-2.72-1.868-8.53-2.042-17.09-.823-40.53 10.557-154.136 46.577-272.62 26.853-88.326 99.653-259.384 126.557-303.983ZM326.895 1094.42c.682-.44 1.405-.91 2.114-1.4 15.327-10.44 52.713-37.71 91.667-51.77 38.256-13.8 77.114-7.81 104.305-8.6 78.827-2.31 177.371 51.88 199.98 60.82.272-2.86.588-6.91.661-10.91.362-19.85-1.228-52.73-5.369-84.328-5.621-42.878-29.565-149.193-71.416-240.613-43.559-95.151-110.613-199.608-139.068-241.631-.147-.065-.652-.281-.982-.339-.748-.132-1.576-.112-2.438.006-3.403.469-7.402 2.285-9.097 5.095-26.583 44.067-98.454 213.138-124.987 300.411-35.244 115.931-46.58 227.019-45.774 266.679.047 2.32.22 4.66.404 6.58Z" style="fill:#a5915a" transform="matrix(.19686 -.03796 .02693 .13962 -47.388 -44.643)"/><path d="M266.875 512.059c-3.31 3.275-8.657 3.247-11.932-.063-3.276-3.31-3.248-8.657.063-11.932 18.822-18.626 103.744-54.841 158.74-64.106 70.154-11.819 151.84-4.213 188.51 11.626 4.275 1.846 6.247 6.816 4.4 11.091-1.846 4.276-6.816 6.247-11.091 4.401-34.816-15.039-112.408-21.699-179.015-10.477-51.738 8.716-131.967 41.937-149.675 59.46Z" style="fill:#a5915a" transform="matrix(.23672 -.01212 .01212 .23672 -21.848 -19.477)"/><path d="M87.076 17.488c-1.493 2.704-1.155 17.444 1.944 22.237.024.037.076.066.075.11-.005.251-.086.498-.091.749-.246-.06-.509-.033-.755-.093-.015-.004-.73-.832-1.396-2.219-2.931-6.104-4.967-19.911-2.565-23.09.799-1.057 1.747-.903 1.914-.876.02.003 1.19.73 1.192.74.103.443.374.883.301 1.332-.08.492-.406.886-.594 1.078a.137.137 0 0 0 .021-.047 1.01 1.01 0 0 0-.038.065c-.054.054-.094.089-.11.103a.776.776 0 0 0 .102-.089Zm0 0 .008-.014.017-.018a.314.314 0 0 1-.025.032Zm.047-.091c.001-.082-.135-.129-.296-.22.071.056.152.115.296.22Z" style="fill:#a5915a" transform="matrix(.82398 0 0 .82397 -4.552 -6.179)"/><path d="M87.382 16.547c-.005.013-.004.012 0 0Zm.037-.144c.057-.254.133-.779-.073-1.252a41.14 41.14 0 0 0-1.002-.969c-1.652.026-2.04-.125-2.487 1.469-1.142 4.068-1.762 18.658 4.502 24.745.051.049.084.134.153.146.377.065.381-.053.76.013-.032-.25.043-.506.011-.756-.003-.028-4.236-3.909-3.355-15.598.366-4.847 1.352-7.523 1.491-7.798Zm0 0a2.443 2.443 0 0 1-.037.144c.058-.154.066-.201.037-.144Z" style="fill:#a5915a" transform="matrix(-.32736 .75615 .75615 .32736 85.27 -62.618)"/><path d="M88.892 40.442c-.162-.048-.341-.015-.503-.064-.014-.004-2.302-2.334-3.803-10.839-.545-3.085-1.807-12.324.482-14.308.041-.035.073-.106.128-.102.57.051 1.126.214 1.695.264l-.399 1.483c.109.125.217.095.15.171-1.533 1.745-1.226 17.664 2.235 22.79.025.038.077.066.078.111.004.166-.067.328-.063.494Z" style="fill:#a5915a" transform="matrix(.63872 .52055 -.526 .6454 17.38 -46.335)"/><path d="m.035.005.001-.048.002-.085.002-.108.004-.118a3.854 3.854 0 0 1 .008-.209l.005-.064a.883.883 0 0 1 .197-.018.32.32 0 0 1 .116.019.155.155 0 0 1 .077.057.173.173 0 0 1 .028.102c0 .043-.008.08-.023.111a.158.158 0 0 1-.069.071.237.237 0 0 1-.116.025L.234-.262C.221-.264.211-.265.204-.268l-.001.049a2.355 2.355 0 0 0-.004.16L.197.009H.164L.118.008.071.006.035.005Zm.166-.403a.244.244 0 0 0 .051.005.112.112 0 0 0 .045-.008.07.07 0 0 0 .032-.024.064.064 0 0 0 .013-.042c0-.024-.007-.041-.022-.05A.105.105 0 0 0 .263-.53l-.029.001a.371.371 0 0 0-.033.004v.127Z" style="fill:#92704a;fill-rule:nonzero" transform="matrix(66.40766 -.0035 .00382 72.53408 167.596 133.054)"/><path d="M.181.008.147.007.1.005.051.004.011.002a2.83 2.83 0 0 1 .016-.079l.022-.107.028-.122.03-.127a4.104 4.104 0 0 1 .057-.22l.1-.011a1.54 1.54 0 0 1 .149-.002l.052.004.02.101.02.135c.007.051.013.112.02.181l.021.243-.047.005-.064.003-.059.002-.002-.033-.002-.04-.001-.042-.002-.042v-.037l-.035.001-.037.002-.035.003a.912.912 0 0 0-.029.003l-.018.002L.2-.106l-.011.064-.008.05Zm.054-.322.036-.004.051-.004.043-.002-.002-.04-.004-.064a9.73 9.73 0 0 0-.006-.104l-.025.001-.031.002-.021.002-.008.04-.011.058-.012.061-.01.054Z" style="fill:#92704a;fill-rule:nonzero" transform="matrix(66.40766 -.0035 .00382 72.53408 197.432 133.053)"/><path d="M.065.013.058-.125a24.458 24.458 0 0 1-.009-.174L.04-.483.032-.652l.05-.003.066-.005.069-.003.061-.001c.026 0 .051.002.077.007a.23.23 0 0 1 .071.025.134.134 0 0 1 .052.051c.013.022.02.051.02.086a.187.187 0 0 1-.027.097.154.154 0 0 1-.07.066.627.627 0 0 1 .026.052c.009.021.019.042.028.066l.028.069.023.062.015.047a.181.181 0 0 1-.039.017.73.73 0 0 1-.05.014L.388.006.365.01a.455.455 0 0 0-.012-.053l-.02-.071a1.598 1.598 0 0 0-.043-.14.479.479 0 0 0-.015-.043l-.023.005-.022.003-.018.001.004.038.004.061a1.536 1.536 0 0 1 .009.139l.002.052a.42.42 0 0 1-.108.01L.065.013Zm.133-.421L.23-.409l.039-.005A.18.18 0 0 0 .32-.43a.066.066 0 0 0 .029-.025.069.069 0 0 0 .009-.036c0-.018-.005-.031-.013-.039a.06.06 0 0 0-.034-.016.389.389 0 0 0-.051-.003H.241l-.022.002-.02.002-.013.001.005.053.003.033.004.05Z" style="fill:#92704a;fill-rule:nonzero" transform="matrix(66.40766 -.0035 .00382 72.53408 235.9 133.05)"/><path d="M.181.008.147.007.1.005.051.004.011.002a2.83 2.83 0 0 1 .016-.079l.022-.107.028-.122.03-.127a4.104 4.104 0 0 1 .057-.22l.1-.011a1.54 1.54 0 0 1 .149-.002l.052.004.02.101.02.135c.007.051.013.112.02.181l.021.243-.047.005-.064.003-.059.002-.002-.033-.002-.04-.001-.042-.002-.042v-.037l-.035.001-.037.002-.035.003a.912.912 0 0 0-.029.003l-.018.002L.2-.106l-.011.064-.008.05Zm.054-.322.036-.004.051-.004.043-.002-.002-.04-.004-.064a9.73 9.73 0 0 0-.006-.104l-.025.001-.031.002-.021.002-.008.04-.011.058-.012.061-.01.054Z" style="fill:#92704a;fill-rule:nonzero" transform="matrix(66.40766 -.0035 .00382 72.53408 272.224 133.049)"/><path d="m.035.005.001-.048.002-.085.002-.108.004-.118a3.854 3.854 0 0 1 .008-.209l.005-.064a.883.883 0 0 1 .197-.018.32.32 0 0 1 .116.019.155.155 0 0 1 .077.057.173.173 0 0 1 .028.102c0 .043-.008.08-.023.111a.158.158 0 0 1-.069.071.237.237 0 0 1-.116.025L.234-.262C.221-.264.211-.265.204-.268l-.001.049a2.355 2.355 0 0 0-.004.16L.197.009H.164L.118.008.071.006.035.005Zm.166-.403a.244.244 0 0 0 .051.005.112.112 0 0 0 .045-.008.07.07 0 0 0 .032-.024.064.064 0 0 0 .013-.042c0-.024-.007-.041-.022-.05A.105.105 0 0 0 .263-.53l-.029.001a.371.371 0 0 0-.033.004v.127Z" style="fill:#92704a;fill-rule:nonzero" transform="matrix(66.40766 -.0035 .00382 72.53408 310.69 133.047)"/><path d="M.049-.012a3.29 3.29 0 0 0 .006-.181l.001-.122L.055-.44a27.422 27.422 0 0 0-.006-.203l.045-.004A.69.69 0 0 1 .159-.65l.038.001a.33.33 0 0 1 .029.003v.066l-.001.09a31.26 31.26 0 0 0-.003.104l-.005.111-.003.057L.21-.17l.078-.004.077-.003.078-.001.004.041.002.06.001.055C.41-.017.369-.013.329-.01c-.041.002-.08.004-.116.004L.125-.007a1.385 1.385 0 0 1-.076-.005Z" style="fill:#92704a;fill-rule:nonzero" transform="matrix(66.40766 -.0035 .00382 72.53408 344.226 133.045)"/><path d="M.297.016a.224.224 0 0 1-.14-.04.233.233 0 0 1-.075-.114A.566.566 0 0 1 .053-.3a3.47 3.47 0 0 1-.006-.216v-.038l.001-.041.002-.04.001-.036a.596.596 0 0 1 .042-.004l.04-.001.05.001.045.004c-.003.025-.004.052-.006.082L.218-.5l-.001.089a1.18 1.18 0 0 0 .012.155.134.134 0 0 0 .029.061.066.066 0 0 0 .049.019.065.065 0 0 0 .052-.022.15.15 0 0 0 .026-.064.534.534 0 0 0 .007-.095v-.052L.39-.478.387-.552a7.994 7.994 0 0 0-.003-.066L.38-.664l.046.001.052.004a.474.474 0 0 1 .07.008c.002.018.005.037.006.058l.005.065.001.067c0 .066-.003.129-.01.186a.545.545 0 0 1-.039.152.239.239 0 0 1-.079.102.234.234 0 0 1-.135.037Z" style="fill:#92704a;fill-rule:nonzero" transform="matrix(66.40766 -.0035 .00382 72.53408 376.136 133.043)"/><path d="M.268.011a.367.367 0 0 1-.113-.017.166.166 0 0 1-.081-.054.149.149 0 0 1-.03-.098c0-.04.011-.072.033-.098a.2.2 0 0 1 .09-.059.429.429 0 0 1 .199-.014 1.005 1.005 0 0 1 .091.021.225.225 0 0 0-.006-.036.152.152 0 0 0-.012-.032.17.17 0 0 0-.06-.062.191.191 0 0 0-.099-.025.183.183 0 0 0-.168.091L.045-.417a.22.22 0 0 1 .056-.058.329.329 0 0 1 .321-.022.204.204 0 0 1 .1.144.433.433 0 0 1 .009.081l.001.091a.776.776 0 0 0 .004.061c.001.02.005.034.01.04a.029.029 0 0 0 .021.008.031.031 0 0 0 .028-.016c.008-.01.012-.025.013-.045l.047.038c-.002.032-.011.056-.029.072a.093.093 0 0 1-.062.024.088.088 0 0 1-.047-.011.084.084 0 0 1-.044-.062.126.126 0 0 1-.041.037.3.3 0 0 1-.164.046Zm.013-.066a.226.226 0 0 0 .13-.04.193.193 0 0 0 .048-.041.659.659 0 0 1 .002-.113.733.733 0 0 0-.162-.024.266.266 0 0 0-.088.014.156.156 0 0 0-.063.038.086.086 0 0 0-.023.059c0 .028.007.05.021.066a.104.104 0 0 0 .055.032.32.32 0 0 0 .08.009Z" style="fill:#d4c421;fill-rule:nonzero;stroke:#d4c421;stroke-width:.03px;stroke-linecap:butt;stroke-miterlimit:2" transform="matrix(1.18565 -28.54849 31.18204 1.29504 436.681 131.568)"/><path d="M.127-.442a.17.17 0 0 1 .046-.047.253.253 0 0 1 .068-.033.218.218 0 0 1 .074-.013.26.26 0 0 1 .048.004c.017.003.03.007.039.012l-.016.081a.555.555 0 0 0-.032-.011.185.185 0 0 0-.112.006.249.249 0 0 0-.058.031.186.186 0 0 0-.043.046c.005.025.009.055.014.09.004.035.009.07.012.107l.009.1.004.068a.498.498 0 0 1-.043.002L.091 0 .089-.099.082-.203a1.315 1.315 0 0 0-.011-.106 1.5 1.5 0 0 0-.037-.205l.024-.007.028-.006.018-.003.014.045.009.043Z" style="fill:#d4c421;fill-rule:nonzero;stroke:#d4c421;stroke-width:.03px;stroke-linecap:butt;stroke-miterlimit:2" transform="matrix(1.18565 -28.54849 31.18204 1.29504 437.449 113.083)"/><path d="M.422-.102a.23.23 0 0 1-.021.054.113.113 0 0 1-.108.067.134.134 0 0 1-.085-.024.137.137 0 0 1-.044-.064.286.286 0 0 1-.012-.085v-.058l.002-.072.002-.073.003-.063.001-.04a1.2 1.2 0 0 0-.134.02.178.178 0 0 1-.004-.026L.02-.492.019-.509l.067-.009c.025-.004.051-.006.075-.008l.001-.052v-.057A.619.619 0 0 0 .16-.678L.158-.713l.076-.003a1.569 1.569 0 0 1 .004.112v.073l.037-.002.035-.001h.048a.562.562 0 0 0 .06.002.211.211 0 0 1 .002.03l.001.032-.035-.001a.58.58 0 0 0-.059 0L.281-.47a1.893 1.893 0 0 0-.044.003l-.002.041-.002.063-.003.07-.001.066-.001.047c0 .021.001.041.004.061a.103.103 0 0 0 .019.048c.011.013.027.019.049.019a.045.045 0 0 0 .037-.017.107.107 0 0 0 .02-.038.339.339 0 0 0 .011-.037l.011.01.017.013a.25.25 0 0 1 .026.019Z" style="fill:#d4c421;fill-rule:nonzero;stroke:#d4c421;stroke-width:.03px;stroke-linecap:butt;stroke-miterlimit:2" transform="matrix(1.18565 -28.54849 31.18204 1.29504 437.989 100.08)"/></svg>