<svg xmlns="http://www.w3.org/2000/svg" xml:space="preserve" style="fill-rule:evenodd;clip-rule:evenodd;stroke-linejoin:round;stroke-miterlimit:2" viewBox="0 0 380 360">
  <path d="M0 0h380v360H0z"/>
  <path d="M194.906 169.132c-.463-.158-3.123-1.064-4.59-4.047a7.976 7.976 0 0 1-.807-2.962c-.024-.364-.133-2.001.908-4.478 3.651-8.683 13.792-14.479 24.63-10.555 15.149 5.484 24.395 22.445 18.237 39.452-7.744 21.389-31.538 33.185-53.916 25.003-27.395-10.017-42.016-40.07-31.767-68.377 11.827-32.665 48.301-51.285 83.294-38.364 38.224 14.114 59.69 56.907 44.645 97.652-16.261 44.037-65.527 68.531-112.152 51.314-49.848-18.406-77.369-74.143-57.982-126.648 20.595-55.775 83.127-86.494 141.871-64.379 61.133 23.014 94.535 91.767 70.293 156.161-25.194 66.923-100.432 103.317-170.696 76.866-72.711-27.373-112.098-109.096-83.437-185.228C95.849 24.448 198.203-17.407 285.105 30.645c69.974 38.692 105.37 124.938 74.061 205.768-37.601 97.073-152.905 143.843-250.911 91.247-78.193-41.964-118.762-135.641-89.15-224.852a7.83 7.83 0 0 1 3.912-4.51 7.789 7.789 0 0 1 2.884-.81c3.275-.244 5.387 1.591 5.753 1.909 2.401 2.086 2.603 4.788 2.638 5.257.158 2.124-.062 2.116-.723 4.141-30.109 92.22 21.979 190.471 113.683 218.178 85.643 25.876 175.642-23.008 201.241-107.735 24.006-79.456-21.182-163.003-99.741-187.01-73.641-22.504-151.131 19.369-173.351 92.08-20.687 67.697 17.855 138.846 84.562 159.231 61.753 18.871 126.561-16.34 145.111-77.044 17.055-55.81-14.825-114.278-69.527-130.995-49.867-15.238-101.997 13.312-116.879 62.012-13.423 43.924 11.797 89.717 54.496 102.765 37.983 11.607 77.44-10.283 88.654-46.982 9.632-31.519-8.14-64.862-39.469-74.544-24.223-7.486-51.627 5.283-60.218 31.268-6.408 19.383 4.348 40.667 23.908 46.918 14.249 4.554 28.696-3.95 32.599-17.016 2.17-7.267-1.819-15.462-9.48-17.941-1.577-.51-3.448.356-4.039 1.985-.577 1.594-.536 1.637-1.659 2.91-.32.362-2.157 2.444-5.41 2.661-1.602.107-1.621.114-3.144-.404Z"/>
</svg>