<svg xmlns="http://www.w3.org/2000/svg" xml:space="preserve" style="fill-rule:evenodd;clip-rule:evenodd;stroke-linecap:round;stroke-linejoin:round;stroke-miterlimit:1.5" viewBox="0 0 193 193">
  <path d="M0 0h192.036v192.516H0z" style="fill:none"/>
  <path d="M77.095 96.012c2.616-1.433 14.345 13.544 14.382 17.559.03 3.268-11.252 16.782-17.998 25.196-10.055 12.54-25.953 31.697-29.747 32.084-3.094.315-18.788-12.895-18.724-16.508.042-2.396 41.082-52.302 52.087-58.331Z" style="fill:#fbdea3"/>
  <clipPath id="a">
    <path d="M77.095 96.012c2.616-1.433 14.345 13.544 14.382 17.559.03 3.268-11.252 16.782-17.998 25.196-10.055 12.54-25.953 31.697-29.747 32.084-3.094.315-18.788-12.895-18.724-16.508.042-2.396 41.082-52.302 52.087-58.331Z"/>
  </clipPath>
  <g clip-path="url(#a)">
    <path d="M84.66 104.033a.839.839 0 1 1 1.288 1.076c-7.568 9.057-10.467 12.913-23.142 28.452-2.474 3.033-10.395 12.678-16.487 20.695-.637.837-6.615 8.057-9.936 11.271a.84.84 0 0 1-1.168-1.206c3.265-3.16 9.141-10.258 9.767-11.081 6.106-8.035 14.043-17.7 16.523-20.74 12.682-15.548 15.582-19.405 23.155-28.467Z" style="fill:#d7b674"/>
  </g>
  <path d="M76.692 95.276c.406-.222.937-.273 1.57-.072.937.298 2.243 1.24 3.667 2.604 3.098 2.967 6.898 7.939 8.908 11.636.932 1.715 1.471 3.19 1.479 4.119.005.477-.165 1.14-.523 1.943-.457 1.023-1.225 2.329-2.216 3.823-3.743 5.641-10.706 14.056-15.443 19.963-7.057 8.801-16.986 20.852-23.613 27.424-2.042 2.026-3.785 3.539-5.046 4.309-.662.405-1.226.617-1.658.661-.562.057-1.485-.197-2.617-.782-2.224-1.149-5.494-3.549-8.563-6.198-3.075-2.656-5.947-5.563-7.386-7.698-.731-1.084-1.094-2.023-1.083-2.679.004-.205.154-.681.557-1.345.667-1.103 2.063-3.041 3.993-5.559 7.63-9.956 23.678-29.095 35.645-41.34 5.198-5.318 9.647-9.34 12.329-10.809Zm-50.843 59.151c.014.175.09.377.195.608.252.552.687 1.205 1.251 1.926 1.504 1.923 3.903 4.284 6.439 6.474 2.955 2.551 6.095 4.871 8.236 5.977.739.382 1.311.641 1.677.604.362-.037.845-.326 1.46-.758 1.131-.795 2.574-2.089 4.232-3.734 6.591-6.537 16.465-18.528 23.485-27.283 4.709-5.871 11.634-14.233 15.354-19.841.928-1.399 1.654-2.62 2.082-3.578.231-.519.38-.936.377-1.243-.007-.758-.515-1.935-1.275-3.333-1.939-3.567-5.606-8.363-8.594-11.226-1.037-.992-1.978-1.75-2.73-2.102a1.905 1.905 0 0 0-.413-.148c-.048-.01-.123-.012-.142-.013-2.603 1.433-6.889 5.354-11.919 10.501-11.923 12.2-27.912 31.269-35.513 41.188-2.351 3.067-3.894 5.22-4.202 5.981Z" style="fill:#574e3b"/>
  <path d="M90.071 100.166c-.119 1.022-55.021 65.418-55.414 68.19-.166 1.171 1.345 2.38 1.922 2.956.742.741 55.951-67.237 56.378-67.808.535-.715-1.446-2.021-2.886-3.338Z" style="fill:#8d663e"/>
  <path d="M89.486 99.934a.631.631 0 0 1 1.01-.233c1.046.957 2.357 1.92 2.865 2.659.402.585.408 1.11.1 1.521-.385.514-45.173 55.666-54.668 66.15-.685.756-1.192 1.286-1.493 1.556-.221.199-.393.293-.48.322l-.162.035-.17-.005-.179-.057-.175-.125c-.364-.363-1.078-.971-1.556-1.662-.399-.576-.631-1.211-.544-1.827.022-.157.148-.472.418-.909.474-.768 1.434-2.085 2.776-3.831 7.571-9.847 27.442-33.537 40.412-49.109 5.549-6.662 9.833-11.836 11.343-13.796.243-.315.458-.623.503-.689Zm-52.87 70.546c.285-.281.754-.754 1.243-1.294 9.314-10.284 52.632-63.604 54.532-65.981a2.775 2.775 0 0 0-.271-.384c-.462-.511-1.212-1.1-1.926-1.709a28.29 28.29 0 0 1-.213.28c-1.514 1.965-5.809 7.153-11.373 13.833-12.961 15.56-32.817 39.231-40.381 49.07-1.306 1.699-2.242 2.979-2.704 3.726-.115.186-.226.41-.246.45-.032.311.135.616.336.907.29.418.679.798 1.003 1.102Z" style="fill:#5f442a"/>
  <path d="M44.295 164.748c-.04-.045-.395-.448-.698-.723-1.144-1.045-3.003-2.433-3.602-2.898l-1.23-.975a.962.962 0 0 1-.527-1.712l.281-.159.265-.064.365.017.343.114c.52.236 1.489 1.111 1.682 1.26.619.481 2.536 1.918 3.719 2.997.667.608 1.103 1.175 1.203 1.474a.962.962 0 0 1-1.801.669Zm5.696-6.761c-.04-.045-.396-.447-.698-.723-1.145-1.044-3.003-2.433-3.602-2.898-.129-.1-.98-.776-1.23-.974a.962.962 0 0 1-.527-1.713l.281-.159.265-.064.365.017.342.114c.52.236 1.49 1.111 1.683 1.261.618.48 2.536 1.917 3.719 2.996.667.608 1.103 1.175 1.203 1.475a.962.962 0 0 1-1.801.668Zm6.289-6.751c-.04-.045-.395-.447-.698-.722-1.145-1.045-3.003-2.433-3.602-2.898l-1.23-.975a.962.962 0 0 1-.527-1.712l.281-.159.265-.064.365.017.343.113c.52.237 1.489 1.111 1.682 1.261.618.48 2.536 1.918 3.719 2.996.667.609 1.103 1.175 1.203 1.475a.961.961 0 0 1-1.801.668Zm5.495-7.156a10.626 10.626 0 0 0-.697-.722c-1.145-1.045-3.003-2.433-3.602-2.898-.13-.101-.98-.776-1.23-.975a.96.96 0 0 1-.527-1.712l.281-.159.265-.064.365.017.342.113c.52.237 1.49 1.111 1.682 1.261.619.48 2.537 1.918 3.72 2.996.666.609 1.103 1.175 1.203 1.475a.962.962 0 0 1-1.802.668Zm5.867-6.762a10.626 10.626 0 0 0-.697-.722c-1.145-1.045-3.003-2.433-3.602-2.898-.13-.101-.98-.776-1.23-.975a.959.959 0 0 1-.527-1.712l.281-.159.265-.064.364.017.343.113c.52.237 1.489 1.111 1.682 1.261.619.48 2.537 1.918 3.719 2.996.667.609 1.103 1.175 1.204 1.475a.963.963 0 0 1-.607 1.217.963.963 0 0 1-1.195-.549Zm5.859-6.825c-.04-.045-.395-.447-.697-.723-1.145-1.044-3.004-2.433-3.603-2.898-.129-.1-.979-.776-1.229-.974a.962.962 0 0 1-.527-1.713l.281-.159.265-.064.364.017.343.114c.52.236 1.489 1.111 1.682 1.261.619.48 2.536 1.917 3.719 2.996.667.608 1.103 1.175 1.203 1.475a.96.96 0 0 1-1.801.668Zm5.417-7.191c-.04-.045-.395-.447-.697-.723-1.145-1.044-3.003-2.433-3.602-2.898-.13-.1-.98-.775-1.23-.974a.959.959 0 0 1-.527-1.712l.281-.16.265-.063.364.017.343.113c.52.236 1.489 1.111 1.682 1.261.619.48 2.537 1.917 3.719 2.996.667.608 1.103 1.175 1.203 1.475a.96.96 0 0 1-1.801.668Zm5.857-7.176c-.04-.045-.396-.448-.698-.723-1.145-1.045-3.003-2.433-3.602-2.898l-1.23-.975a.962.962 0 0 1-.527-1.712l.281-.159.265-.064.365.017.342.114c.52.236 1.49 1.111 1.683 1.26.618.481 2.536 1.918 3.719 2.997.667.608 1.103 1.175 1.203 1.474a.962.962 0 0 1-1.801.669Z" style="fill:#5f442a"/>
  <path d="m33.701 147.831.01.024c.331.703 2.305 4.128 2.63 4.514a.481.481 0 0 1-.736.619c-.34-.404-2.417-3.987-2.764-4.724a1.1 1.1 0 0 1-.083-.227l-.01-.129.021-.117.053-.115.068-.085.172-.111a.48.48 0 0 1 .639.351Zm-.017.258a.482.482 0 0 1-.285.291.442.442 0 0 0 .285-.291Zm3.094-3.21.01.023c.314.712 2.204 4.183 2.519 4.577a.481.481 0 1 1-.75.601c-.33-.413-2.32-4.045-2.649-4.79a1.17 1.17 0 0 1-.078-.229l-.006-.129.024-.116.055-.113.07-.084.175-.107a.48.48 0 0 1 .63.367Zm-.023.257a.478.478 0 0 1-.292.284.444.444 0 0 0 .292-.284Zm3.217-3.554.01.024c.314.711 2.204 4.183 2.52 4.576a.482.482 0 0 1-.751.601c-.33-.412-2.32-4.044-2.648-4.789a1.079 1.079 0 0 1-.078-.229l-.007-.13.024-.116.055-.113.07-.084.175-.106a.481.481 0 0 1 .63.366Zm-.023.258a.483.483 0 0 1-.292.284.446.446 0 0 0 .292-.284Zm3.218-3.554.009.023c.314.712 2.205 4.183 2.52 4.577a.48.48 0 0 1-.75.601c-.33-.413-2.32-4.045-2.649-4.79a1.043 1.043 0 0 1-.078-.229l-.006-.129.023-.117.055-.113.071-.083.175-.107a.48.48 0 0 1 .63.367Zm-.024.257a.475.475 0 0 1-.292.284.444.444 0 0 0 .292-.284Zm2.934-4.221.01.024c.314.711 2.205 4.183 2.52 4.577a.48.48 0 1 1-.75.6c-.331-.412-2.32-4.044-2.649-4.789a1.079 1.079 0 0 1-.078-.229l-.006-.13.023-.116.055-.113.07-.084.176-.106a.48.48 0 0 1 .629.366Zm-.023.258a.483.483 0 0 1-.292.284.444.444 0 0 0 .292-.284Zm3.096-3.961.01.023c.314.711 2.204 4.183 2.52 4.577a.48.48 0 0 1-.751.601c-.33-.413-2.32-4.045-2.648-4.79a1.128 1.128 0 0 1-.079-.229l-.006-.129.024-.117.055-.113.07-.083.175-.107a.481.481 0 0 1 .63.367Zm-.023.257a.478.478 0 0 1-.292.284.446.446 0 0 0 .292-.284Zm3.064-3.575.01.023c.314.712 2.204 4.184 2.52 4.577a.482.482 0 0 1-.075.676.482.482 0 0 1-.676-.075c-.33-.412-2.32-4.045-2.648-4.79a1.128 1.128 0 0 1-.079-.229l-.006-.129.024-.116.055-.113.07-.084.175-.107a.481.481 0 0 1 .63.367Zm-.023.257a.478.478 0 0 1-.292.284.444.444 0 0 0 .292-.284Zm3.476-4.076.01.024c.314.711 2.204 4.183 2.52 4.576a.481.481 0 0 1-.751.601c-.33-.412-2.32-4.044-2.648-4.79a1.128 1.128 0 0 1-.079-.229l-.006-.129.024-.116.055-.113.07-.084.175-.107a.483.483 0 0 1 .63.367Zm-.023.258a.483.483 0 0 1-.292.284.446.446 0 0 0 .292-.284Zm3.42-3.9.009.023c.314.712 2.205 4.184 2.52 4.577a.481.481 0 0 1-.75.601c-.331-.412-2.32-4.044-2.649-4.79a1.043 1.043 0 0 1-.078-.229l-.006-.129.023-.116.055-.113.07-.084.176-.107a.48.48 0 0 1 .63.367Zm-.024.257a.475.475 0 0 1-.292.284.442.442 0 0 0 .292-.284Zm3.598-4.281.01.023c.314.712 2.204 4.184 2.519 4.577a.481.481 0 1 1-.75.601c-.33-.412-2.32-4.044-2.649-4.79a1.17 1.17 0 0 1-.078-.229l-.006-.129.024-.116.055-.113.07-.084.175-.107a.48.48 0 0 1 .63.367Zm-.023.257a.478.478 0 0 1-.292.284.444.444 0 0 0 .292-.284Zm3.597-4.281.01.023c.314.712 2.205 4.184 2.52 4.577a.481.481 0 0 1-.75.601c-.331-.412-2.32-4.044-2.649-4.79a1.043 1.043 0 0 1-.078-.229l-.006-.129.023-.116.055-.113.07-.084.176-.107a.48.48 0 0 1 .629.367Zm-.023.257a.475.475 0 0 1-.292.284.442.442 0 0 0 .292-.284Zm3.598-4.281.01.023c.314.712 2.204 4.184 2.519 4.577a.481.481 0 1 1-.75.601c-.33-.412-2.32-4.044-2.649-4.79a1.17 1.17 0 0 1-.078-.229l-.006-.129.024-.116.055-.113.07-.084.175-.107a.48.48 0 0 1 .63.367Zm-.023.257a.478.478 0 0 1-.292.284.444.444 0 0 0 .292-.284Zm3.597-4.281.01.023c.314.712 2.205 4.184 2.52 4.577a.481.481 0 0 1-.75.601c-.331-.412-2.32-4.044-2.649-4.79a1.043 1.043 0 0 1-.078-.229l-.007-.129.024-.116.055-.113.07-.084.176-.107a.48.48 0 0 1 .629.367Zm-.023.257a.482.482 0 0 1-.292.285.443.443 0 0 0 .292-.285Z" style="fill:#cdb37e"/>
  <path d="M32.829 151.45s.218-.211.457-.464c.704-.746 2.037-2.224 3.813-4.217 10.181-11.422 34.851-39.689 38.915-43.981a.6.6 0 1 1 .872.826c-4.569 4.826-35.206 39.982-41.965 47.373-.819.897-1.332 1.404-1.433 1.465a.6.6 0 0 1-.659-1.002Z" style="fill:#cdb37e"/>
  <path d="M96.889 77.575c1.436 2.614-13.531 14.357-17.546 14.397-3.268.033-16.792-11.237-25.211-17.975-12.549-10.044-31.721-25.926-32.111-29.719-.318-3.094 12.878-18.799 16.491-18.739 2.397.04 52.338 41.036 58.377 52.036Z" style="fill:#fbdea3"/>
  <clipPath id="b">
    <path d="M96.889 77.575c1.436 2.614-13.531 14.357-17.546 14.397-3.268.033-16.792-11.237-25.211-17.975-12.549-10.044-31.721-25.926-32.111-29.719-.318-3.094 12.878-18.799 16.491-18.739 2.397.04 52.338 41.036 58.377 52.036Z"/>
  </clipPath>
  <g clip-path="url(#b)">
    <path d="M27.493 37.439a.839.839 0 1 1 1.088-1.278c8.987 7.652 12.815 10.586 28.237 23.404 3.01 2.503 12.581 10.512 20.541 16.679.831.644 7.996 6.688 11.179 10.039a.84.84 0 0 1-1.217 1.157c-3.13-3.294-10.173-9.236-10.99-9.869-7.978-6.18-17.57-14.207-20.587-16.715-15.429-12.825-19.26-15.761-28.251-23.417Z" style="fill:#d7b674"/>
  </g>
  <path d="M97.625 77.171c.223.405.274.936.073 1.57-.297.938-1.237 2.244-2.6 3.669-2.965 3.101-7.933 6.905-11.628 8.918-1.714.934-3.189 1.474-4.118 1.483-.477.005-1.14-.164-1.943-.521-1.024-.456-2.331-1.223-3.825-2.213-5.644-3.737-14.066-10.694-19.977-15.425C44.8 67.603 32.74 57.684 26.162 51.063c-2.028-2.04-3.543-3.782-4.314-5.042-.405-.662-.618-1.226-.662-1.657-.058-.562.196-1.485.78-2.618 1.147-2.226 3.543-5.497 6.19-8.569 2.653-3.077 5.558-5.952 7.691-7.393 1.084-.731 2.023-1.095 2.679-1.085.205.004.681.154 1.345.556 1.103.666 3.043 2.06 5.563 3.988 9.962 7.621 29.116 23.652 41.371 35.608 5.323 5.193 9.349 9.64 10.82 12.32Zm-1.481.792c-1.434-2.602-5.359-6.884-10.511-11.91C73.422 54.141 54.339 38.17 44.414 30.577c-3.069-2.348-5.224-3.889-5.985-4.196-.175.014-.377.09-.608.195-.552.252-1.204.688-1.924 1.252-1.923 1.507-4.281 3.908-6.469 6.446-2.548 2.956-4.866 6.099-5.97 8.241-.381.739-.64 1.311-.602 1.677.037.363.326.845.759 1.46.796 1.13 2.092 2.572 3.738 4.228 6.543 6.586 18.542 16.449 27.303 23.461 5.876 4.703 14.244 11.621 19.855 15.336 1.4.927 2.621 1.652 3.58 2.079.519.231.936.379 1.244.376.757-.007 1.934-.517 3.332-1.278 3.565-1.942 8.357-5.613 11.217-8.604.992-1.037 1.749-1.98 2.1-2.731.07-.15.122-.287.148-.414a.871.871 0 0 0 .012-.142Z" style="fill:#574e3b"/>
  <path d="M92.747 90.555c-1.022-.118-65.467-54.964-68.24-55.354-1.17-.165-2.378 1.346-2.953 1.924-.74.743 67.286 55.891 67.858 56.318.715.535 2.019-1.447 3.335-2.888Z" style="fill:#8d663e"/>
  <path d="M92.978 89.969a.632.632 0 0 1 .234 1.01c-.956 1.047-1.918 2.358-2.656 2.867-.585.403-1.11.409-1.521.102-.515-.385-55.706-45.124-66.199-54.61-.756-.684-1.286-1.191-1.557-1.491-.199-.221-.293-.393-.323-.48l-.035-.162.006-.17.057-.18.124-.174c.363-.365.971-1.079 1.661-1.558.576-.399 1.21-.632 1.826-.546.157.023.473.148.91.417.768.475 2.086 1.433 3.833 2.774 9.854 7.562 33.561 27.411 49.145 40.368 6.667 5.543 11.845 9.823 13.806 11.331.315.242.624.457.689.502ZM22.385 37.161c.282.286.755.754 1.296 1.243 10.292 9.305 63.65 52.575 66.029 54.473.083-.05.262-.162.383-.271.511-.463 1.1-1.214 1.708-1.928a28.29 28.29 0 0 1-.28-.213c-1.966-1.512-7.158-5.803-13.843-11.361-15.572-12.947-39.26-32.781-49.106-40.337-1.7-1.305-2.981-2.24-3.729-2.701-.185-.114-.41-.225-.45-.245-.311-.032-.615.135-.906.337-.418.29-.798.679-1.102 1.003Z" style="fill:#5f442a"/>
  <path d="M28.125 44.835c.045-.04.447-.395.722-.698 1.043-1.146 2.43-3.005 2.895-3.605.1-.129.775-.98.973-1.23a.96.96 0 0 1 1.712-.529l.159.281.064.265-.016.365-.113.342c-.236.521-1.11 1.491-1.26 1.684-.479.619-1.915 2.538-2.993 3.721-.607.668-1.174 1.104-1.473 1.205a.961.961 0 0 1-.67-1.801Zm6.766 5.69c.045-.04.446-.395.722-.698 1.043-1.146 2.43-3.005 2.894-3.605l.974-1.23a.961.961 0 0 1 1.712-.529l.159.281.064.265-.017.364-.113.343c-.235.52-1.109 1.49-1.259 1.683-.48.62-1.915 2.539-2.993 3.722-.608.668-1.174 1.104-1.474 1.205a.961.961 0 0 1-.669-1.801Zm6.755 6.283c.046-.04.447-.395.723-.698 1.043-1.146 2.43-3.005 2.894-3.605l.974-1.23a.962.962 0 0 1 1.712-.529l.159.281.064.265-.017.365-.113.342c-.236.521-1.109 1.49-1.259 1.684-.48.619-1.915 2.538-2.993 3.721-.608.668-1.174 1.104-1.474 1.205a.962.962 0 0 1-.67-1.801Zm7.161 5.49c.045-.04.447-.396.723-.698 1.043-1.146 2.43-3.006 2.894-3.605.101-.13.775-.981.974-1.231a.96.96 0 0 1 1.712-.528l.159.281.064.265-.017.364-.113.343c-.236.52-1.11 1.49-1.259 1.683-.48.619-1.915 2.538-2.993 3.722-.608.667-1.174 1.104-1.474 1.204a.961.961 0 0 1-.67-1.8Zm6.768 5.86c.045-.039.446-.395.722-.698 1.043-1.145 2.43-3.005 2.894-3.604.101-.13.775-.981.974-1.231a.961.961 0 0 1 1.712-.529l.159.281.064.265-.017.365-.113.343c-.235.52-1.109 1.49-1.259 1.683-.48.619-1.915 2.538-2.993 3.722-.608.667-1.174 1.104-1.474 1.204a.96.96 0 0 1-.669-1.801Zm6.83 5.853c.045-.04.447-.395.723-.698 1.043-1.146 2.43-3.005 2.894-3.605l.974-1.23a.96.96 0 0 1 1.711-.529l.16.281.064.265-.017.365-.113.342c-.236.521-1.11 1.491-1.259 1.684-.48.619-1.915 2.538-2.993 3.721-.608.668-1.174 1.104-1.474 1.205a.962.962 0 0 1-.67-1.801Zm7.196 5.411c.045-.04.447-.396.722-.698 1.043-1.146 2.431-3.006 2.895-3.605.1-.13.775-.98.973-1.231a.96.96 0 0 1 1.712-.528l.16.281.064.265-.017.364-.113.343c-.236.52-1.11 1.49-1.26 1.683-.479.619-1.915 2.538-2.992 3.722-.608.667-1.174 1.104-1.474 1.205a.963.963 0 0 1-.67-1.801Zm7.182 5.85c.045-.04.446-.396.722-.698 1.043-1.146 2.43-3.005 2.894-3.605l.974-1.231a.962.962 0 0 1 1.712-.528l.159.281.064.265-.017.364-.113.343c-.235.52-1.109 1.49-1.259 1.683-.48.62-1.915 2.539-2.993 3.722-.608.668-1.174 1.104-1.474 1.205a.961.961 0 0 1-.669-1.801Z" style="fill:#5f442a"/>
  <path d="m45.032 34.226-.024.01c-.703.332-4.126 2.309-4.512 2.634a.48.48 0 1 1-.619-.735c.404-.34 3.985-2.421 4.722-2.768a1.17 1.17 0 0 1 .227-.084l.129-.009.117.021.114.052.085.068.111.172a.48.48 0 0 1-.35.639Zm-.258-.017a.479.479 0 0 1-.292-.285c.045.12.128.234.292.285Zm3.213 3.092-.024.01c-.711.314-4.181 2.208-4.574 2.523a.481.481 0 0 1-.602-.749c.412-.331 4.043-2.324 4.788-2.653.112-.05.192-.072.229-.079l.129-.006.116.024.113.055.084.07.107.175a.48.48 0 0 1-.366.63Zm-.258-.023a.483.483 0 0 1-.284-.292c.042.12.122.236.284.292Zm3.557 3.214-.023.01c-.711.314-4.181 2.208-4.575 2.524a.48.48 0 0 1-.601-.75c.412-.331 4.042-2.324 4.787-2.653.112-.05.192-.072.229-.078l.129-.007.117.024.113.055.084.07.106.175a.48.48 0 0 1-.366.63Zm-.257-.023a.475.475 0 0 1-.284-.292.442.442 0 0 0 .284.292Zm3.557 3.215-.024.009c-.711.315-4.181 2.209-4.574 2.524a.481.481 0 0 1-.602-.75c.412-.33 4.043-2.323 4.788-2.653.112-.049.192-.072.229-.078l.129-.006.116.023.113.055.084.07.107.175a.481.481 0 0 1-.366.631Zm-.258-.023a.483.483 0 0 1-.284-.292c.042.12.122.236.284.292Zm4.223 2.93-.023.01c-.711.314-4.181 2.208-4.574 2.523a.481.481 0 0 1-.602-.749c.412-.331 4.042-2.324 4.787-2.653.113-.05.193-.072.229-.079l.13-.006.116.024.113.055.084.07.107.175a.48.48 0 0 1-.367.63Zm-.257-.023a.478.478 0 0 1-.284-.292.444.444 0 0 0 .284.292Zm3.964 3.092-.023.01c-.712.315-4.182 2.208-4.575 2.524a.481.481 0 1 1-.601-.75c.412-.33 4.042-2.323 4.787-2.653.112-.049.192-.072.229-.078l.129-.007.117.024.112.055.084.07.107.175a.481.481 0 0 1-.366.63Zm-.257-.023a.478.478 0 0 1-.285-.291c.042.12.122.236.285.291Zm3.577 3.061-.023.01c-.711.315-4.181 2.208-4.575 2.524a.48.48 0 1 1-.601-.75c.412-.33 4.042-2.323 4.787-2.653.113-.049.193-.072.229-.078l.129-.006.117.023.113.055.084.07.107.175a.481.481 0 0 1-.367.63Zm-.257-.023a.474.474 0 0 1-.284-.291c.042.12.122.236.284.291Zm4.079 3.473-.023.01c-.711.314-4.181 2.208-4.575 2.524a.481.481 0 0 1-.601-.75c.412-.331 4.042-2.324 4.787-2.653.112-.05.192-.072.229-.078l.129-.007.117.024.113.055.084.07.106.175a.481.481 0 0 1-.366.63Zm-.257-.023a.478.478 0 0 1-.284-.292.442.442 0 0 0 .284.292Zm3.902 3.416-.023.01c-.711.314-4.181 2.208-4.575 2.524a.48.48 0 0 1-.601-.75c.412-.331 4.042-2.324 4.787-2.653.113-.05.193-.072.229-.078l.129-.007.117.024.113.055.084.07.107.175a.481.481 0 0 1-.367.63Zm-.257-.023a.475.475 0 0 1-.284-.292.444.444 0 0 0 .284.292Zm4.285 3.594-.024.01c-.711.314-4.181 2.208-4.574 2.524a.481.481 0 0 1-.602-.75c.412-.331 4.042-2.324 4.788-2.653.112-.05.192-.072.228-.078l.13-.007.116.024.113.055.084.07.107.175a.482.482 0 0 1-.366.63Zm-.258-.023a.48.48 0 0 1-.284-.292.444.444 0 0 0 .284.292Zm4.285 3.594-.024.01c-.711.314-4.181 2.208-4.574 2.523a.481.481 0 0 1-.602-.749c.412-.331 4.043-2.324 4.788-2.653.112-.05.192-.072.229-.079l.129-.006.116.024.113.055.084.07.107.175a.48.48 0 0 1-.366.63Zm-.258-.023a.483.483 0 0 1-.284-.292.444.444 0 0 0 .284.292Zm4.285 3.594-.024.01c-.711.314-4.181 2.208-4.574 2.523a.481.481 0 0 1-.602-.749c.412-.331 4.043-2.324 4.788-2.653.112-.05.192-.072.229-.079l.129-.006.116.024.113.055.084.07.107.175a.48.48 0 0 1-.366.63Zm-.258-.023a.483.483 0 0 1-.284-.292.444.444 0 0 0 .284.292Zm4.285 3.594-.023.01c-.712.314-4.182 2.208-4.575 2.523a.481.481 0 0 1-.601-.749c.412-.331 4.042-2.324 4.787-2.653.112-.05.192-.072.229-.079l.129-.006.117.024.112.055.084.07.107.175a.48.48 0 0 1-.366.63Zm-.257-.023a.482.482 0 0 1-.285-.292c.042.12.122.236.285.292Z" style="fill:#cdb37e"/>
  <path d="M41.413 33.357s.21.218.464.457c.746.703 2.226 2.035 4.219 3.809 11.432 10.171 39.721 34.816 44.017 38.876a.6.6 0 1 1-.825.873c-4.831-4.565-40.014-35.17-47.411-41.922-.897-.819-1.405-1.331-1.467-1.432a.601.601 0 0 1 1.003-.661Z" style="fill:#cdb37e"/>
  <path d="M115.263 96.896c-2.606 1.45-14.433-13.449-14.496-17.464-.052-3.268 11.14-16.856 17.831-25.314 9.972-12.606 25.744-31.868 29.535-32.279 3.092-.336 18.872 12.771 18.833 16.384-.027 2.397-40.737 52.571-51.703 58.673Z" style="fill:#fbdea3"/>
  <clipPath id="c">
    <path d="M115.263 96.896c-2.606 1.45-14.433-13.449-14.496-17.464-.052-3.268 11.14-16.856 17.831-25.314 9.972-12.606 25.744-31.868 29.535-32.279 3.092-.336 18.872 12.771 18.833 16.384-.027 2.397-40.737 52.571-51.703 58.673Z"/>
  </clipPath>
  <g clip-path="url(#c)">
    <path d="M155.792 27.063a.84.84 0 0 1 1.295 1.069c-7.516 9.101-10.392 12.974-22.977 28.586-2.456 3.048-10.321 12.738-16.367 20.79-.631.841-6.568 8.096-9.87 11.329a.84.84 0 0 1-1.175-1.2c3.247-3.178 9.082-10.31 9.702-11.137 6.06-8.07 13.941-17.781 16.403-20.836 12.592-15.621 15.47-19.495 22.989-28.601Z" style="fill:#d7b674"/>
  </g>
  <path d="M115.671 97.63c-.404.224-.934.279-1.569.082-.939-.292-2.251-1.225-3.684-2.58-3.118-2.947-6.95-7.893-8.984-11.577-.944-1.709-1.492-3.181-1.507-4.11-.007-.476.158-1.14.511-1.945.449-1.027 1.209-2.338 2.19-3.838 3.706-5.665 10.614-14.126 15.311-20.064 6.999-8.848 16.849-20.964 23.432-27.58 2.029-2.039 3.762-3.564 5.017-4.342.66-.409 1.223-.625 1.654-.672.562-.061 1.486.188 2.623.765 2.231 1.135 5.517 3.512 8.603 6.142 3.093 2.635 5.984 5.524 7.437 7.649.738 1.079 1.107 2.016 1.1 2.672-.002.205-.15.682-.547 1.349-.661 1.106-2.044 3.054-3.957 5.585-7.564 10.005-23.486 29.25-35.372 41.574-5.162 5.352-9.586 9.403-12.258 10.89Zm-.799-1.477c2.593-1.449 6.852-5.399 11.849-10.579 11.842-12.278 27.704-31.452 35.241-41.421 2.33-3.082 3.859-5.245 4.161-6.008-.015-.175-.092-.376-.199-.607-.255-.551-.694-1.2-1.263-1.917-1.517-1.914-3.931-4.259-6.482-6.432-2.971-2.532-6.127-4.831-8.275-5.923-.741-.377-1.314-.632-1.681-.593-.362.04-.843.332-1.455.768-1.125.802-2.56 2.106-4.207 3.761-6.548 6.581-16.343 18.636-23.305 27.437-4.669 5.903-11.539 14.31-15.223 19.942-.919 1.405-1.636 2.631-2.058 3.592-.228.521-.374.938-.369 1.246.012.757.528 1.931 1.297 3.324 1.963 3.554 5.661 8.326 8.668 11.169 1.043.986 1.99 1.737 2.743 2.084.15.069.288.12.415.146a.993.993 0 0 0 .143.011Z" style="fill:#574e3b"/>
  <path d="M102.26 92.827c.112-1.022 54.589-65.779 54.964-68.553.158-1.172-1.36-2.371-1.941-2.943-.747-.736-55.507 67.604-55.931 68.178-.53.718 1.46 2.011 2.908 3.318Z" style="fill:#8d663e"/>
  <path d="M102.847 93.055a.63.63 0 0 1-1.009.24c-1.052-.95-2.369-1.904-2.882-2.64-.406-.582-.415-1.107-.11-1.52.382-.517 44.805-55.962 54.231-66.509.68-.76 1.184-1.293 1.483-1.565.219-.201.391-.296.478-.326l.162-.036.169.005.18.055.176.123c.367.362 1.084.965 1.567 1.653.402.573.639 1.206.556 1.823-.021.157-.145.473-.412.911-.47.771-1.421 2.095-2.752 3.85-7.505 9.897-27.219 33.717-40.087 49.374-5.505 6.699-9.755 11.901-11.252 13.87-.241.317-.453.627-.498.692Zm-2.927-3.251c.051.083.164.261.274.382.465.508 1.22 1.093 1.938 1.697.063-.086.134-.18.211-.282 1.501-1.975 5.762-7.191 11.282-13.907 12.857-15.646 32.557-39.447 40.056-49.336 1.295-1.707 2.223-2.994 2.68-3.744.113-.186.222-.411.242-.451.031-.311-.138-.615-.342-.905-.292-.416-.684-.794-1.01-1.096-.283.284-.749.76-1.235 1.303-9.246 10.346-52.211 63.949-54.096 66.339Z" style="fill:#5f442a"/>
  <path d="M147.61 27.946c.04.045.398.444.702.718 1.152 1.037 3.02 2.413 3.622 2.874.13.1.984.769 1.236.966a.962.962 0 0 1 .538 1.709l-.28.161-.264.066-.365-.015-.343-.111c-.522-.233-1.497-1.101-1.691-1.25-.622-.476-2.549-1.9-3.739-2.971-.67-.604-1.11-1.168-1.213-1.467a.962.962 0 0 1 1.797-.68Zm-5.651 6.798c.04.045.398.444.702.718 1.152 1.037 3.019 2.413 3.621 2.874.131.1.985.77 1.237.967a.962.962 0 0 1 .538 1.708l-.28.161-.265.066-.364-.015-.344-.111c-.521-.233-1.496-1.101-1.69-1.249-.622-.477-2.549-1.901-3.739-2.972-.671-.604-1.111-1.168-1.213-1.467a.962.962 0 0 1 1.797-.68Zm-6.244 6.792c.04.044.398.444.702.718 1.151 1.037 3.019 2.413 3.621 2.874.13.099.985.769 1.236.966a.961.961 0 0 1 .538 1.709l-.279.161-.265.066-.365-.015-.343-.111c-.522-.233-1.497-1.101-1.69-1.25-.622-.476-2.55-1.901-3.739-2.972-.671-.603-1.111-1.167-1.213-1.466a.962.962 0 0 1 1.797-.68Zm-5.449 7.192c.04.045.398.444.702.718 1.152 1.037 3.019 2.413 3.621 2.874.131.1.985.769 1.237.966a.962.962 0 0 1 .538 1.709l-.28.161-.265.066-.364-.015-.344-.111c-.521-.233-1.496-1.101-1.69-1.25-.622-.476-2.549-1.9-3.739-2.971-.671-.604-1.111-1.168-1.213-1.467a.963.963 0 0 1 .599-1.221.963.963 0 0 1 1.198.541Zm-5.822 6.8c.04.045.398.445.702.718 1.152 1.037 3.019 2.413 3.621 2.874.13.1.985.77 1.237.967a.962.962 0 0 1 .538 1.709l-.28.161-.265.065-.364-.014-.344-.112c-.521-.232-1.496-1.101-1.69-1.249-.622-.476-2.549-1.901-3.739-2.972-.671-.604-1.111-1.168-1.213-1.467a.962.962 0 0 1 1.797-.68Zm-5.814 6.864c.04.045.398.445.702.718 1.152 1.037 3.02 2.414 3.622 2.874.13.1.984.77 1.236.967a.962.962 0 0 1 .538 1.709l-.28.161-.265.065-.364-.014-.343-.112c-.522-.232-1.497-1.101-1.691-1.249-.622-.476-2.549-1.901-3.739-2.972-.67-.604-1.11-1.168-1.213-1.467a.962.962 0 0 1 1.797-.68Zm-5.369 7.227c.04.044.398.444.702.718 1.152 1.037 3.019 2.413 3.621 2.874.13.099.985.769 1.236.966a.962.962 0 0 1 .539 1.709l-.28.161-.265.066-.365-.015-.343-.111c-.522-.233-1.497-1.101-1.69-1.25-.622-.476-2.549-1.901-3.739-2.971-.671-.604-1.111-1.168-1.213-1.467a.962.962 0 0 1 1.797-.68Zm-5.809 7.214c.04.045.398.445.702.719 1.151 1.036 3.019 2.413 3.621 2.874.13.099.985.769 1.236.966a.961.961 0 0 1 .538 1.709l-.28.161-.264.065-.365-.014-.343-.111c-.522-.233-1.497-1.102-1.691-1.25-.621-.476-2.549-1.901-3.738-2.972-.671-.604-1.111-1.167-1.213-1.466a.962.962 0 0 1 1.797-.681Z" style="fill:#5f442a"/>
  <path d="m158.316 44.792-.011-.023c-.335-.702-2.332-4.114-2.659-4.497a.481.481 0 0 1 .731-.624c.343.402 2.444 3.971 2.795 4.706.053.111.078.19.085.226l.011.129-.021.118-.051.114-.068.086-.171.112a.481.481 0 0 1-.641-.347Zm.015-.258a.482.482 0 0 1 .283-.293.443.443 0 0 0-.283.293Zm-3.073 3.231-.01-.024c-.319-.709-2.232-4.168-2.55-4.56a.481.481 0 0 1 .747-.606c.332.411 2.346 4.029 2.68 4.773.05.111.073.191.079.228l.007.129-.023.117-.054.113-.069.084-.175.108a.48.48 0 0 1-.632-.362Zm.021-.258a.48.48 0 0 1 .291-.286.446.446 0 0 0-.291.286Zm-3.194 3.575-.01-.023c-.318-.71-2.232-4.169-2.549-4.56a.48.48 0 0 1 .746-.606c.333.41 2.347 4.029 2.68 4.772.05.112.073.192.08.229l.007.129-.023.116-.054.114-.07.084-.174.108a.482.482 0 0 1-.633-.363Zm.022-.257a.478.478 0 0 1 .29-.286.442.442 0 0 0-.29.286Zm-3.194 3.575-.01-.024c-.319-.709-2.232-4.168-2.55-4.56a.481.481 0 0 1 .746-.605c.333.41 2.347 4.029 2.681 4.772.05.112.073.191.079.228l.007.129-.023.117-.054.113-.069.084-.175.108a.48.48 0 0 1-.632-.362Zm.021-.258a.482.482 0 0 1 .291-.286.446.446 0 0 0-.291.286Zm-2.906 4.24-.01-.023c-.318-.71-2.232-4.169-2.55-4.56a.481.481 0 0 1 .747-.606c.333.41 2.346 4.029 2.68 4.772.05.112.073.192.08.229l.007.129-.023.116-.055.114-.069.084-.175.108a.481.481 0 0 1-.632-.363Zm.022-.257a.478.478 0 0 1 .29-.286.44.44 0 0 0-.29.286Zm-3.07 3.981-.01-.023c-.319-.71-2.232-4.169-2.55-4.56a.481.481 0 0 1 .747-.606c.332.41 2.346 4.029 2.68 4.772.05.112.073.192.079.228l.007.13-.023.116-.054.113-.069.085-.175.108a.48.48 0 0 1-.632-.363Zm.021-.258a.484.484 0 0 1 .291-.286.446.446 0 0 0-.291.286Zm-3.04 3.596-.01-.024c-.319-.709-2.232-4.168-2.55-4.56a.481.481 0 0 1 .746-.605c.333.41 2.347 4.029 2.681 4.772.05.112.073.191.079.228l.007.129-.023.117-.054.113-.069.084-.175.108a.48.48 0 0 1-.632-.362Zm.021-.258a.482.482 0 0 1 .291-.286.446.446 0 0 0-.291.286Zm-3.449 4.099-.01-.023c-.318-.71-2.232-4.169-2.55-4.56a.481.481 0 0 1 .747-.606c.333.41 2.346 4.029 2.68 4.772.05.112.073.192.079.229l.008.129-.024.116-.054.114-.069.084-.175.108a.48.48 0 0 1-.632-.363Zm.021-.257a.48.48 0 0 1 .291-.286.444.444 0 0 0-.291.286Zm-3.393 3.922-.01-.024c-.319-.709-2.232-4.168-2.55-4.56a.48.48 0 0 1 .746-.606c.333.411 2.347 4.029 2.681 4.773.05.111.073.191.079.228l.007.129-.023.117-.054.113-.07.084-.174.108a.48.48 0 0 1-.632-.362Zm.021-.258a.483.483 0 0 1 .29-.286.447.447 0 0 0-.29.286Zm-3.569 4.305-.01-.023c-.319-.71-2.232-4.169-2.55-4.56a.481.481 0 0 1 .746-.606c.333.41 2.347 4.029 2.681 4.772.05.112.073.192.079.228l.007.13-.023.116-.054.114-.069.084-.175.108a.48.48 0 0 1-.632-.363Zm.021-.257a.48.48 0 0 1 .291-.286.442.442 0 0 0-.291.286Zm-3.569 4.304-.01-.023c-.318-.709-2.232-4.168-2.55-4.56a.481.481 0 0 1 .747-.606c.332.41 2.346 4.029 2.68 4.772.05.112.073.192.079.229l.007.129-.023.117-.054.113-.069.084-.175.108a.48.48 0 0 1-.632-.363Zm.021-.257a.48.48 0 0 1 .291-.286.442.442 0 0 0-.291.286Zm-3.569 4.305-.01-.023c-.318-.71-2.232-4.169-2.55-4.561a.481.481 0 0 1 .747-.605c.333.41 2.346 4.029 2.68 4.772.05.112.073.192.08.228l.007.129-.023.117-.055.113-.069.085-.175.107a.48.48 0 0 1-.632-.362Zm.022-.258a.478.478 0 0 1 .29-.286.445.445 0 0 0-.29.286Zm-3.57 4.305-.01-.023c-.318-.709-2.232-4.169-2.549-4.56a.48.48 0 1 1 .746-.606c.333.41 2.346 4.029 2.68 4.772.05.112.073.192.08.229l.007.129-.023.117-.055.113-.069.084-.175.108a.481.481 0 0 1-.632-.363Zm.022-.257a.478.478 0 0 1 .29-.286.44.44 0 0 0-.29.286Z" style="fill:#cdb37e"/>
  <path d="M159.164 41.168s-.217.212-.454.467c-.699.75-2.023 2.237-3.786 4.241-10.105 11.489-34.588 39.918-38.624 44.237a.6.6 0 1 1-.878-.82c4.538-4.856 34.942-40.214 41.652-47.649.814-.902 1.323-1.413 1.424-1.474a.602.602 0 0 1 .666.998Z" style="fill:#cdb37e"/>
  <path d="M95.12 115.882c-1.355-2.657 13.962-13.938 17.977-13.856 3.268.067 16.442 11.743 24.652 18.735 12.237 10.422 30.916 26.88 31.19 30.683.224 3.103-13.445 18.398-17.054 18.228-2.394-.112-51.064-42.611-56.765-53.79Z" style="fill:#fbdea3"/>
  <clipPath id="d">
    <path d="M95.12 115.882c-1.355-2.657 13.962-13.938 17.977-13.856 3.268.067 16.442 11.743 24.652 18.735 12.237 10.422 30.916 26.88 31.19 30.683.224 3.103-13.445 18.398-17.054 18.228-2.394-.112-51.064-42.611-56.765-53.79Z"/>
  </clipPath>
  <g clip-path="url(#d)">
    <path d="M163.609 158.529a.84.84 0 0 1-1.109 1.261c-8.862-7.796-12.643-10.792-27.855-23.857-2.971-2.552-12.333-11.308-20.094-17.732-3.456-2.862-7.854-6.792-10.98-10.191a.84.84 0 0 1 1.236-1.136c3.079 3.347 7.412 7.216 10.815 10.033 7.769 6.432 17.142 15.198 20.117 17.752 15.221 13.073 19.003 16.07 27.87 23.87Z" style="fill:#d7b674"/>
  </g>
  <path d="M94.372 116.263c-.21-.412-.245-.944-.025-1.571.325-.928 1.305-2.206 2.711-3.589 3.058-3.009 8.14-6.66 11.894-8.559 1.742-.882 3.233-1.376 4.162-1.357.477.01 1.134.199 1.926.58 1.009.487 2.292 1.294 3.756 2.328 5.528 3.908 13.733 11.118 19.497 16.027 8.589 7.314 20.341 17.596 26.714 24.414 1.965 2.101 3.426 3.888 4.158 5.171.385.674.581 1.245.612 1.677.04.563-.241 1.478-.86 2.593-1.214 2.189-3.709 5.387-6.448 8.376-2.746 2.995-5.737 5.78-7.913 7.155-1.105.698-2.055 1.034-2.71 1.003-.205-.01-.677-.174-1.328-.596-1.082-.7-2.979-2.153-5.439-4.156-9.725-7.921-28.381-24.528-40.267-36.852-5.162-5.353-9.051-9.92-10.44-12.644Zm1.504-.746c1.355 2.644 5.148 7.043 10.144 12.224 11.842 12.279 30.43 28.824 40.12 36.716 2.996 2.44 5.102 4.046 5.854 4.377.175-.009.379-.079.613-.178.56-.235 1.224-.65 1.962-1.192 1.967-1.448 4.398-3.776 6.662-6.246 2.637-2.877 5.049-5.948 6.218-8.055.404-.727.68-1.291.653-1.658-.026-.364-.3-.855-.714-1.482-.761-1.154-2.012-2.635-3.607-4.341-6.34-6.781-18.033-17.006-26.576-24.282-5.73-4.88-13.884-12.049-19.379-15.934-1.371-.969-2.569-1.73-3.515-2.186-.512-.247-.924-.408-1.231-.414-.758-.016-1.95.457-3.37 1.176-3.622 1.833-8.524 5.355-11.474 8.258-1.023 1.007-1.808 1.925-2.182 2.666a1.883 1.883 0 0 0-.161.409.994.994 0 0 0-.017.142Z" style="fill:#574e3b"/>
  <path d="M99.656 103.034c1.018.15 63.762 56.933 66.521 57.407 1.165.201 2.419-1.273 3.011-1.833.763-.72-65.552-57.915-66.11-58.359-.699-.557-2.063 1.385-3.422 2.785Z" style="fill:#8d663e"/>
  <path d="M99.407 103.613a.632.632 0 0 1-.203-1.017c.988-1.017 1.989-2.299 2.742-2.785.597-.384 1.122-.375 1.524-.055.502.4 54.305 46.8 64.504 56.601.735.707 1.25 1.23 1.511 1.538.192.227.281.402.308.49l.03.163-.011.169-.062.178-.129.171c-.375.353-1.004 1.048-1.708 1.506-.588.382-1.229.595-1.842.49-.156-.027-.468-.162-.896-.445-.754-.497-2.042-1.495-3.748-2.888-9.619-7.859-32.71-28.422-47.892-41.847-6.495-5.744-11.54-10.179-13.454-11.746a16.98 16.98 0 0 0-.674-.523Zm1.198-.673.274.221c1.919 1.572 6.978 6.018 13.49 11.778 15.17 13.415 38.244 33.962 47.855 41.814 1.659 1.356 2.911 2.33 3.644 2.813.182.12.403.238.443.259.31.042.619-.116.916-.309.426-.277.818-.655 1.132-.969a32.18 32.18 0 0 0-1.258-1.282c-10.004-9.614-62.018-54.49-64.339-56.459a2.766 2.766 0 0 0-.391.259c-.525.447-1.136 1.18-1.766 1.875Z" style="fill:#5f442a"/>
  <path d="M162.855 150.701c-.046.039-.458.382-.743.676-1.077 1.114-2.52 2.93-3.003 3.515-.104.126-.804.956-1.01 1.2a.961.961 0 0 1-1.727.477l-.151-.286-.056-.267.028-.364.123-.339c.252-.513 1.155-1.456 1.31-1.644.498-.604 1.992-2.479 3.105-3.629.628-.648 1.207-1.068 1.51-1.159a.962.962 0 0 1 .614 1.82Zm-6.589-5.893a10.75 10.75 0 0 0-.743.676c-1.078 1.113-2.521 2.93-3.003 3.515-.104.126-.805.956-1.011 1.2a.962.962 0 0 1-1.727.476l-.151-.285-.056-.267.028-.364.124-.339c.251-.513 1.154-1.456 1.31-1.644.498-.605 1.991-2.479 3.105-3.629.627-.649 1.207-1.068 1.509-1.159a.96.96 0 0 1 .615 1.82Zm-6.561-6.486c-.047.038-.459.382-.743.676-1.078 1.113-2.521 2.93-3.004 3.515-.104.126-.804.956-1.01 1.2a.962.962 0 0 1-1.727.476l-.151-.285-.056-.267.028-.364.123-.339c.252-.513 1.155-1.456 1.31-1.644.499-.605 1.992-2.479 3.105-3.629.628-.649 1.207-1.068 1.51-1.159a.96.96 0 0 1 .615 1.82Zm-6.991-5.705a11 11 0 0 0-.743.676c-1.078 1.113-2.521 2.93-3.003 3.515-.104.126-.804.956-1.01 1.2a.961.961 0 0 1-1.728.476l-.15-.286-.056-.266.027-.364.124-.339c.252-.513 1.155-1.456 1.31-1.644.498-.605 1.992-2.479 3.105-3.629.628-.649 1.207-1.068 1.51-1.159a.961.961 0 0 1 .614 1.82Zm-6.585-6.064c-.046.038-.459.381-.743.675-1.078 1.114-2.521 2.93-3.003 3.515-.105.127-.805.957-1.011 1.201a.962.962 0 0 1-1.727.476l-.151-.286-.056-.267.028-.363.123-.34c.252-.512 1.155-1.455 1.311-1.644.498-.604 1.991-2.478 3.104-3.629.628-.648 1.208-1.067 1.51-1.159a.962.962 0 0 1 .615 1.821Zm-6.649-6.058c-.047.038-.459.381-.744.675-1.077 1.114-2.52 2.93-3.003 3.515-.104.127-.804.956-1.01 1.201a.96.96 0 0 1-1.727.476l-.151-.286-.056-.267.028-.364.123-.339c.252-.512 1.155-1.455 1.31-1.644.499-.604 1.992-2.478 3.105-3.629.628-.648 1.207-1.067 1.51-1.159a.962.962 0 0 1 .615 1.821Zm-7.028-5.628a10.75 10.75 0 0 0-.743.676c-1.078 1.113-2.521 2.93-3.003 3.515-.104.126-.805.956-1.011 1.2a.962.962 0 0 1-1.727.476l-.151-.285-.056-.267.028-.364.124-.339c.251-.513 1.154-1.456 1.31-1.644.498-.605 1.991-2.479 3.105-3.629.627-.649 1.207-1.068 1.509-1.159a.961.961 0 0 1 .615 1.82Zm-7-6.066a10.75 10.75 0 0 0-.743.676c-1.078 1.113-2.521 2.93-3.003 3.515-.104.126-.805.956-1.011 1.2a.961.961 0 0 1-1.727.476l-.151-.286-.055-.266.027-.364.124-.339c.251-.513 1.154-1.456 1.31-1.644.498-.605 1.991-2.479 3.105-3.629.627-.649 1.207-1.068 1.509-1.159a.96.96 0 0 1 .615 1.82Z" style="fill:#5f442a"/>
  <path d="m145.633 160.79.024-.009c.713-.31 4.195-2.182 4.59-2.495a.48.48 0 1 1 .597.753c-.414.328-4.057 2.299-4.804 2.623a1.099 1.099 0 0 1-.23.077l-.129.006-.116-.025-.113-.055-.083-.071-.106-.176a.48.48 0 0 1 .37-.628Zm.257.025a.48.48 0 0 1 .283.294.445.445 0 0 0-.283-.294Zm-3.117-3.188.024-.009c.72-.293 4.246-2.08 4.649-2.383a.48.48 0 1 1 .578.768c-.422.317-4.111 2.199-4.866 2.506a1.078 1.078 0 0 1-.231.071l-.129.002-.116-.027-.111-.058-.082-.073-.101-.178a.48.48 0 0 1 .385-.619Zm.257.031a.478.478 0 0 1 .275.3.446.446 0 0 0-.275-.3Zm-3.458-3.321.024-.009c.72-.293 4.247-2.08 4.649-2.383a.48.48 0 1 1 .579.767c-.422.318-4.112 2.2-4.866 2.506a1.113 1.113 0 0 1-.231.071l-.13.003-.116-.027-.111-.059-.081-.072-.102-.179a.481.481 0 0 1 .385-.618Zm.257.031a.475.475 0 0 1 .275.3.442.442 0 0 0-.275-.3Zm-3.457-3.322.023-.009c.721-.292 4.247-2.08 4.65-2.383a.481.481 0 0 1 .578.768c-.422.318-4.111 2.199-4.866 2.506a1.096 1.096 0 0 1-.231.071l-.129.002-.116-.027-.111-.058-.082-.073-.102-.178a.48.48 0 0 1 .386-.619Zm.256.031a.484.484 0 0 1 .276.3.447.447 0 0 0-.276-.3Zm-4.132-3.058.024-.009c.72-.292 4.246-2.079 4.649-2.383a.481.481 0 0 1 .579.768c-.422.318-4.112 2.199-4.866 2.506a1.098 1.098 0 0 1-.232.071l-.129.003-.116-.028-.111-.058-.082-.073-.101-.178a.48.48 0 0 1 .385-.619Zm.257.031a.48.48 0 0 1 .275.301.445.445 0 0 0-.275-.301Zm-3.868-3.211.024-.01c.72-.292 4.246-2.079 4.649-2.383a.481.481 0 0 1 .578.768c-.422.318-4.111 2.199-4.866 2.506a1.078 1.078 0 0 1-.231.071l-.129.003-.116-.028-.111-.058-.082-.072-.101-.179a.48.48 0 0 1 .385-.618Zm.257.03a.48.48 0 0 1 .275.301.445.445 0 0 0-.275-.301Zm-3.483-3.168.023-.009c.721-.293 4.247-2.08 4.65-2.383a.48.48 0 1 1 .578.767c-.422.318-4.111 2.2-4.866 2.506a1.096 1.096 0 0 1-.231.071l-.129.003-.116-.027-.111-.059-.082-.072-.102-.179a.481.481 0 0 1 .386-.618Zm.256.031a.475.475 0 0 1 .275.3.44.44 0 0 0-.275-.3Zm-3.971-3.596.023-.009c.721-.292 4.247-2.08 4.65-2.383a.48.48 0 1 1 .578.768c-.422.318-4.111 2.199-4.866 2.506a1.096 1.096 0 0 1-.231.071l-.129.002-.116-.027-.111-.058-.082-.073-.102-.178a.48.48 0 0 1 .386-.619Zm.256.031a.484.484 0 0 1 .276.3.447.447 0 0 0-.276-.3Zm-3.796-3.533.023-.009c.721-.293 4.247-2.08 4.65-2.384a.481.481 0 0 1 .578.768c-.422.318-4.111 2.199-4.866 2.506a1.096 1.096 0 0 1-.231.071l-.13.003-.115-.028-.112-.058-.081-.072-.102-.179a.48.48 0 0 1 .386-.618Zm.256.03a.48.48 0 0 1 .275.301.445.445 0 0 0-.275-.301Zm-4.173-3.722.024-.009c.72-.293 4.246-2.08 4.649-2.383a.48.48 0 1 1 .578.767c-.422.318-4.111 2.2-4.865 2.506a1.098 1.098 0 0 1-.232.071l-.129.003-.116-.027-.111-.059-.082-.072-.101-.179a.48.48 0 0 1 .385-.618Zm.257.03a.48.48 0 0 1 .275.301.445.445 0 0 0-.275-.301Zm-4.173-3.722.023-.009c.721-.293 4.247-2.08 4.65-2.383a.48.48 0 1 1 .578.767c-.422.318-4.111 2.2-4.866 2.506a1.096 1.096 0 0 1-.231.071l-.129.003-.116-.027-.111-.059-.082-.072-.102-.178a.482.482 0 0 1 .386-.619Zm.256.031a.482.482 0 0 1 .276.3.443.443 0 0 0-.276-.3Zm-4.173-3.723.024-.009c.72-.293 4.246-2.08 4.649-2.383a.48.48 0 1 1 .578.767c-.421.318-4.111 2.2-4.865 2.506a1.098 1.098 0 0 1-.232.071l-.129.003-.116-.027-.111-.059-.082-.072-.101-.178a.482.482 0 0 1 .385-.619Zm.257.031a.478.478 0 0 1 .275.3.442.442 0 0 0-.275-.3Zm-4.173-3.723.023-.009c.721-.293 4.247-2.08 4.65-2.383a.481.481 0 0 1 .578.767c-.422.318-4.111 2.2-4.866 2.506a1.191 1.191 0 0 1-.231.072l-.129.002-.116-.027-.111-.059-.082-.072-.102-.178a.482.482 0 0 1 .386-.619Zm.256.031a.482.482 0 0 1 .276.3.443.443 0 0 0-.276-.3Z" style="fill:#cdb37e"/>
  <path d="M149.224 161.769s-.204-.224-.45-.471c-.725-.725-2.163-2.102-4.102-3.936-11.116-10.514-38.641-36.01-42.811-40.198a.601.601 0 0 1 .851-.848c4.69 4.71 38.924 36.373 46.112 43.348.871.845 1.364 1.373 1.422 1.476a.6.6 0 0 1-1.022.629Z" style="fill:#cdb37e"/>
  <path d="M101.727 92.125c2.538 3.116 1.915 7.831-1.39 10.523-3.305 2.692-8.049 2.348-10.587-.768-2.538-3.116-1.916-7.831 1.39-10.523 3.305-2.692 8.049-2.348 10.587.768Z" style="fill:#8d663e"/>
  <clipPath id="e">
    <path d="M101.727 92.125c2.538 3.116 1.915 7.831-1.39 10.523-3.305 2.692-8.049 2.348-10.587-.768-2.538-3.116-1.916-7.831 1.39-10.523 3.305-2.692 8.049-2.348 10.587.768Z"/>
  </clipPath>
  <g clip-path="url(#e)">
    <path d="M99.735 93.816c1.665 2.044 1.236 5.152-.957 6.938-2.192 1.786-5.324 1.577-6.988-.466-1.665-2.043-1.236-5.152.957-6.938 2.192-1.786 5.324-1.577 6.988.466Z" style="fill:#5f442a;stroke:#5f442a;stroke-width:.72px"/>
  </g>
  <path d="M101.727 92.125c2.538 3.116 1.915 7.831-1.39 10.523-3.305 2.692-8.049 2.348-10.587-.768-2.538-3.116-1.916-7.831 1.39-10.523 3.305-2.692 8.049-2.348 10.587.768Z" style="fill:none;stroke:#5f442a;stroke-width:1.68px"/>
</svg>