<svg xmlns="http://www.w3.org/2000/svg" xml:space="preserve" style="fill-rule:evenodd;clip-rule:evenodd;stroke-linecap:round;stroke-linejoin:round;stroke-miterlimit:1.5" viewBox="0 0 194 220">
  <path d="M0 0h193.996v220H0z" style="fill:none"/>
  <path d="M37.359 210.998C28.596 200.785 61.404 90.314 69.233 83.196c5.359-4.873 15.563-9.158 27.984-9.24 12.585-.083 25.861 3.586 30.515 9.894 9.446 12.805 27.299 126.008 17.177 130.37-15.07 6.495-100.265 5.268-107.55-3.222Z" style="fill:#9f6c48"/>
  
  <g >
    <path d="M64.406 215.926c-1.712-1.029 5.219-44.193 16.987-52.497 8.966-6.326 25.851-4.913 31.3 1.755 9.499 11.623 16.934 49.154 14.489 51.091-1.086.861-30.337 2.657-31.925 2.657-9.888 0-27.989-1.285-30.851-3.006Z" style="fill:#7e5536"/>
    <path d="m64.191 216.283-.119-.096-.114-.155c-.077-.137-.144-.365-.181-.681-.099-.83-.033-2.411.194-4.527.895-8.319 4.272-25.05 9.457-36.627 2.251-5.026 4.854-9.082 7.725-11.108 5.462-3.854 13.817-4.894 20.824-3.635 4.711.847 8.807 2.736 11.038 5.467 7.638 9.345 13.965 35.349 14.926 46.376.172 1.976.169 3.483-.017 4.345-.104.486-.285.802-.483.959-.088.07-.307.166-.655.244-.606.137-1.705.291-3.142.451-8.109.902-27.114 2.053-28.387 2.053-6.938 0-17.909-.632-24.851-1.603-3.048-.426-5.333-.933-6.215-1.463Zm.487-.681c.876.489 3.018.925 5.843 1.32 6.91.966 17.831 1.594 24.736 1.594 1.269 0 20.212-1.149 28.294-2.048 1.396-.156 2.464-.302 3.052-.435.141-.032.299-.085.334-.096a.569.569 0 0 0 .099-.201c.059-.165.102-.376.134-.63.107-.849.081-2.129-.059-3.737-.951-10.916-7.18-36.67-14.741-45.921-2.127-2.604-6.05-4.367-10.54-5.174-6.794-1.221-14.9-.242-20.197 3.495-2.778 1.961-5.267 5.906-7.445 10.769-5.149 11.497-8.5 28.113-9.389 36.375-.218 2.028-.29 3.544-.195 4.34.016.136.058.29.074.349Z" style="fill:#7e5536"/>
  </g>
  <path d="M36.727 211.541c-.867-1.011-1.423-2.898-1.603-5.531-.385-5.635.801-14.915 2.958-25.936 5.001-25.542 15.198-60.504 22.749-80.895 2.281-6.159 4.325-10.996 5.913-13.862.734-1.325 1.392-2.25 1.929-2.738 5.467-4.97 15.866-9.372 28.538-9.456 7.663-.05 15.577 1.275 21.703 3.722 4.19 1.674 7.55 3.884 9.488 6.511 2.297 3.114 5.123 12.077 7.892 23.981 6.389 27.467 12.672 70.704 12.455 92.887-.048 4.84-.409 8.694-1.129 11.197-.563 1.957-1.413 3.146-2.382 3.564-3.212 1.384-9.56 2.442-17.658 3.139-18.661 1.607-46.716 1.379-66.709-.63-8.634-.867-15.775-2.073-20.04-3.596-1.988-.71-3.383-1.518-4.104-2.357Zm1.264-1.085c.809.942 2.68 1.734 5.327 2.482 4.259 1.204 10.451 2.168 17.719 2.899 19.901 2 47.826 2.227 66.4.628 7.858-.677 14.025-1.666 17.142-3.01.271-.116.493-.368.706-.708.284-.455.524-1.056.734-1.787.691-2.402 1.019-6.105 1.064-10.752.217-22.09-6.049-65.143-12.412-92.494-2.695-11.588-5.373-20.338-7.609-23.369-1.785-2.42-4.908-4.412-8.766-5.953-5.948-2.376-13.634-3.652-21.074-3.603-12.17.08-22.178 4.249-27.429 9.023-.614.558-1.371 1.81-2.278 3.618-1.446 2.884-3.196 7.128-5.122 12.327-7.526 20.326-17.691 55.177-22.676 80.637-1.822 9.306-2.953 17.351-2.999 22.955-.017 2.17.126 3.962.467 5.303.198.78.453 1.393.806 1.804Z" style="fill:#765a44"/>
  <g>
  <path d="M111.049 84.287c.418-.189-20.672-2.007-21.134-2.622-.814-1.086-.826-3.265-1.021-4.58-.577-3.889-.822-7.8-1.156-11.716-.455-5.339-1.135-10.903-1.688-16.238-.439-4.24-.564-8.579-.989-12.819-.407-4.064-1.559-18.058-1.756-20.614-.154-2.001-.108-8.347.644-8.911.252-.189 23.084 4.598 23.142 4.772.608 1.823 4.361 71.921 3.958 72.728Z" style="fill:#d17700"/>
  <path d="m111.865 84.453-.004.036-.068.17-.013.032-.188.228-.2.127a.836.836 0 0 1-.677.004 7.907 7.907 0 0 0-.26-.041c-2.493-.35-13.954-1.398-18.652-2.087-1.024-.151-1.751-.295-2.048-.405l-.3-.153-.206-.199c-.391-.522-.647-1.247-.806-2.039-.2-1.003-.254-2.119-.373-2.919-.579-3.906-.826-7.834-1.162-11.767-.455-5.335-1.134-10.893-1.686-16.223-.44-4.241-.565-8.581-.99-12.822-.408-4.068-1.56-18.074-1.757-20.633-.127-1.646-.116-6.152.287-8.185.154-.78.45-1.278.687-1.456l.214-.116.311-.056c.095-.001.333.022.69.079 3.208.51 18.588 3.728 21.967 4.54.487.118.777.215.837.246l.281.234.132.248c.113.338.354 2.954.632 7.025 1.084 15.808 3.116 54.187 3.372 63.76.029 1.104.034 1.839.014 2.132l-.03.228-.004.012Zm-1.635-.319.006-.029v-.01l-.006.039Zm.008-.833a63.132 63.132 0 0 0-.018-1.175c-.256-9.563-2.286-47.9-3.368-63.692-.213-3.108-.373-5.318-.483-6.209a99.033 99.033 0 0 0-1.864-.434c-5.17-1.15-17.135-3.638-20.039-4.108a9.31 9.31 0 0 0-.19.999c-.256 2.135-.246 5.583-.141 6.952.197 2.554 1.348 16.535 1.754 20.595.425 4.239.55 8.577.989 12.816.554 5.341 1.234 10.909 1.69 16.253.333 3.899.576 7.792 1.15 11.665.115.777.164 1.862.359 2.836.088.44.2.857.386 1.184.272.059.928.195 1.582.291 4.456.653 15 1.629 18.193 2.027Z" style="fill:#684838"/>
  <path d="M98.391 95.32c-.672-.865-5.289-88.462-7.06-90.864-.748-1.014-2.799-.769-3.668-.761-1.118.009 7.037 90.472 7.031 91.241-.015 1.875 3.718.448 3.697.384Z" style="fill:#a95600"/>
  <path d="M98.967 95.078a.768.768 0 0 1 .019.051l.029.169-.026.205-.065.144-.114.138c-.036.034-.245.166-.587.288-.636.227-1.858.548-2.729.419-.492-.072-.889-.28-1.139-.616-.176-.237-.289-.543-.286-.945.006-.692-6.599-74.014-7.105-88.678-.036-1.058-.041-1.82-.011-2.239.021-.303.081-.495.125-.58l.092-.136.122-.111.162-.082.204-.035c.547-.005 1.541-.092 2.418.063.725.128 1.369.425 1.758.953.099.134.233.46.345.979.199.92.424 2.598.666 4.872 1.364 12.821 3.322 44.819 4.683 65.788.581 8.972 1.053 15.921 1.322 18.474.043.412.104.799.117.879ZM88.206 4.301c-.011.412-.02 1.126.007 1.909.506 14.673 7.111 88.038 7.106 88.731-.002.162.085.247.212.284.197.059.436.059.684.039a6.61 6.61 0 0 0 1.465-.324 19.339 19.339 0 0 1-.072-.61c-.27-2.56-.744-9.528-1.327-18.524-1.359-20.953-3.316-52.926-4.679-65.737-.235-2.212-.451-3.846-.644-4.74a5.575 5.575 0 0 0-.144-.521c-.211-.27-.574-.378-.956-.445-.557-.098-1.167-.082-1.652-.062Z" style="fill:#7d4312"/>
  <path d="M93.664 12.286a.416.416 0 0 1 .76.28l-.046.159-.118.163a.888.888 0 0 1-.301.177c-.49.184-1.686.232-1.907.26-.75.093-3.036.42-4.578.489-.754.034-1.35-.016-1.586-.134a.417.417 0 0 1 .372-.745.793.793 0 0 0 .239.043c.242.023.567.021.938.004 1.519-.068 3.773-.391 4.511-.484.142-.018.705-.039 1.198-.105.148-.02.289-.043.406-.073a1.96 1.96 0 0 0 .112-.034ZM94.389 20.853a.417.417 0 0 1 .76.28l-.046.159-.119.163a.868.868 0 0 1-.301.177c-.489.184-1.685.232-1.907.259-.749.094-3.036.421-4.577.49-.754.034-1.35-.016-1.587-.134a.417.417 0 0 1 .373-.745c.05.025.134.033.239.043.242.022.567.021.937.004 1.52-.068 3.774-.392 4.512-.484.142-.018.705-.039 1.198-.105.148-.02.289-.043.406-.073a1.96 1.96 0 0 0 .112-.034ZM94.699 29.82a.417.417 0 0 1 .76.28l-.046.159-.119.163a.904.904 0 0 1-.301.178c-.49.183-1.685.231-1.907.259-.749.094-3.036.42-4.578.489-.754.034-1.35-.016-1.586-.134a.416.416 0 0 1 .372-.745.795.795 0 0 0 .24.043c.242.023.566.021.937.004 1.519-.068 3.773-.391 4.511-.484.142-.017.705-.039 1.198-.105.148-.02.289-.043.407-.073.037-.009.082-.024.112-.034ZM95.833 38.522a.416.416 0 0 1 .76.279l-.046.159-.119.164a.888.888 0 0 1-.301.177c-.49.183-1.685.232-1.907.259-.749.094-3.036.42-4.578.49-.754.034-1.349-.016-1.586-.134a.416.416 0 0 1 .372-.745c.051.025.134.032.24.042.242.023.566.022.937.005 1.519-.069 3.773-.392 4.512-.484.141-.018.704-.04 1.198-.105.147-.02.288-.044.406-.073.037-.01.082-.024.112-.034ZM96.441 47.207a.417.417 0 0 1 .76.28l-.046.159-.119.163a.888.888 0 0 1-.301.177c-.49.184-1.685.232-1.907.26-.749.093-3.036.42-4.578.489-.754.034-1.349-.016-1.586-.134a.416.416 0 0 1 .372-.745.795.795 0 0 0 .24.043c.242.023.566.021.937.004 1.519-.068 3.773-.391 4.512-.484.141-.018.704-.039 1.198-.105.147-.02.288-.043.406-.073.037-.01.082-.024.112-.034Z" style="fill:#7d4312"/>
  <path d="M105.375 16.765a.343.343 0 0 0-.029-.011c-.713-.258-4.435-1.261-4.925-1.304a.416.416 0 1 1 .073-.829c.51.044 4.392 1.081 5.135 1.349.106.039.174.075.203.094l.085.074.059.084.038.103.01.094-.038.173a.415.415 0 0 1-.611.173Zm-.136-.154a.417.417 0 0 1-.01-.365.394.394 0 0 0 .01.365ZM105.286 20.912l-.028-.012c-.707-.275-4.403-1.368-4.892-1.422a.418.418 0 0 1-.368-.46.418.418 0 0 1 .461-.368c.509.057 4.364 1.188 5.101 1.474.105.041.172.078.2.098l.084.076.056.086.036.103.008.095-.042.172a.417.417 0 0 1-.616.158Zm-.132-.157a.417.417 0 0 1-.001-.365.394.394 0 0 0 .001.365ZM105.353 25.375l-.029-.011c-.706-.275-4.403-1.368-4.891-1.422a.417.417 0 0 1 .092-.828c.509.057 4.365 1.187 5.101 1.474a.996.996 0 0 1 .2.098l.084.076.057.086.035.103.009.094-.042.173a.416.416 0 0 1-.616.157Zm-.133-.156a.414.414 0 0 1 0-.365.394.394 0 0 0 0 .365ZM105.419 29.839a.324.324 0 0 0-.028-.011c-.707-.275-4.403-1.368-4.892-1.423a.417.417 0 0 1 .092-.827c.51.057 4.365 1.187 5.102 1.473.105.041.172.079.2.099l.083.076.057.086.036.103.008.094-.042.173a.416.416 0 0 1-.616.157Zm-.132-.157a.415.415 0 0 1-.001-.364.392.392 0 0 0 .001.364ZM106.139 34.567a.249.249 0 0 0-.029-.011c-.706-.275-4.403-1.368-4.891-1.423a.415.415 0 1 1 .092-.827c.509.056 4.365 1.187 5.101 1.473.106.041.172.079.201.098l.083.076.057.087.035.103.009.094-.042.173a.416.416 0 0 1-.616.157Zm-.133-.157a.414.414 0 0 1 0-.365.394.394 0 0 0 0 .365ZM106.569 39.228l-.029-.012c-.706-.275-4.403-1.368-4.891-1.422a.417.417 0 0 1 .092-.828c.509.057 4.365 1.187 5.101 1.474a.996.996 0 0 1 .2.098l.084.076.057.086.035.103.009.094-.043.173a.416.416 0 0 1-.615.158Zm-.133-.157a.414.414 0 0 1 0-.365.394.394 0 0 0 0 .365ZM106.755 43.601l-.028-.012c-.707-.275-4.403-1.368-4.892-1.422a.417.417 0 0 1 .092-.828c.51.057 4.365 1.187 5.102 1.474.105.041.172.078.2.098l.083.076.057.086.036.103.008.094-.042.173a.418.418 0 0 1-.616.158Zm-.132-.157a.417.417 0 0 1-.001-.365.394.394 0 0 0 .001.365ZM107.002 48.602l-.028-.012c-.707-.275-4.403-1.368-4.892-1.422a.418.418 0 0 1-.368-.46.418.418 0 0 1 .461-.368c.509.057 4.364 1.187 5.101 1.474.105.041.172.078.2.098l.084.076.056.086.036.103.008.094-.042.173a.417.417 0 0 1-.616.158Zm-.132-.157a.417.417 0 0 1-.001-.365.394.394 0 0 0 .001.365ZM107.167 53.442l-.028-.012c-.707-.274-4.403-1.367-4.892-1.422a.417.417 0 0 1 .092-.828c.51.057 4.365 1.188 5.102 1.474.105.041.172.079.2.098l.083.076.057.087.036.103.008.094-.042.173a.417.417 0 0 1-.616.157Zm-.132-.157a.417.417 0 0 1-.001-.365.391.391 0 0 0 .001.365ZM107.472 58.668a.858.858 0 0 0-.029-.012c-.706-.275-4.403-1.368-4.891-1.422a.417.417 0 0 1 .092-.828c.509.057 4.365 1.187 5.101 1.474a.996.996 0 0 1 .2.098l.084.076.057.086.035.103.009.095-.043.172a.416.416 0 0 1-.615.158Zm-.133-.157a.414.414 0 0 1 0-.365.394.394 0 0 0 0 .365ZM107.776 63.893a.324.324 0 0 0-.028-.011c-.707-.275-4.403-1.368-4.892-1.423a.417.417 0 0 1 .092-.827c.51.057 4.365 1.187 5.102 1.473.105.041.172.079.2.099l.084.076.056.086.036.103.008.094-.042.173a.416.416 0 0 1-.616.157Zm-.132-.157a.415.415 0 0 1-.001-.364.392.392 0 0 0 .001.364ZM108.081 69.119l-.029-.012c-.706-.274-4.403-1.367-4.891-1.422a.416.416 0 1 1 .092-.828c.509.057 4.365 1.188 5.101 1.474.106.041.172.078.201.098l.083.076.057.086.035.103.009.095-.042.173a.418.418 0 0 1-.616.157Zm-.133-.157a.414.414 0 0 1 0-.365.394.394 0 0 0 0 .365ZM108.385 74.345l-.028-.012c-.707-.275-4.403-1.368-4.892-1.422a.418.418 0 0 1-.368-.46.418.418 0 0 1 .461-.368c.509.057 4.364 1.187 5.101 1.474.105.041.172.078.2.098l.084.076.056.086.036.103.008.094-.042.173a.416.416 0 0 1-.616.158Zm-.132-.157a.417.417 0 0 1-.001-.365.394.394 0 0 0 .001.365Z" style="fill:#e0a675"/>
  <path d="M103.299 13.7s-.007.307.003.659c.028.998.126 2.933.273 5.527.84 14.855 3.282 51.259 3.434 57.005a.416.416 0 1 1-.832.022c-.171-6.462-3.24-51.712-3.666-61.443-.051-1.152-.052-1.837-.025-1.946a.416.416 0 0 1 .813.176Z" style="fill:#fbd293"/>
  <path d="M97.098 55.93a.417.417 0 0 1 .76.28l-.046.159-.119.163a.862.862 0 0 1-.301.178c-.49.183-1.685.231-1.907.259-.749.094-3.036.42-4.577.489-.755.034-1.35-.016-1.587-.134a.416.416 0 1 1 .373-.745c.05.026.134.033.239.043.242.023.567.021.937.004 1.52-.068 3.773-.391 4.512-.483.142-.018.704-.04 1.198-.106a3.51 3.51 0 0 0 .406-.073c.037-.009.082-.024.112-.034ZM98.31 64.602a.416.416 0 0 1 .76.279l-.046.159-.119.164a.868.868 0 0 1-.301.177c-.489.184-1.685.232-1.906.259-.75.094-3.037.42-4.578.49-.754.034-1.35-.016-1.586-.134a.417.417 0 1 1 .372-.745c.05.025.134.032.239.042.242.023.567.022.938.005 1.519-.069 3.773-.392 4.511-.484.142-.018.705-.04 1.198-.105.148-.02.289-.043.406-.073a1.96 1.96 0 0 0 .112-.034ZM99.21 73.565a.416.416 0 0 1 .76.28l-.046.159-.119.163a.884.884 0 0 1-.301.178c-.489.183-1.685.231-1.907.259-.749.093-3.036.42-4.577.489-.754.034-1.35-.016-1.587-.134a.417.417 0 0 1 .373-.745c.05.025.134.033.239.043.242.023.567.021.937.004 1.52-.068 3.774-.391 4.512-.484.142-.017.704-.039 1.198-.105.148-.02.289-.043.406-.073.038-.009.082-.024.112-.034Z" style="fill:#7d4312"/>
  <path d="M110.506 112.647c.187.419 2.105-20.661 2.723-21.12 1.089-.809 3.269-.811 4.585-.999 3.892-.558 7.803-.785 11.721-1.1 5.342-.429 10.908-1.082 16.247-1.61 4.242-.419 8.581-.523 12.824-.927 4.066-.388 18.065-1.472 20.622-1.657 2.002-.145 8.347-.067 8.908.687.188.253-4.708 23.061-4.882 23.118-1.826.599-71.943 4.015-72.748 3.608Z" style="fill:#d17700"/>
  <path d="m109.745 112.309.042-.259c.362-2.492 1.465-13.947 2.176-18.641.155-1.024.303-1.75.414-2.046l.155-.3.2-.205c.524-.389 1.25-.641 2.043-.796 1.003-.196 2.12-.244 2.92-.359 3.91-.56 7.838-.788 11.774-1.105 5.336-.429 10.897-1.082 16.231-1.609 4.243-.419 8.583-.523 12.827-.928 4.069-.387 18.081-1.473 20.641-1.658 1.647-.119 6.153-.086 8.184.327.779.158 1.276.456 1.452.694l.116.215.054.311c.001.095-.023.332-.082.689-.526 3.206-3.816 18.57-4.645 21.945-.12.486-.219.776-.25.835l-.236.281-.248.131c-.338.111-2.955.339-7.028.598-15.814 1.007-54.203 2.855-63.777 3.065-1.105.024-1.84.025-2.132.003l-.228-.03-.012-.004-.036-.004-.17-.069-.032-.014-.226-.188-.126-.202a.828.828 0 0 1-.001-.677Zm.957-.474-.039-.006.028.006h.011Zm.794.006c.328 0 .733-.003 1.175-.013 9.565-.209 47.911-2.055 63.708-3.061 3.11-.198 5.32-.348 6.212-.453.101-.406.267-1.085.443-1.861 1.175-5.166 3.72-17.118 4.204-20.019a9.025 9.025 0 0 0-.998-.195c-2.134-.266-5.583-.273-6.952-.174-2.555.184-16.541 1.267-20.603 1.655-4.242.404-8.58.508-12.821.927-5.344.528-10.915 1.181-16.262 1.611-3.901.314-7.795.538-11.67 1.094-.778.112-1.863.155-2.838.345-.44.086-.858.196-1.186.381-.06.272-.199.927-.298 1.58-.675 4.453-1.701 14.992-2.114 18.183Z" style="fill:#684838"/>
  <path d="M99.533 99.937c.869-.669 88.488-4.864 90.899-6.623 1.017-.743.782-2.795.779-3.664-.004-1.118-90.507 6.601-91.276 6.592-1.875-.024-.466 3.715-.402 3.695Z" style="fill:#a95600"/>
  <path d="M99.772 100.514a.424.424 0 0 1-.05.018l-.17.029-.205-.028-.143-.065-.138-.114c-.034-.037-.164-.247-.285-.588-.225-.638-.54-1.862-.407-2.732.076-.491.285-.887.622-1.136.238-.174.545-.286.946-.281.693.009 74.047-6.243 88.714-6.679 1.058-.031 1.82-.031 2.239 0 .303.023.495.083.579.128l.136.092.11.123.081.162.034.204c.002.547.085 1.542-.074 2.418-.131.724-.431 1.367-.961 1.753-.135.099-.462.232-.981.341-.921.194-2.6.411-4.875.642-12.828 1.302-44.836 3.107-65.812 4.366-8.974.539-15.926.978-18.48 1.234-.412.041-.799.1-.88.113Zm.144-1.287c.168-.022.372-.045.611-.069 2.562-.257 9.532-.697 18.53-1.238 20.96-1.258 52.943-3.061 65.761-4.362 2.213-.224 3.847-.432 4.743-.621a5.48 5.48 0 0 0 .521-.142c.271-.21.381-.572.45-.953.101-.557.088-1.167.07-1.652a32.508 32.508 0 0 0-1.909-.003c-14.675.436-88.074 6.688-88.766 6.679-.163-.002-.248.085-.286.211-.059.197-.061.436-.041.684.041.527.191 1.088.316 1.466Z" style="fill:#7d4312"/>
  <path d="M182.591 95.609a.416.416 0 0 1-.283.759l-.159-.047-.163-.119a.883.883 0 0 1-.176-.302c-.181-.491-.223-1.686-.25-1.908-.09-.75-.406-3.038-.468-4.58-.03-.754.023-1.35.142-1.586a.417.417 0 0 1 .743.376c-.025.051-.033.134-.044.239a7.22 7.22 0 0 0-.009.938c.062 1.519.374 3.774.463 4.513.017.142.036.705.099 1.199.019.148.042.289.071.406.01.038.024.082.034.112ZM174.021 96.293a.416.416 0 0 1-.284.759l-.159-.047-.162-.12a.888.888 0 0 1-.177-.301c-.18-.491-.223-1.687-.25-1.909-.09-.749-.405-3.038-.467-4.579-.031-.755.022-1.35.141-1.586a.418.418 0 0 1 .56-.184.418.418 0 0 1 .184.56.752.752 0 0 0-.044.239 7.207 7.207 0 0 0-.009.937c.061 1.52.373 3.775.462 4.514.017.142.037.705.1 1.198.019.148.042.289.071.407.009.037.024.082.034.112ZM165.052 96.559a.417.417 0 0 1-.284.759l-.159-.047-.162-.119a.893.893 0 0 1-.177-.302c-.18-.491-.223-1.686-.249-1.908-.091-.75-.406-3.038-.468-4.58-.031-.754.022-1.35.142-1.586a.415.415 0 1 1 .743.376.758.758 0 0 0-.044.239 7.207 7.207 0 0 0-.009.937c.061 1.52.374 3.775.462 4.514.017.142.037.705.1 1.199.019.147.042.289.071.406.009.038.024.082.034.112ZM156.345 97.652a.416.416 0 0 1-.284.758l-.159-.046-.163-.12a.9.9 0 0 1-.176-.302c-.18-.491-.223-1.686-.25-1.908-.09-.75-.405-3.038-.467-4.58-.031-.754.022-1.35.141-1.586a.417.417 0 0 1 .744.376.76.76 0 0 0-.044.24 7.205 7.205 0 0 0-.009.937c.061 1.519.373 3.775.462 4.513.017.142.036.705.1 1.199.019.148.042.289.071.407.009.037.024.082.034.112ZM147.656 98.218a.417.417 0 0 1-.283.758l-.159-.046-.163-.12a.883.883 0 0 1-.176-.302c-.181-.49-.223-1.686-.25-1.908-.09-.749-.405-3.038-.467-4.58-.031-.754.022-1.349.141-1.585a.417.417 0 0 1 .743.376.78.78 0 0 0-.043.239 7.03 7.03 0 0 0-.009.937c.061 1.52.373 3.775.462 4.514.017.142.036.704.1 1.198.019.148.042.289.071.407.009.037.023.082.033.112Z" style="fill:#7d4312"/>
  <path d="M178.056 107.298a.249.249 0 0 0 .011-.029c.261-.712 1.282-4.429 1.327-4.918a.417.417 0 0 1 .83.076c-.047.51-1.103 4.387-1.375 5.129a1.044 1.044 0 0 1-.094.202l-.074.085-.085.059-.103.037-.094.01-.173-.039a.415.415 0 0 1-.17-.612Zm.155-.136a.415.415 0 0 1 .364-.007.39.39 0 0 0-.364.007ZM173.91 107.19l.011-.029c.278-.705 1.389-4.396 1.446-4.885a.416.416 0 1 1 .827.097c-.059.509-1.208 4.359-1.498 5.094a.992.992 0 0 1-.099.199l-.076.084-.087.056-.103.035-.094.008-.173-.043a.418.418 0 0 1-.154-.616Zm.157-.132a.414.414 0 0 1 .365.001.39.39 0 0 0-.365-.001ZM169.445 107.235l.012-.029c.278-.705 1.389-4.396 1.446-4.885a.416.416 0 1 1 .827.097c-.059.509-1.208 4.359-1.498 5.094a1.051 1.051 0 0 1-.099.199l-.077.084-.086.056-.103.035-.095.008-.172-.043a.418.418 0 0 1-.155-.616Zm.158-.132a.414.414 0 0 1 .365.001.39.39 0 0 0-.365-.001ZM164.981 107.28l.012-.029c.278-.705 1.389-4.396 1.446-4.885a.416.416 0 0 1 .827.097c-.059.509-1.208 4.359-1.498 5.094a1.051 1.051 0 0 1-.099.199l-.077.084-.086.056-.103.035-.095.008-.172-.043a.418.418 0 0 1-.155-.616Zm.158-.132a.414.414 0 0 1 .365.001.39.39 0 0 0-.365-.001ZM160.25 107.976l.012-.028c.278-.705 1.388-4.396 1.445-4.885a.417.417 0 0 1 .827.097c-.059.509-1.208 4.358-1.498 5.094a.992.992 0 0 1-.099.199l-.076.083-.087.057-.103.035-.094.008-.173-.043a.417.417 0 0 1-.154-.617Zm.157-.131a.414.414 0 0 1 .365.001.39.39 0 0 0-.365-.001ZM155.587 108.384l.012-.029c.278-.705 1.389-4.396 1.446-4.884a.416.416 0 1 1 .827.096c-.059.509-1.208 4.359-1.498 5.094a1.072 1.072 0 0 1-.099.2l-.077.083-.086.056-.103.035-.095.008-.172-.043a.417.417 0 0 1-.155-.616Zm.158-.132a.414.414 0 0 1 .365.001.394.394 0 0 0-.365-.001ZM151.213 108.549l.012-.028c.278-.705 1.389-4.397 1.446-4.885a.415.415 0 1 1 .827.096c-.059.509-1.208 4.359-1.498 5.094a1.038 1.038 0 0 1-.099.2l-.077.083-.086.057-.103.035-.095.008-.172-.043a.418.418 0 0 1-.155-.617Zm.158-.131a.414.414 0 0 1 .365.001.39.39 0 0 0-.365-.001ZM146.211 108.772l.012-.028c.278-.705 1.389-4.396 1.445-4.885a.417.417 0 0 1 .828.096c-.06.509-1.208 4.359-1.498 5.095-.042.105-.08.171-.099.199l-.077.083-.086.057-.104.035-.094.008-.172-.043a.416.416 0 0 1-.155-.617Zm.158-.131a.414.414 0 0 1 .365.001.39.39 0 0 0-.365-.001ZM141.37 108.914l.012-.028c.278-.706 1.388-4.397 1.445-4.885a.417.417 0 1 1 .827.096c-.059.509-1.208 4.359-1.498 5.094a1.01 1.01 0 0 1-.099.2l-.076.083-.087.056-.103.035-.094.008-.173-.043a.415.415 0 0 1-.154-.616Zm.157-.132a.417.417 0 0 1 .365.001.397.397 0 0 0-.365-.001ZM136.143 109.193a.324.324 0 0 0 .011-.028c.279-.705 1.389-4.396 1.446-4.885a.416.416 0 0 1 .827.096c-.059.509-1.208 4.359-1.498 5.095a.992.992 0 0 1-.099.199l-.076.083-.087.057-.103.035-.094.008-.173-.043a.418.418 0 0 1-.154-.617Zm.157-.131a.414.414 0 0 1 .365.001.39.39 0 0 0-.365-.001ZM130.916 109.473l.011-.029c.278-.705 1.389-4.396 1.446-4.884a.416.416 0 1 1 .827.096c-.059.509-1.208 4.359-1.498 5.094a1.01 1.01 0 0 1-.099.2l-.076.083-.087.056-.103.035-.094.008-.173-.043a.417.417 0 0 1-.154-.616Zm.157-.132a.414.414 0 0 1 .365.001.394.394 0 0 0-.365-.001ZM125.688 109.752l.012-.028c.278-.706 1.389-4.397 1.446-4.885a.415.415 0 1 1 .827.096c-.059.509-1.208 4.359-1.498 5.094a1.072 1.072 0 0 1-.099.2l-.077.083-.086.057-.103.035-.095.007-.172-.042a.418.418 0 0 1-.155-.617Zm.158-.132a.42.42 0 0 1 .365.001.397.397 0 0 0-.365-.001ZM120.461 110.032l.012-.029c.278-.705 1.389-4.396 1.445-4.885a.417.417 0 0 1 .828.097c-.059.509-1.208 4.359-1.498 5.094a1.051 1.051 0 0 1-.099.199l-.077.084-.086.056-.103.035-.095.008-.172-.043a.416.416 0 0 1-.155-.616Zm.158-.132a.414.414 0 0 1 .365.001.39.39 0 0 0-.365-.001Z" style="fill:#e0a675"/>
  <path d="M181.131 105.237s-.307-.008-.659 0c-.998.023-2.934.112-5.528.246-14.86.769-51.276 3.036-57.022 3.16a.417.417 0 1 1-.018-.832c6.462-.14 51.728-2.991 61.461-3.371 1.152-.045 1.837-.043 1.945-.015a.417.417 0 0 1-.179.812Z" style="fill:#fbd293"/>
  <path d="M138.93 98.833a.416.416 0 0 1-.284.759l-.159-.047-.162-.12a.888.888 0 0 1-.177-.301c-.18-.491-.223-1.687-.25-1.909-.09-.749-.405-3.038-.467-4.579-.031-.755.022-1.35.142-1.586a.417.417 0 0 1 .743.376c-.026.05-.034.134-.044.239a7.207 7.207 0 0 0-.009.937c.061 1.52.373 3.775.462 4.514.017.142.037.705.1 1.198.019.148.042.289.071.407.009.037.024.082.034.112ZM130.252 100.004a.416.416 0 0 1-.283.758l-.159-.046-.163-.12a.883.883 0 0 1-.176-.302c-.181-.491-.223-1.686-.25-1.908-.09-.75-.405-3.038-.468-4.58-.03-.754.023-1.35.142-1.586a.417.417 0 0 1 .743.376.795.795 0 0 0-.043.24 7.03 7.03 0 0 0-.009.937c.061 1.519.373 3.775.462 4.513.017.142.036.705.1 1.199.019.148.041.289.071.407.009.037.023.082.033.112ZM121.285 100.86a.417.417 0 0 1-.284.759l-.159-.047-.162-.119a.893.893 0 0 1-.177-.302c-.18-.491-.223-1.686-.25-1.908-.09-.75-.405-3.038-.467-4.58-.031-.754.022-1.35.141-1.586a.417.417 0 0 1 .744.376.758.758 0 0 0-.044.239 7.207 7.207 0 0 0-.009.937c.061 1.52.373 3.775.462 4.514.017.142.037.705.1 1.199.019.147.042.289.071.406.009.038.024.082.034.112Z" style="fill:#7d4312"/>
  <path d="M81.213 108.194c-.43.16 20.488 3.402 20.907 4.048.739 1.138.603 3.313.709 4.638.312 3.92.291 7.838.359 11.768.092 5.358.394 10.954.584 16.315.151 4.26-.018 8.597.118 12.856.131 4.083.332 18.122.355 20.686.019 2.007-.458 8.335-1.246 8.846-.265.172-22.72-6.151-22.766-6.329-.483-1.859.523-72.051.98-72.828Z" style="fill:#d17700"/>
  <path d="m80.409 107.973.007-.036.079-.165.016-.031.202-.215.209-.113a.833.833 0 0 1 .676.042l.256.059c2.464.518 13.828 2.34 18.468 3.346 1.011.219 1.727.413 2.016.542l.289.173.192.213c.355.547.561 1.288.665 2.089.133 1.014.111 2.131.175 2.937.313 3.937.293 7.872.362 11.819.092 5.353.393 10.944.583 16.3.151 4.261-.018 8.6.119 12.86.131 4.086.332 18.138.355 20.704.015 1.651-.301 6.146-.841 8.147-.207.768-.536 1.244-.785 1.406l-.221.102-.314.034a5.209 5.209 0 0 1-.683-.125c-3.166-.727-18.293-4.979-21.608-6.019-.479-.15-.761-.267-.819-.302l-.265-.252-.115-.256c-.089-.345-.152-2.971-.155-7.052-.009-15.846.564-54.274.957-63.842.046-1.104.091-1.837.131-2.128l.044-.226.005-.011Zm1.61.429-.007.028-.001.01.008-.038Zm-.064.831c-.021.327-.043.731-.061 1.173-.394 9.558-.965 47.945-.956 63.773.002 3.116.012 5.331.061 6.228.399.126 1.066.334 1.83.559 5.081 1.498 16.85 4.791 19.715 5.457.082-.262.192-.64.257-.984.4-2.113.624-5.554.611-6.927-.023-2.561-.223-16.588-.354-20.666-.137-4.258.033-8.595-.118-12.854-.191-5.365-.492-10.967-.585-16.33-.067-3.912-.046-7.813-.357-11.716-.062-.783-.037-1.868-.165-2.853-.059-.445-.142-.869-.306-1.208a25.646 25.646 0 0 0-1.558-.397c-4.401-.954-14.855-2.643-18.014-3.255Z" style="fill:#684838"/>
  <path d="M94.589 98.044c.612.909-.717 88.616.887 91.133.677 1.062 2.74.957 3.608 1.008 1.116.066-.891-90.74-.832-91.508.141-1.869-3.679-.698-3.663-.633Z" style="fill:#a95600"/>
  <path d="M93.998 98.246a.444.444 0 0 1-.015-.052l-.018-.171.04-.202.074-.139.123-.131c.039-.031.257-.148.605-.247.651-.184 1.892-.421 2.752-.234.485.106.868.34 1.094.692.16.248.252.562.222.962-.053.691 1.568 74.291 1.08 88.956-.036 1.058-.083 1.818-.141 2.234-.042.302-.114.489-.164.571l-.101.129-.129.102-.167.072-.206.021c-.546-.033-1.544-.013-2.409-.227-.714-.177-1.336-.517-1.689-1.069-.09-.142-.202-.476-.278-1.001-.136-.931-.247-2.621-.334-4.906-.492-12.884-.278-44.941-.214-65.954.027-8.99.027-15.955-.068-18.521-.015-.414-.05-.804-.057-.885Zm1.275.225c.011.168.022.373.031.613.095 2.573.095 9.557.068 18.572-.064 20.996-.278 53.028.213 65.903.085 2.223.19 3.867.322 4.772.035.241.098.49.108.53.193.283.548.415.924.509.549.136 1.159.161 1.644.174.039-.411.097-1.122.123-1.905.489-14.674-1.13-88.318-1.077-89.009.012-.162-.069-.252-.193-.298-.192-.072-.431-.089-.68-.085a6.555 6.555 0 0 0-1.483.224Z" style="fill:#7d4312"/>
  <path d="M93.678 181.207a.416.416 0 0 1-.739-.33l.057-.156.129-.155a.892.892 0 0 1 .313-.157c.501-.149 1.697-.116 1.92-.129.754-.043 3.057-.213 4.6-.178.755.017 1.346.107 1.574.241a.417.417 0 0 1-.422.718c-.049-.028-.132-.041-.236-.059a7.202 7.202 0 0 0-.935-.067c-1.52-.035-3.791.134-4.534.177-.143.008-.706-.009-1.202.023-.149.01-.291.024-.411.046a1.971 1.971 0 0 0-.114.026ZM93.536 172.611a.417.417 0 0 1-.74-.331l.057-.155.13-.155a.878.878 0 0 1 .312-.157c.501-.15 1.697-.117 1.92-.129.754-.043 3.058-.214 4.6-.178.755.017 1.346.107 1.574.241a.416.416 0 1 1-.422.718c-.049-.029-.131-.042-.236-.059a7.36 7.36 0 0 0-.935-.068c-1.52-.034-3.791.135-4.534.177-.142.008-.705-.008-1.202.024-.149.01-.291.024-.41.045a1.62 1.62 0 0 0-.114.027ZM93.835 163.643a.417.417 0 0 1-.74-.33l.057-.156.13-.155a.886.886 0 0 1 .312-.157c.501-.149 1.697-.116 1.92-.129.754-.043 3.058-.213 4.6-.178.755.017 1.346.107 1.574.241a.416.416 0 1 1-.422.718c-.049-.028-.131-.041-.236-.059a7.202 7.202 0 0 0-.935-.067c-1.52-.035-3.791.134-4.534.177-.142.008-.705-.009-1.202.023-.149.01-.291.024-.41.046a1.652 1.652 0 0 0-.114.026ZM93.293 154.885a.417.417 0 0 1-.739-.331l.056-.155.13-.155a.878.878 0 0 1 .312-.157c.501-.15 1.697-.117 1.92-.129.754-.043 3.058-.214 4.6-.179.755.018 1.346.108 1.574.242a.416.416 0 1 1-.422.718c-.049-.029-.131-.042-.236-.059a7.36 7.36 0 0 0-.935-.068c-1.52-.035-3.791.135-4.534.177-.142.008-.705-.008-1.202.024-.149.01-.291.024-.41.045a1.62 1.62 0 0 0-.114.027ZM93.275 146.178a.417.417 0 0 1-.74-.33l.057-.156.13-.155a.886.886 0 0 1 .312-.156c.501-.15 1.697-.117 1.92-.13.754-.042 3.058-.213 4.6-.178.755.017 1.346.108 1.574.241a.417.417 0 0 1-.422.719c-.049-.029-.131-.042-.236-.059-.24-.04-.564-.06-.935-.068-1.52-.035-3.791.135-4.534.177-.142.008-.705-.008-1.202.024a3.495 3.495 0 0 0-.41.045 1.652 1.652 0 0 0-.114.026Z" style="fill:#7d4312"/>
  <path d="m82.298 175.945.028.013c.694.305 4.34 1.558 4.825 1.634a.417.417 0 1 1-.128.823c-.506-.079-4.309-1.376-5.032-1.695a.994.994 0 0 1-.196-.106l-.08-.08-.053-.089-.031-.104-.004-.095.049-.17a.416.416 0 0 1 .622-.131Zm.126.163a.417.417 0 0 1-.015.364.394.394 0 0 0 .015-.364ZM82.668 171.814a.69.69 0 0 0 .027.013c.687.322 4.301 1.663 4.784 1.751a.416.416 0 1 1-.148.819c-.504-.091-4.274-1.48-4.99-1.816a1.102 1.102 0 0 1-.193-.111l-.078-.082-.051-.09-.028-.105-.002-.095.054-.169a.416.416 0 0 1 .625-.115Zm.121.165a.414.414 0 0 1-.024.364.392.392 0 0 0 .024-.364ZM82.904 167.356l.027.013c.687.322 4.301 1.663 4.785 1.751a.416.416 0 0 1-.149.819c-.504-.091-4.274-1.48-4.989-1.816a1.026 1.026 0 0 1-.193-.111l-.079-.082-.051-.09-.028-.105-.002-.095.054-.169a.416.416 0 0 1 .625-.115Zm.121.165a.411.411 0 0 1-.024.364.392.392 0 0 0 .024-.364ZM83.14 162.898l.028.013c.686.322 4.3 1.663 4.784 1.751a.415.415 0 1 1-.148.819c-.505-.091-4.275-1.48-4.99-1.816a1.026 1.026 0 0 1-.193-.111l-.079-.082-.05-.09-.029-.105-.002-.095.054-.169a.416.416 0 0 1 .625-.115Zm.121.165a.414.414 0 0 1-.023.364.395.395 0 0 0 .023-.364ZM82.742 158.132l.028.013c.686.322 4.3 1.663 4.784 1.751a.417.417 0 1 1-.148.819c-.504-.091-4.274-1.48-4.99-1.816a1.102 1.102 0 0 1-.193-.111l-.078-.082-.051-.09-.028-.105-.002-.094.053-.17a.418.418 0 0 1 .625-.115Zm.122.165a.418.418 0 0 1-.024.364.392.392 0 0 0 .024-.364ZM82.629 153.453l.028.013c.686.322 4.3 1.663 4.784 1.751a.417.417 0 0 1-.148.819c-.504-.091-4.274-1.48-4.99-1.816a1.039 1.039 0 0 1-.193-.111l-.078-.081-.051-.09-.028-.106-.002-.094.053-.17a.418.418 0 0 1 .625-.115Zm.122.166a.418.418 0 0 1-.024.364.393.393 0 0 0 .024-.364ZM82.739 149.077l.028.014c.686.322 4.3 1.663 4.784 1.75a.417.417 0 0 1-.148.82c-.504-.091-4.274-1.481-4.99-1.816a1.023 1.023 0 0 1-.193-.112l-.078-.081-.051-.09-.028-.105-.002-.095.054-.169a.416.416 0 0 1 .624-.116Zm.122.166a.415.415 0 0 1-.024.364.392.392 0 0 0 .024-.364ZM82.832 144.071l.027.014c.687.322 4.301 1.663 4.785 1.75a.416.416 0 0 1-.149.82c-.504-.092-4.274-1.481-4.989-1.816a.957.957 0 0 1-.193-.112l-.079-.081-.051-.09-.028-.105-.002-.095.054-.17a.417.417 0 0 1 .625-.115Zm.121.166a.412.412 0 0 1-.024.364.392.392 0 0 0 .024-.364ZM82.995 139.231l.028.013c.686.322 4.3 1.663 4.784 1.751a.416.416 0 1 1-.148.819c-.504-.091-4.274-1.48-4.99-1.816a1.102 1.102 0 0 1-.193-.111l-.078-.082-.051-.09-.028-.105-.002-.094.053-.17a.418.418 0 0 1 .625-.115Zm.122.165a.418.418 0 0 1-.024.364.392.392 0 0 0 .024-.364ZM83.045 133.996l.028.014c.687.322 4.301 1.663 4.784 1.75a.416.416 0 1 1-.148.82c-.504-.091-4.274-1.48-4.99-1.816a1.023 1.023 0 0 1-.193-.112l-.078-.081-.051-.09-.028-.105-.002-.095.054-.169a.415.415 0 0 1 .624-.116Zm.122.166a.415.415 0 0 1-.024.364.392.392 0 0 0 .024-.364ZM83.096 128.762l.027.014c.687.322 4.301 1.663 4.785 1.75a.416.416 0 0 1-.149.82c-.504-.092-4.274-1.481-4.989-1.816a.957.957 0 0 1-.193-.112l-.079-.081-.051-.09-.028-.105-.002-.095.054-.17a.417.417 0 0 1 .625-.115Zm.121.166a.412.412 0 0 1-.024.364.392.392 0 0 0 .024-.364ZM83.146 123.528l.028.013c.686.322 4.3 1.663 4.784 1.751a.416.416 0 1 1-.148.819c-.505-.091-4.275-1.48-4.99-1.816a1.004 1.004 0 0 1-.193-.111l-.078-.082-.051-.089-.029-.106-.002-.094.054-.17a.418.418 0 0 1 .625-.115Zm.122.166a.418.418 0 0 1-.024.364.395.395 0 0 0 .024-.364ZM83.196 118.294l.028.013c.686.322 4.3 1.663 4.784 1.751a.416.416 0 1 1-.148.819c-.504-.091-4.274-1.48-4.99-1.816a1.102 1.102 0 0 1-.193-.111l-.078-.082-.051-.09-.028-.105-.002-.094.053-.17a.418.418 0 0 1 .625-.115Zm.122.165a.418.418 0 0 1-.024.364.392.392 0 0 0 .024-.364Z" style="fill:#e0a675"/>
  <path d="M84.162 179.143s.027-.305.041-.657c.04-.998.073-2.935.103-5.533.168-14.878.198-51.363.436-57.106a.415.415 0 1 1 .832.034c-.267 6.459-.272 51.812-.506 61.55-.027 1.153-.072 1.836-.107 1.943a.417.417 0 0 1-.799-.231Z" style="fill:#fbd293"/>
  <path d="M93.21 137.431a.417.417 0 0 1-.739-.331l.056-.156.13-.155a.895.895 0 0 1 .312-.156c.501-.15 1.697-.117 1.92-.13.754-.042 3.058-.213 4.601-.178.755.017 1.345.108 1.573.242a.417.417 0 0 1-.422.718c-.048-.029-.131-.042-.236-.059a6.99 6.99 0 0 0-.934-.068c-1.521-.035-3.791.135-4.534.177-.143.008-.706-.008-1.203.024a3.52 3.52 0 0 0-.41.045 1.284 1.284 0 0 0-.114.027ZM92.588 128.697a.417.417 0 0 1-.739-.331l.056-.155.13-.155a.878.878 0 0 1 .312-.157c.501-.15 1.697-.117 1.921-.129.753-.043 3.057-.214 4.6-.178.755.017 1.346.107 1.573.241a.416.416 0 1 1-.422.718c-.048-.029-.131-.042-.235-.059a7.36 7.36 0 0 0-.935-.068c-1.521-.034-3.791.135-4.534.177-.143.008-.706-.008-1.203.024-.148.01-.291.024-.41.045-.038.007-.083.019-.114.027ZM92.298 119.693a.417.417 0 0 1-.74-.331l.057-.155.13-.155a.886.886 0 0 1 .312-.157c.501-.149 1.697-.116 1.92-.129.754-.043 3.058-.213 4.6-.178.755.017 1.346.107 1.574.241a.416.416 0 1 1-.422.718c-.049-.028-.131-.041-.236-.059a7.202 7.202 0 0 0-.935-.067c-1.52-.035-3.791.134-4.534.177-.142.008-.705-.009-1.202.023-.149.01-.291.024-.41.046a1.652 1.652 0 0 0-.114.026Z" style="fill:#7d4312"/>
  <path d="M85.6 82.592c-.122-.442-5.159 20.117-5.839 20.479-1.198.638-3.353.314-4.682.305-3.932-.028-7.834-.387-11.755-.659-5.346-.371-10.947-.554-16.305-.828-4.257-.218-8.564-.761-12.819-.993-4.078-.223-18.083-1.236-20.639-1.434-2.001-.156-8.264-1.177-8.706-2.007-.148-.278 8.091-22.102 8.272-22.133 1.894-.32 71.738 6.748 72.473 7.27Z" style="fill:#d17700"/>
  <path d="m85.89 81.811.035.009.158.094.029.018.196.22.095.218a.835.835 0 0 1-.1.67 5.998 5.998 0 0 0-.08.25c-.73 2.41-3.527 13.573-4.93 18.109-.305.988-.56 1.685-.714 1.961l-.197.273-.229.173c-.576.307-1.332.448-2.138.483-1.022.044-2.133-.075-2.942-.08-3.949-.028-7.868-.388-11.807-.661-5.341-.371-10.937-.554-16.289-.827-4.258-.218-8.566-.762-12.822-.994-4.082-.222-18.1-1.237-20.658-1.435-1.647-.128-6.097-.831-8.045-1.542-.746-.273-1.193-.642-1.332-.903l-.082-.229-.008-.316c.014-.094.073-.325.184-.67.998-3.091 6.54-17.793 7.863-21.007.191-.463.331-.735.371-.789l.275-.242.265-.093c.351-.059 2.973.105 7.039.456 15.787 1.36 54.023 5.251 63.523 6.47 1.095.141 1.822.249 2.108.314l.221.064.011.006Zm-.567 1.567-.027-.01-.01-.002.037.012Zm-.822-.136a57.07 57.07 0 0 0-1.164-.163c-9.489-1.217-47.683-5.104-63.453-6.463-3.105-.267-5.313-.449-6.21-.478a97.565 97.565 0 0 0-.716 1.775c-1.931 4.932-6.228 16.372-7.139 19.169.254.105.621.247.958.341 2.071.581 5.48 1.102 6.848 1.208 2.554.198 16.546 1.211 20.621 1.433 4.254.232 8.559.775 12.816.993 5.362.274 10.969.458 16.32.829 3.904.271 7.788.629 11.703.657.786.006 1.865.125 2.857.082.449-.02.878-.066 1.23-.2.1-.26.335-.887.53-1.518 1.331-4.303 3.916-14.571 4.799-17.665Z" style="fill:#684838"/>
  <path d="M94.557 96.795c-.958.532-88.225-8.373-90.871-6.992-1.117.583-1.19 2.648-1.316 3.507-.163 1.106 90.48 6.955 91.24 7.079 1.85.303 1.013-3.604.947-3.594Z" style="fill:#a95600"/>
  <path d="M94.407 96.189a.826.826 0 0 1 .053-.011l.172-.003.198.058.132.086.12.133c.027.042.125.269.193.625.128.664.257 1.921-.005 2.761-.147.475-.413.835-.783 1.03-.261.138-.582.203-.978.138-.683-.112-74.151-4.857-88.719-6.612-1.051-.126-1.804-.239-2.214-.333-.296-.068-.477-.156-.553-.212l-.121-.112-.091-.138-.056-.173-.003-.206c.079-.542.145-1.537.433-2.38.238-.697.631-1.287 1.212-1.591.148-.077.491-.16 1.021-.191.939-.054 2.632-.019 4.916.092 12.879.623 44.799 3.607 65.728 5.486 8.955.804 15.894 1.406 18.459 1.533.413.021.804.02.886.02ZM3.052 92.867c.406.074 1.11.193 1.887.287 14.577 1.755 88.088 6.507 88.772 6.619.16.026.257-.047.313-.166.088-.186.126-.422.143-.671.038-.527-.027-1.104-.094-1.496a23.403 23.403 0 0 1-.614-.023c-2.572-.127-9.53-.73-18.508-1.536-20.914-1.879-52.808-4.86-65.677-5.483-2.222-.108-3.869-.146-4.783-.092a5.586 5.586 0 0 0-.537.062c-.299.167-.461.51-.586.876-.183.535-.261 1.14-.316 1.623Z" style="fill:#7d4312"/>
  <path d="M11.781 88.701a.417.417 0 0 1 .394-.708l.15.07.143.143c.052.074.1.184.129.324.106.512-.031 1.701-.037 1.924-.023.755-.052 3.065-.22 4.599-.082.75-.223 1.331-.376 1.546a.417.417 0 1 1-.679-.482.799.799 0 0 0 .079-.23c.06-.236.108-.557.148-.925.166-1.512.193-3.789.215-4.533.005-.142.07-.702.08-1.199a3.639 3.639 0 0 0-.009-.413 1.528 1.528 0 0 0-.017-.116ZM20.358 89.302a.417.417 0 0 1 .393-.708l.15.07.143.142a.87.87 0 0 1 .13.325c.105.512-.031 1.701-.037 1.924-.023.755-.052 3.064-.22 4.598-.083.751-.224 1.332-.377 1.547a.416.416 0 1 1-.679-.482c.033-.046.053-.128.079-.23.06-.236.108-.557.149-.926.166-1.511.193-3.788.215-4.532.004-.143.069-.702.08-1.2a3.862 3.862 0 0 0-.009-.412c-.004-.039-.012-.085-.017-.116ZM29.266 90.375a.416.416 0 0 1 .394-.708l.15.069.143.143c.052.075.1.184.129.325.106.512-.03 1.7-.037 1.924-.022.754-.051 3.064-.22 4.598-.082.751-.223 1.332-.376 1.547a.417.417 0 0 1-.679-.482c.033-.046.053-.128.079-.23.06-.236.108-.557.148-.926.166-1.511.193-3.788.216-4.532.004-.143.069-.702.08-1.2a3.87 3.87 0 0 0-.01-.413 1.498 1.498 0 0 0-.017-.115ZM38.039 90.592a.417.417 0 0 1 .394-.708l.15.069.143.143c.052.075.1.184.129.325.106.512-.031 1.7-.037 1.924-.023.755-.052 3.064-.22 4.598-.082.751-.223 1.332-.376 1.547a.416.416 0 0 1-.679-.482.81.81 0 0 0 .079-.23c.06-.236.108-.557.148-.926.166-1.511.193-3.788.215-4.532.005-.143.07-.702.08-1.2a3.639 3.639 0 0 0-.009-.413 1.498 1.498 0 0 0-.017-.115ZM46.715 91.326a.416.416 0 0 1 .393-.708l.15.07.143.142a.878.878 0 0 1 .13.325c.105.512-.031 1.701-.038 1.924-.022.755-.051 3.065-.219 4.599-.083.75-.224 1.331-.377 1.546a.416.416 0 1 1-.679-.482c.033-.046.053-.127.079-.23.06-.236.108-.557.149-.925.166-1.512.193-3.789.215-4.533.004-.142.069-.702.08-1.199a3.624 3.624 0 0 0-.01-.413c-.003-.038-.011-.085-.016-.116Z" style="fill:#7d4312"/>
  <path d="m18.007 77.819-.016.026c-.364.665-1.927 4.189-2.044 4.666a.417.417 0 0 1-.809-.199c.122-.498 1.743-4.174 2.123-4.867.054-.099.1-.16.123-.186l.086-.072.093-.046.107-.021.095.004.166.064a.418.418 0 0 1 .076.631Zm-.173.111a.418.418 0 0 1-.362-.047.396.396 0 0 0 .362.047ZM22.091 78.543l-.016.027c-.38.656-2.028 4.14-2.157 4.615a.416.416 0 1 1-.804-.219c.135-.494 1.844-4.13 2.241-4.814.056-.098.103-.158.127-.183l.088-.07.094-.043.107-.019.095.006.164.068a.417.417 0 0 1 .061.632Zm-.175.107a.414.414 0 0 1-.361-.055.393.393 0 0 0 .361.055ZM26.512 79.164l-.016.026c-.38.656-2.028 4.141-2.157 4.615a.417.417 0 0 1-.804-.218c.135-.495 1.844-4.13 2.241-4.814.056-.098.104-.158.127-.183l.088-.071.094-.043.108-.019.094.006.164.068a.417.417 0 0 1 .061.633Zm-.175.107a.42.42 0 0 1-.361-.055.396.396 0 0 0 .361.055ZM30.933 79.785l-.016.026c-.38.656-2.028 4.14-2.157 4.615a.417.417 0 0 1-.804-.219c.135-.494 1.844-4.13 2.241-4.814a1.04 1.04 0 0 1 .127-.182l.088-.071.094-.043.108-.019.094.006.164.068a.417.417 0 0 1 .061.633Zm-.175.106a.414.414 0 0 1-.361-.055.393.393 0 0 0 .361.055ZM35.716 79.8a.382.382 0 0 0-.016.027c-.38.656-2.028 4.14-2.157 4.615a.417.417 0 0 1-.804-.219c.134-.494 1.844-4.13 2.24-4.814.057-.098.104-.158.128-.183l.088-.071.094-.042.107-.02.094.007.165.068a.417.417 0 0 1 .061.632Zm-.176.107a.412.412 0 0 1-.36-.055.394.394 0 0 0 .36.055ZM40.387 80.092l-.016.026c-.38.656-2.028 4.141-2.157 4.615a.417.417 0 0 1-.804-.218c.135-.495 1.844-4.13 2.24-4.814.057-.098.104-.158.128-.183l.088-.071.094-.043.107-.019.095.006.164.068a.416.416 0 0 1 .061.633Zm-.176.107a.419.419 0 0 1-.36-.055.394.394 0 0 0 .36.055ZM44.737 80.58l-.016.026c-.38.656-2.028 4.141-2.157 4.615a.418.418 0 0 1-.804-.218c.134-.495 1.844-4.131 2.24-4.814.057-.098.104-.158.128-.183l.088-.071.094-.043.107-.019.095.006.164.068a.417.417 0 0 1 .061.633Zm-.176.107a.416.416 0 0 1-.36-.056.391.391 0 0 0 .36.056ZM49.716 81.105l-.016.026c-.38.656-2.028 4.14-2.157 4.615a.415.415 0 1 1-.803-.219c.134-.494 1.844-4.13 2.24-4.814.057-.097.104-.158.128-.182l.088-.071.093-.043.108-.019.094.006.164.068a.417.417 0 0 1 .061.633Zm-.175.106a.415.415 0 0 1-.361-.055.393.393 0 0 0 .361.055ZM54.525 81.686l-.016.026c-.38.656-2.028 4.141-2.157 4.615a.418.418 0 0 1-.804-.218c.134-.495 1.844-4.131 2.24-4.814.057-.098.104-.158.128-.183l.088-.071.094-.043.107-.019.095.006.164.068a.417.417 0 0 1 .061.633Zm-.176.107a.416.416 0 0 1-.36-.056.391.391 0 0 0 .36.056ZM59.735 82.188l-.016.027c-.38.656-2.028 4.14-2.157 4.614a.417.417 0 0 1-.804-.218c.135-.495 1.845-4.13 2.241-4.814.056-.098.104-.158.127-.183l.088-.071.094-.043.108-.019.094.007.164.068a.416.416 0 0 1 .061.632Zm-.175.107a.417.417 0 0 1-.361-.055.396.396 0 0 0 .361.055ZM64.946 82.691l-.016.026c-.38.656-2.028 4.14-2.157 4.615a.416.416 0 0 1-.804-.219c.134-.494 1.844-4.13 2.24-4.814.057-.097.104-.158.128-.182l.088-.071.094-.043.107-.019.094.006.165.068a.417.417 0 0 1 .061.633Zm-.176.106a.412.412 0 0 1-.36-.055.388.388 0 0 0 .36.055ZM70.156 83.193l-.016.026c-.38.656-2.028 4.141-2.157 4.615a.417.417 0 0 1-.804-.218c.135-.495 1.844-4.13 2.241-4.814.056-.098.104-.158.127-.183l.088-.071.094-.043.108-.019.094.006.164.069a.416.416 0 0 1 .061.632Zm-.175.107a.42.42 0 0 1-.361-.055.396.396 0 0 0 .361.055ZM75.367 83.695a.382.382 0 0 0-.016.027c-.38.656-2.028 4.14-2.157 4.615a.418.418 0 0 1-.804-.219c.134-.494 1.844-4.13 2.24-4.814.057-.098.104-.158.128-.183l.088-.07.094-.043.107-.019.094.006.165.068a.418.418 0 0 1 .061.632Zm-.176.107a.412.412 0 0 1-.36-.055.391.391 0 0 0 .36.055Z" style="fill:#e0a675"/>
  <path d="M14.66 79.398s.302.054.651.099c.99.125 2.918.326 5.503.58 14.809 1.453 51.156 4.637 56.857 5.369a.417.417 0 0 1-.106.827c-6.412-.825-51.597-4.749-61.278-5.823-1.146-.128-1.823-.231-1.926-.275a.416.416 0 0 1 .299-.777Z" style="fill:#fbd293"/>
  <path d="M55.436 92.018a.417.417 0 0 1 .393-.708l.15.07.143.142a.87.87 0 0 1 .13.325c.105.512-.031 1.7-.038 1.924-.022.755-.051 3.064-.219 4.598-.083.751-.224 1.332-.377 1.547a.416.416 0 0 1-.679-.482c.033-.046.053-.128.079-.23.06-.236.108-.557.149-.926.166-1.511.193-3.788.215-4.532.004-.143.069-.702.08-1.2a3.624 3.624 0 0 0-.01-.413c-.003-.038-.011-.084-.016-.115ZM64.191 92.153a.417.417 0 0 1 .393-.708l.15.07.143.142c.053.075.1.184.129.325.106.512-.03 1.701-.037 1.924-.022.755-.051 3.065-.219 4.598-.083.751-.224 1.332-.377 1.547a.417.417 0 1 1-.679-.482c.033-.046.053-.127.079-.23.06-.236.108-.557.149-.925.166-1.512.193-3.789.215-4.533.004-.143.069-.702.08-1.2a3.6 3.6 0 0 0-.01-.412c-.003-.039-.011-.085-.016-.116ZM73.186 92.642a.417.417 0 0 1 .393-.708l.151.069.143.143c.052.075.1.184.129.325.106.512-.031 1.7-.037 1.924-.023.755-.052 3.064-.22 4.598-.082.751-.223 1.332-.377 1.547a.416.416 0 0 1-.678-.482.81.81 0 0 0 .079-.23c.06-.236.108-.557.148-.926.166-1.511.193-3.788.215-4.532.004-.143.069-.702.08-1.2a3.639 3.639 0 0 0-.009-.413 1.498 1.498 0 0 0-.017-.115Z" style="fill:#7d4312"/>
  <path d="M98.675 90.61a7.537 7.537 0 0 1 4.476 9.668 7.538 7.538 0 0 1-9.669 4.476 7.538 7.538 0 0 1-4.476-9.669 7.537 7.537 0 0 1 9.669-4.475Z" style="fill:#815d49;stroke:#684838;stroke-width:1.4px"/>

  <animateTransform
      attributeName="transform"
      begin="0s"
      dur="10s"
      type="rotate"
      from="360 97 97"
      to="0 97 97"
      repeatCount="indefinite" />
  </g>
</svg>