<svg xmlns="http://www.w3.org/2000/svg" xml:space="preserve" style="fill-rule:evenodd;clip-rule:evenodd;stroke-linecap:round;stroke-linejoin:round;stroke-miterlimit:1.5" viewBox="0 0 97 134">
  <rect id="Artboard1" x="0" y="0" width="96.451" height="133.219" style="fill:none;"/>
    <g>
        <rect x="5.145" y="106.669" width="85.541" height="25.601" style="fill:rgb(211,190,150);"/>
        <clipPath id="_clip1">
            <rect x="5.145" y="106.669" width="85.541" height="25.601"/>
        </clipPath>
        <g clip-path="url(#_clip1)">
            <path d="M58.55,133.236l-18.299,0c-0.928,-1.95 -1.416,-4.162 -1.416,-6.414c0,-7.08 4.734,-12.828 10.565,-12.828c5.831,-0 10.565,5.748 10.565,12.828c0,2.252 -0.488,4.464 -1.415,6.414Z" style="fill:rgb(194,152,86);stroke:rgb(108,82,66);stroke-width:1.77px;"/>
            <ellipse cx="55.261" cy="124.878" rx="1.427" ry="1.35" style="fill:rgb(108,82,66);stroke:rgb(108,82,66);stroke-width:1.77px;"/>
        </g>
        <rect x="5.145" y="106.669" width="85.541" height="25.601" style="fill:none;stroke:rgb(108,82,66);stroke-width:1.77px;"/>
        <path d="M2.681,107.716c-2.637,-2.06 2.653,-30.956 11.246,-55.68c6.92,-19.911 16.76,-36.628 20.366,-38.195c12.55,-5.454 35.197,-0.884 39.428,0.955c0.62,0.269 8.196,14.812 12.128,32.876c5.847,26.869 10.979,60.768 7.302,61.817c-13.316,3.799 -85.468,2.134 -90.47,-1.773Z" style="fill:rgb(194,152,86);"/>
        <clipPath id="_clip2">
            <path d="M2.681,107.716c-2.637,-2.06 2.653,-30.956 11.246,-55.68c6.92,-19.911 16.76,-36.628 20.366,-38.195c12.55,-5.454 35.197,-0.884 39.428,0.955c0.62,0.269 8.196,14.812 12.128,32.876c5.847,26.869 10.979,60.768 7.302,61.817c-13.316,3.799 -85.468,2.134 -90.47,-1.773Z"/>
        </clipPath>
        <g clip-path="url(#_clip2)">
            <rect x="40.321" y="55.05" width="15.469" height="13.998" style="fill:rgb(211,190,150);"/>
            <clipPath id="_clip3">
                <rect x="40.321" y="55.05" width="15.469" height="13.998"/>
            </clipPath>
            <g clip-path="url(#_clip3)">
                <path d="M47.992,55.475c-0.026,0.365 -0.107,10.23 -0.093,13.417" style="fill:none;stroke:rgb(108,82,66);stroke-width:0.44px;"/>
                <path d="M54.653,62.25c-0.365,-0.027 -10.23,-0.137 -13.417,-0.132" style="fill:none;stroke:rgb(108,82,66);stroke-width:0.44px;"/>
            </g>
            <rect x="40.321" y="55.05" width="15.469" height="13.998" style="fill:none;stroke:rgb(108,82,66);stroke-width:1.77px;"/>
            <rect x="40.516" y="75.76" width="15.469" height="13.998" style="fill:rgb(211,190,150);"/>
            <clipPath id="_clip4">
                <rect x="40.516" y="75.76" width="15.469" height="13.998"/>
            </clipPath>
            <g clip-path="url(#_clip4)">
                <path d="M48.187,76.185c-0.025,0.365 -0.106,10.231 -0.092,13.417" style="fill:none;stroke:rgb(108,82,66);stroke-width:0.44px;"/>
                <path d="M54.848,82.96c-0.365,-0.026 -10.23,-0.136 -13.416,-0.132" style="fill:none;stroke:rgb(108,82,66);stroke-width:0.44px;"/>
            </g>
            <rect x="40.516" y="75.76" width="15.469" height="13.998" style="fill:none;stroke:rgb(108,82,66);stroke-width:1.77px;"/>
            <path d="M17.921,44.805c-1.184,3.139 -4.795,12.949 -7.974,25.268c-2.946,11.418 -6.25,25.023 -5.865,37.008" style="fill:none;stroke:rgb(166,129,80);stroke-width:8px;"/>
        </g>
        <path d="M2.135,108.414c-0.265,-0.207 -0.515,-0.556 -0.686,-1.075c-0.259,-0.786 -0.375,-2.102 -0.322,-3.858c0.281,-9.29 5.053,-31.856 11.963,-51.736c4.874,-14.026 11.194,-26.475 15.789,-33.224c2.094,-3.076 3.903,-4.989 5.061,-5.492c5.126,-2.228 11.9,-2.837 18.463,-2.623c9.788,0.319 19.093,2.457 21.671,3.577l0.216,0.129l0.219,0.217c0.202,0.243 0.595,0.868 1.115,1.836c2.4,4.472 7.922,16.76 11.09,31.318c4.696,21.578 8.92,47.673 8.536,57.787c-0.074,1.952 -0.342,3.357 -0.753,4.109c-0.298,0.545 -0.689,0.844 -1.103,0.962c-10.697,3.052 -59.208,2.62 -80.756,0.305c-3.823,-0.41 -6.807,-0.883 -8.604,-1.4c-0.903,-0.26 -1.54,-0.552 -1.899,-0.832Zm1.109,-1.383c0.348,0.261 1.062,0.478 2.066,0.715c1.767,0.418 4.344,0.797 7.517,1.138c21.335,2.292 69.325,2.778 80.032,-0.233c0.019,-0.026 0.06,-0.08 0.083,-0.122c0.078,-0.143 0.143,-0.323 0.202,-0.537c0.186,-0.673 0.291,-1.615 0.335,-2.789c0.381,-10.037 -3.836,-35.93 -8.496,-57.343c-3.122,-14.343 -8.556,-26.451 -10.921,-30.857c-0.352,-0.656 -0.736,-1.263 -0.868,-1.467c-2.721,-1.102 -11.565,-3.056 -20.848,-3.359c-6.29,-0.205 -12.787,0.342 -17.7,2.477c-0.359,0.156 -0.78,0.508 -1.274,1.008c-0.867,0.877 -1.891,2.186 -3.028,3.856c-4.537,6.664 -10.767,18.96 -15.58,32.808c-5.991,17.238 -10.373,36.509 -11.56,47.225c-0.298,2.687 -0.396,4.822 -0.256,6.23c0.04,0.406 0.099,0.743 0.185,1.004c0.031,0.095 0.097,0.221 0.111,0.246Z" style="fill:rgb(108,82,66);"/>
        <path d="M52.706,2.77c-11.777,0.295 -20.541,4.779 -27.556,15.581c-6.984,10.754 -12.847,33.792 -10.753,29.717c1.203,-2.339 22.372,-4.971 38.39,-4.767c13.478,0.173 32.342,4.967 33.797,6.429c2.164,2.173 -1.843,-20.947 -7.23,-30.595c-4.627,-8.285 -12.752,-16.713 -26.648,-16.365Z" style="fill:rgb(176,80,62);"/>
        <clipPath id="_clip5">
            <path d="M52.706,2.77c-11.777,0.295 -20.541,4.779 -27.556,15.581c-6.984,10.754 -12.847,33.792 -10.753,29.717c1.203,-2.339 22.372,-4.971 38.39,-4.767c13.478,0.173 32.342,4.967 33.797,6.429c2.164,2.173 -1.843,-20.947 -7.23,-30.595c-4.627,-8.285 -12.752,-16.713 -26.648,-16.365Z"/>
        </clipPath>
        <g clip-path="url(#_clip5)">
            <path d="M17.711,47.483c-0.188,-1.674 2.926,-16.762 8.233,-26.707c9.954,-18.655 17.715,-20.257 22.83,-20.708" style="fill:none;stroke:rgb(162,76,60);stroke-width:8px;"/>
        </g>
        <path d="M15.173,48.497c-0.289,0.552 -0.588,0.78 -0.727,0.845l-0.363,0.089l-0.319,-0.042l-0.282,-0.147l-0.242,-0.27l-0.113,-0.273l-0.043,-0.276c-0.012,-0.2 0.011,-0.535 0.081,-0.986c0.66,-4.205 5.589,-20.864 11.242,-29.569c7.198,-11.083 16.192,-15.681 28.277,-15.984c14.303,-0.358 22.682,8.291 27.444,16.819c4.37,7.828 7.846,24.402 7.938,29.59c0.019,1.058 -0.168,1.752 -0.367,2.021l-0.153,0.168l-0.22,0.155l-0.38,0.116l-0.288,-0.009l-0.241,-0.07l-0.22,-0.119l-0.241,-0.2c-0.131,-0.132 -0.465,-0.268 -0.941,-0.461c-0.933,-0.377 -2.331,-0.829 -4.064,-1.311c-6.839,-1.907 -18.816,-4.276 -28.175,-4.396c-11.148,-0.142 -24.805,1.095 -32.406,2.649c-1.894,0.387 -3.401,0.79 -4.378,1.2c-0.275,0.115 -0.502,0.228 -0.673,0.343c-0.055,0.037 -0.128,0.101 -0.146,0.118Zm-0.008,-2.032c0.508,-0.223 1.148,-0.447 1.906,-0.663c6.594,-1.878 22.821,-3.552 35.728,-3.387c10.875,0.139 25.226,3.261 31.283,5.26c0.926,0.305 1.672,0.603 2.214,0.864c0.002,-0.641 -0.062,-1.503 -0.182,-2.534c-0.765,-6.576 -3.81,-19.768 -7.534,-26.438c-4.491,-8.043 -12.363,-16.249 -25.852,-15.911c-11.47,0.287 -20.003,4.658 -26.835,15.177c-4.838,7.45 -9.124,20.861 -10.555,26.851c-0.064,0.269 -0.122,0.532 -0.173,0.781Z" style="fill:rgb(130,67,54);"/>
    </g>
</svg>